<svg width="90" height="18" viewBox="0 0 90 18" fill="none" xmlns="http://www.w3.org/2000/svg">
<path d="M10.2489 2.30867L11.4876 4.92297C11.6906 5.35094 12.0826 5.64755 12.5361 5.71625L15.3063 6.13553C16.4484 6.30835 16.9044 7.76996 16.0779 8.60901L14.0728 10.6437C13.7447 10.9769 13.595 11.4569 13.6724 11.9274L14.1456 14.8007C14.3409 15.9854 13.1467 16.8887 12.1255 16.3295L9.64779 14.9736C9.24213 14.7514 8.75741 14.7514 8.35172 14.9736L5.87399 16.3304C4.85277 16.8896 3.65864 15.9853 3.85395 14.8016L4.3271 11.9283C4.4049 11.4576 4.25503 10.9771 3.92667 10.6437L1.92209 8.60878C1.09554 7.76973 1.55164 6.30812 2.69373 6.1353L5.46387 5.71603C5.91745 5.64731 6.30944 5.35068 6.51246 4.92274L7.75062 2.3087C8.26198 1.23046 9.73755 1.23042 10.2489 2.30867Z" fill="#FFAE43"/>
<path d="M28.2489 2.30867L29.4876 4.92297C29.6906 5.35094 30.0826 5.64755 30.5361 5.71625L33.3063 6.13553C34.4484 6.30835 34.9044 7.76996 34.0779 8.60901L32.0728 10.6437C31.7447 10.9769 31.595 11.4569 31.6724 11.9274L32.1456 14.8007C32.3409 15.9854 31.1467 16.8887 30.1255 16.3295L27.6478 14.9736C27.2421 14.7514 26.7574 14.7514 26.3517 14.9736L23.874 16.3304C22.8528 16.8896 21.6586 15.9853 21.8539 14.8016L22.3271 11.9283C22.4049 11.4576 22.255 10.9771 21.9267 10.6437L19.9221 8.60878C19.0955 7.76973 19.5516 6.30812 20.6937 6.1353L23.4639 5.71603C23.9175 5.64731 24.3094 5.35068 24.5125 4.92274L25.7506 2.3087C26.262 1.23046 27.7376 1.23042 28.2489 2.30867Z" fill="#FFAE43"/>
<path d="M46.2489 2.30867L47.4876 4.92297C47.6906 5.35094 48.0826 5.64755 48.5361 5.71625L51.3063 6.13553C52.4484 6.30835 52.9044 7.76996 52.0779 8.60901L50.0728 10.6437C49.7447 10.9769 49.595 11.4569 49.6724 11.9274L50.1456 14.8007C50.3409 15.9854 49.1467 16.8887 48.1255 16.3295L45.6478 14.9736C45.2421 14.7514 44.7574 14.7514 44.3517 14.9736L41.874 16.3304C40.8528 16.8896 39.6586 15.9853 39.8539 14.8016L40.3271 11.9283C40.4049 11.4576 40.255 10.9771 39.9267 10.6437L37.9221 8.60878C37.0955 7.76973 37.5516 6.30812 38.6937 6.1353L41.4639 5.71603C41.9175 5.64731 42.3094 5.35068 42.5125 4.92274L43.7506 2.3087C44.262 1.23046 45.7376 1.23042 46.2489 2.30867Z" fill="#FFAE43"/>
<path d="M64.2489 2.30867L65.4876 4.92297C65.6906 5.35094 66.0826 5.64755 66.5361 5.71625L69.3063 6.13553C70.4484 6.30835 70.9044 7.76996 70.0779 8.60901L68.0728 10.6437C67.7447 10.9769 67.595 11.4569 67.6724 11.9274L68.1456 14.8007C68.3409 15.9854 67.1467 16.8887 66.1255 16.3295L63.6478 14.9736C63.2421 14.7514 62.7574 14.7514 62.3517 14.9736L59.874 16.3304C58.8528 16.8896 57.6586 15.9853 57.8539 14.8016L58.3271 11.9283C58.4049 11.4576 58.255 10.9771 57.9267 10.6437L55.9221 8.60878C55.0955 7.76973 55.5516 6.30812 56.6937 6.1353L59.4639 5.71603C59.9175 5.64731 60.3094 5.35068 60.5125 4.92274L61.7506 2.3087C62.262 1.23046 63.7376 1.23042 64.2489 2.30867Z" fill="#FFAE43"/>
<path d="M82.2489 2.30867L83.4876 4.92297C83.6906 5.35094 84.0826 5.64755 84.5361 5.71625L87.3063 6.13553C88.4484 6.30835 88.9044 7.76996 88.0779 8.60901L86.0728 10.6437C85.7447 10.9769 85.595 11.4569 85.6724 11.9274L86.1456 14.8007C86.3409 15.9854 85.1467 16.8887 84.1255 16.3295L81.6478 14.9736C81.2421 14.7514 80.7574 14.7514 80.3517 14.9736L77.874 16.3304C76.8528 16.8896 75.6586 15.9853 75.8539 14.8016L76.3271 11.9283C76.4049 11.4576 76.255 10.9771 75.9267 10.6437L73.9221 8.60878C73.0955 7.76973 73.5516 6.30812 74.6937 6.1353L77.4639 5.71603C77.9175 5.64731 78.3094 5.35068 78.5125 4.92274L79.7506 2.3087C80.262 1.23046 81.7376 1.23042 82.2489 2.30867Z" fill="#FFAE43"/>
</svg>
