<svg width="68" height="56" viewBox="0 0 68 56" fill="none" xmlns="http://www.w3.org/2000/svg">
<path fillRule="evenodd" clipRule="evenodd" d="M63.2789 0.347412H4.72031C2.56424 0.347412 0.816406 2.11606 0.816406 4.29779V51.7024C0.816406 53.8841 2.56424 55.6527 4.72031 55.6527H63.2789C65.435 55.6527 67.1828 53.8841 67.1828 51.7024V4.29779C67.1828 2.11606 65.435 0.347412 63.2789 0.347412ZM4.71909 51.7021V4.29749H63.2777V51.7021H4.71909ZM11.5518 16.6423C11.5518 20.7331 14.829 24.0493 18.8716 24.0493C22.9143 24.0493 26.1915 20.7331 26.1915 16.6423C26.1915 12.5516 22.9143 9.23537 18.8716 9.23537C14.829 9.23537 11.5518 12.5516 11.5518 16.6423ZM22.2863 16.642C22.2863 18.551 20.7569 20.0986 18.8704 20.0986C16.9838 20.0986 15.4545 18.551 15.4545 16.642C15.4545 14.733 16.9838 13.1854 18.8704 13.1854C20.7569 13.1854 22.2863 14.733 22.2863 16.642ZM14.878 47.1788C14.1125 47.9469 12.8766 47.9414 12.1176 47.1668C11.3586 46.3921 11.3639 45.1415 12.1295 44.3734L28.1837 28.268L37.2323 36.2321C38.0456 36.948 38.1315 38.1956 37.424 39.0187C36.7165 39.8418 35.4836 39.9287 34.6702 39.2128L28.3573 33.6565L14.878 47.1788ZM29.5235 47.1735C28.7612 47.9449 27.5253 47.9449 26.763 47.1736C26.0007 46.4023 26.0006 45.1517 26.7629 44.3803L52.4532 18.3818L66.5177 30.8694C67.328 31.5888 67.4085 32.8368 66.6975 33.6568C65.9865 34.4767 64.7532 34.5582 63.9429 33.8387L52.6276 23.7922L29.5235 47.1735Z" fill="#0D0E10"/>
<path fillRule="evenodd" clipRule="evenodd" d="M63.2789 0.347412H4.72031C2.56424 0.347412 0.816406 2.11606 0.816406 4.29779V51.7024C0.816406 53.8841 2.56424 55.6527 4.72031 55.6527H63.2789C65.435 55.6527 67.1828 53.8841 67.1828 51.7024V4.29779C67.1828 2.11606 65.435 0.347412 63.2789 0.347412ZM4.71909 51.7021V4.29749H63.2777V51.7021H4.71909ZM11.5518 16.6423C11.5518 20.7331 14.829 24.0493 18.8716 24.0493C22.9143 24.0493 26.1915 20.7331 26.1915 16.6423C26.1915 12.5516 22.9143 9.23537 18.8716 9.23537C14.829 9.23537 11.5518 12.5516 11.5518 16.6423ZM22.2863 16.642C22.2863 18.551 20.7569 20.0986 18.8704 20.0986C16.9838 20.0986 15.4545 18.551 15.4545 16.642C15.4545 14.733 16.9838 13.1854 18.8704 13.1854C20.7569 13.1854 22.2863 14.733 22.2863 16.642ZM14.878 47.1788C14.1125 47.9469 12.8766 47.9414 12.1176 47.1668C11.3586 46.3921 11.3639 45.1415 12.1295 44.3734L28.1837 28.268L37.2323 36.2321C38.0456 36.948 38.1315 38.1956 37.424 39.0187C36.7165 39.8418 35.4836 39.9287 34.6702 39.2128L28.3573 33.6565L14.878 47.1788ZM29.5235 47.1735C28.7612 47.9449 27.5253 47.9449 26.763 47.1736C26.0007 46.4023 26.0006 45.1517 26.7629 44.3803L52.4532 18.3818L66.5177 30.8694C67.328 31.5888 67.4085 32.8368 66.6975 33.6568C65.9865 34.4767 64.7532 34.5582 63.9429 33.8387L52.6276 23.7922L29.5235 47.1735Z" fill="#0D0E10"/>
<path d="M63.2789 0.347412H4.72031C2.56424 0.347412 0.816406 2.11606 0.816406 4.29779V51.7024C0.816406 53.8841 2.56424 55.6527 4.72031 55.6527H63.2789C65.435 55.6527 67.1828 53.8841 67.1828 51.7024V4.29779C67.1828 2.11606 65.435 0.347412 63.2789 0.347412ZM4.71909 51.7021V4.29749H63.2777V51.7021H4.71909ZM11.5518 16.6423C11.5518 20.7331 14.829 24.0493 18.8716 24.0493C22.9143 24.0493 26.1915 20.7331 26.1915 16.6423C26.1915 12.5516 22.9143 9.23537 18.8716 9.23537C14.829 9.23537 11.5518 12.5516 11.5518 16.6423ZM22.2863 16.642C22.2863 18.551 20.7569 20.0986 18.8704 20.0986C16.9838 20.0986 15.4545 18.551 15.4545 16.642C15.4545 14.733 16.9838 13.1854 18.8704 13.1854C20.7569 13.1854 22.2863 14.733 22.2863 16.642ZM14.878 47.1788C14.1125 47.9469 12.8766 47.9414 12.1176 47.1668C11.3586 46.3921 11.3639 45.1415 12.1295 44.3734L28.1837 28.268L37.2323 36.2321C38.0456 36.948 38.1315 38.1956 37.424 39.0187C36.7165 39.8418 35.4836 39.9287 34.6702 39.2128L28.3573 33.6565L14.878 47.1788ZM29.5235 47.1735C28.7612 47.9449 27.5253 47.9449 26.763 47.1736C26.0007 46.4023 26.0006 45.1517 26.7629 44.3803L52.4532 18.3818L66.5177 30.8694C67.328 31.5888 67.4085 32.8368 66.6975 33.6568C65.9865 34.4767 64.7532 34.5582 63.9429 33.8387L52.6276 23.7922L29.5235 47.1735Z" fill="#0D0E10"/>
<path d="M63.2789 0.347412H4.72031C2.56424 0.347412 0.816406 2.11606 0.816406 4.29779V51.7024C0.816406 53.8841 2.56424 55.6527 4.72031 55.6527H63.2789C65.435 55.6527 67.1828 53.8841 67.1828 51.7024V4.29779C67.1828 2.11606 65.435 0.347412 63.2789 0.347412ZM4.71909 51.7021V4.29749H63.2777V51.7021H4.71909ZM11.5518 16.6423C11.5518 20.7331 14.829 24.0493 18.8716 24.0493C22.9143 24.0493 26.1915 20.7331 26.1915 16.6423C26.1915 12.5516 22.9143 9.23537 18.8716 9.23537C14.829 9.23537 11.5518 12.5516 11.5518 16.6423ZM22.2863 16.642C22.2863 18.551 20.7569 20.0986 18.8704 20.0986C16.9838 20.0986 15.4545 18.551 15.4545 16.642C15.4545 14.733 16.9838 13.1854 18.8704 13.1854C20.7569 13.1854 22.2863 14.733 22.2863 16.642ZM14.878 47.1788C14.1125 47.9469 12.8766 47.9414 12.1176 47.1668C11.3586 46.3921 11.3639 45.1415 12.1295 44.3734L28.1837 28.268L37.2323 36.2321C38.0456 36.948 38.1315 38.1956 37.424 39.0187C36.7165 39.8418 35.4836 39.9287 34.6702 39.2128L28.3573 33.6565L14.878 47.1788ZM29.5235 47.1735C28.7612 47.9449 27.5253 47.9449 26.763 47.1736C26.0007 46.4023 26.0006 45.1517 26.7629 44.3803L52.4532 18.3818L66.5177 30.8694C67.328 31.5888 67.4085 32.8368 66.6975 33.6568C65.9865 34.4767 64.7532 34.5582 63.9429 33.8387L52.6276 23.7922L29.5235 47.1735Z" fill="#0D0E10"/>
</svg>
