<svg width="181" height="108" viewBox="0 0 181 108" fill="none" xmlns="http://www.w3.org/2000/svg">
<g clip-path="url(#clip0_5185_1633)">
<path d="M155.367 51.3588C169.261 51.3588 180.524 40.0954 180.524 26.2014C180.524 12.3073 169.261 1.04395 155.367 1.04395C141.473 1.04395 130.209 12.3073 130.209 26.2014C130.209 40.0954 141.473 51.3588 155.367 51.3588Z" fill="white"/>
<path d="M12.395 33.6071H102.779C112.274 35.8943 112.367 52.4489 102.779 54.1918C90.3995 56.8063 91.8887 77.0638 102.779 78.2608C124.188 77.3893 122.606 107.644 102.779 107.559H12.3022C-2.77716 105.924 -1.93893 79.568 12.3022 79.2408C27.2889 80.6565 30.9183 54.4631 12.3022 54.4088C-2.21893 54.3003 -0.356969 32.4083 12.395 33.6071Z" fill="white"/>
<path d="M153.787 25.0038L104.656 12.7995C102.386 12.2357 100.089 13.6187 99.5247 15.8886L85.4924 72.379C84.9286 74.6489 86.3116 76.9461 88.5815 77.5099L137.713 89.7143C139.983 90.2781 142.28 88.8951 142.844 86.6252L156.876 30.1347C157.44 27.8649 156.057 25.5677 153.787 25.0038Z" fill="#C6C6C6"/>
<path d="M148.704 29.0945L107.234 18.7933C106.059 18.5013 104.869 19.2174 104.577 20.3927L94.2762 61.8629C93.9843 63.0382 94.7004 64.2276 95.8756 64.5196L137.346 74.8208C138.521 75.1128 139.711 74.3967 140.003 73.2214L150.304 31.7512C150.596 30.5759 149.88 29.3865 148.704 29.0945Z" fill="#EAEAEA"/>
<path d="M116.075 49.5264L119.131 37.6389C119.383 36.6554 120.618 36.3317 121.321 37.0632L129.634 45.7115C130.311 46.4167 129.994 47.5892 129.055 47.8569L117.687 51.0961C116.724 51.3708 115.827 50.4959 116.077 49.5264H116.075Z" fill="#5C5C5C"/>
<g filter="url(#filter0_d_5185_1633)">
<path d="M91.7722 12.5507L42.8385 25.5252C40.5777 26.1247 39.2309 28.4433 39.8304 30.7041L54.7482 86.9671C55.3477 89.2279 57.6663 90.5746 59.9271 89.9752L108.861 77.0007C111.122 76.4012 112.468 74.0826 111.869 71.8218L96.951 15.5588C96.3516 13.298 94.0329 11.9513 91.7722 12.5507Z" fill="#C6C6C6"/>
</g>
<path d="M89.2873 18.5836L47.984 29.535C46.8134 29.8453 46.1161 31.0458 46.4265 32.2164L57.3778 73.5197C57.6882 74.6903 58.8887 75.3876 60.0593 75.0772L101.363 64.1258C102.533 63.8155 103.23 62.615 102.92 61.4444L91.9687 20.1411C91.6584 18.9705 90.4578 18.2732 89.2873 18.5836Z" fill="#EAEAEA"/>
<path d="M60.8549 58.8767L64.2201 46.0687C64.4284 45.2725 65.4153 44.9942 66.0103 45.563L74.9124 54.0853C75.6159 54.759 75.3376 55.9402 74.4066 56.229L62.0694 60.0404C61.3484 60.2626 60.6642 59.6064 60.8549 58.8767Z" fill="#5C5C5C"/>
<path d="M69.9514 55.4292L75.763 34.8304C76.1235 33.5512 77.7265 33.1295 78.6697 34.0657L92.8059 48.0951C93.9241 49.2046 93.4376 51.1068 91.9257 51.5443L71.8799 57.3436C70.7092 57.6831 69.6207 56.6017 69.9514 55.4292Z" fill="#5C5C5C"/>
<path d="M66.3028 40.607C67.3891 40.607 68.2697 39.7264 68.2697 38.6401C68.2697 37.5537 67.3891 36.6731 66.3028 36.6731C65.2164 36.6731 64.3358 37.5537 64.3358 38.6401C64.3358 39.7264 65.2164 40.607 66.3028 40.607Z" fill="#5C5C5C"/>
</g>
<defs>
<filter id="filter0_d_5185_1633" x="39.6879" y="12.4082" width="73.2667" height="78.182" filterUnits="userSpaceOnUse" color-interpolation-filters="sRGB">
<feFlood flood-opacity="0" result="BackgroundImageFix"/>
<feColorMatrix in="SourceAlpha" type="matrix" values="0 0 0 0 0 0 0 0 0 0 0 0 0 0 0 0 0 0 127 0" result="hardAlpha"/>
<feOffset dx="0.943228" dy="0.472489"/>
<feColorMatrix type="matrix" values="0 0 0 0 0 0 0 0 0 0 0 0 0 0 0 0 0 0 0.29 0"/>
<feBlend mode="normal" in2="BackgroundImageFix" result="effect1_dropShadow_5185_1633"/>
<feBlend mode="normal" in="SourceGraphic" in2="effect1_dropShadow_5185_1633" result="shape"/>
</filter>
<clipPath id="clip0_5185_1633">
<rect width="179.76" height="107.025" fill="white" transform="translate(0.794495 0.854492)"/>
</clipPath>
</defs>
</svg>
