<svg width="24" height="24" viewBox="0 0 24 24" fill="none" xmlns="http://www.w3.org/2000/svg">
<g clip-path="url(#clip0_4081_1616)">
<path d="M12 15.0001L20.385 6.58511C20.7788 6.19126 21.0001 5.65709 21.0001 5.10011C21.0001 4.54312 20.7788 4.00895 20.385 3.61511C19.9912 3.22126 19.457 3 18.9 3C18.343 3 17.8088 3.22126 17.415 3.61511L9 12.0001V15.0001H12Z" stroke="#FAFAFA" stroke-width="1.5" stroke-linecap="round" stroke-linejoin="round"/>
<path d="M16 5L19 8" stroke="#FAFAFA" stroke-width="1.5" stroke-linecap="round" stroke-linejoin="round"/>
<path d="M9.0009 7.07007C7.24669 7.32001 5.65254 8.22592 4.54001 9.60505C3.42749 10.9842 2.87938 12.7339 3.00626 14.5013C3.13314 16.2687 3.92555 17.9222 5.22366 19.1283C6.52177 20.3343 8.22898 21.0033 10.0009 21.0001C11.6843 21.0003 13.3114 20.3938 14.584 19.2918C15.8566 18.1899 16.6894 16.6662 16.9299 15.0001" stroke="#FAFAFA" stroke-width="1.5" stroke-linecap="round" stroke-linejoin="round"/>
</g>
<defs>
<clipPath id="clip0_4081_1616">
<rect width="24" height="24" fill="white"/>
</clipPath>
</defs>
</svg>
