<svg width="377" height="270" viewBox="0 0 377 270" fill="none" xmlns="http://www.w3.org/2000/svg">
<path d="M35.9383 240.86H327.117C357.706 234.307 358.003 186.879 327.117 181.889C287.233 174.399 292.031 116.364 327.117 112.932C396.089 115.427 390.991 28.7549 327.117 29.0005H35.638C-12.9413 33.6814 -10.2421 109.191 35.638 110.127C83.917 106.069 95.6147 181.113 35.638 181.269C-11.1429 181.582 -5.14394 244.299 35.9383 240.864V240.86Z" fill="white"/>
<path d="M236.291 41.0658C242.573 41.7255 247.91 39.9312 248.212 37.0581C248.513 34.185 243.666 31.3211 237.384 30.6614C231.102 30.0016 225.766 31.7959 225.464 34.669C225.162 37.5421 230.01 40.406 236.291 41.0658Z" fill="#878EE7"/>
<path d="M241.978 27.2729C243.514 21.6323 242.233 16.3716 239.117 15.5228C236 14.674 232.228 18.5584 230.692 24.199C229.156 29.8395 230.437 35.1002 233.553 35.9491C236.67 36.7979 240.442 32.9134 241.978 27.2729Z" fill="#EBECFB"/>
<path d="M244.672 30.3695C248.281 25.4339 249.093 19.8871 246.486 17.9805C243.878 16.0739 238.839 18.5294 235.23 23.4651C231.621 28.4007 230.809 33.9475 233.416 35.8541C236.023 37.7607 241.063 35.3052 244.672 30.3695Z" fill="#878EE7"/>
<path d="M232.83 39.6973C235.139 41.8227 238.141 43.8636 240.948 45.0253" stroke="#AEAFED" stroke-width="0.823748" stroke-linecap="round" stroke-linejoin="round"/>
<path d="M255.086 45.0689C281.876 56.8336 298.262 80.9706 280.19 108.062C266.984 129.779 230.278 124.626 228.664 109.948C226.882 93.7334 253.354 91.7621 276.615 104.357C292.384 112.466 301.803 130.936 281.131 145.859" stroke="#EBECFB" stroke-width="1.09833" stroke-miterlimit="10"/>
<path d="M226.847 34.4938C227.88 34.6023 228.806 33.8528 228.914 32.8197C229.023 31.7866 228.273 30.8611 227.24 30.7526C226.207 30.6441 225.282 31.3937 225.173 32.4268C225.065 33.4599 225.814 34.3853 226.847 34.4938Z" fill="#EBECFB"/>
<path d="M164.044 72.169L151.973 38.0876C151.162 36.7615 150.872 34.3521 151.689 33.0852C152.085 32.4506 152.687 31.9718 153.394 31.7295L172.693 25.2945C173.279 25.0895 173.911 25.0593 174.513 25.2075C175.116 25.3557 175.662 25.676 176.085 26.1292L179.85 30.0423L205.117 21.6418C208.379 20.2388 211.357 22.1806 211.925 24.7025L221.367 53.9414C222.167 57.4934 220.018 61.1046 217.087 62.0814L172.462 76.9642C169.396 77.9647 165.909 76.1295 164.044 72.169Z" fill="#5558DA"/>
<g opacity="0.3">
<path d="M164.044 72.169L151.973 38.0876C151.162 36.7615 150.872 34.3521 151.689 33.0852C152.085 32.4506 152.687 31.9718 153.394 31.7295L172.693 25.2945C173.279 25.0895 173.911 25.0593 174.513 25.2075C175.116 25.3557 175.662 25.676 176.085 26.1292L179.85 30.0423L205.117 21.6418C208.379 20.2388 211.357 22.1806 211.925 24.7025L221.367 53.9414C222.167 57.4934 220.018 61.1046 217.087 62.0814L172.462 76.9642C169.396 77.9647 165.909 76.1295 164.044 72.169Z" fill="black"/>
</g>
<path d="M163.369 71.8318L153.548 43.1317C153.045 40.7637 153.992 38.5851 155.762 37.9931L206.372 21.1152C208.515 20.4048 210.984 22.2992 211.653 25.123L220.906 51.615C223.12 58.2573 220.249 61.4186 217.223 62.4309L172.877 77.2309C168.318 78.7405 165.051 77.6216 163.369 71.8318Z" fill="#4D4FC4"/>
<path d="M200.085 55.2557C200.085 55.2557 200.322 55.1669 200.73 54.9301C201.319 54.5665 201.79 54.0401 202.086 53.4145C202.413 52.7036 202.497 51.9044 202.323 51.1413C202.246 50.863 202.145 50.5493 202.039 50.2592L200.63 46.1152L199.813 43.6998C199.671 43.2854 199.529 42.8533 199.381 42.4152C199.253 41.9744 199.077 41.5494 198.854 41.1483C198.475 40.5211 197.929 40.0127 197.275 39.6809C196.622 39.3492 195.889 39.2074 195.16 39.2717C194.644 39.3391 194.139 39.4703 193.656 39.6624L180.431 44.1024C179.893 44.3437 179.42 44.7077 179.049 45.1653C178.677 45.6228 178.419 46.1611 178.294 46.7368C178.169 47.2998 178.181 47.8844 178.329 48.4417C178.483 48.9923 178.69 49.5606 178.868 50.1112C179.61 52.3332 180.318 54.4663 180.993 56.5107C181.171 57.008 181.313 57.5408 181.508 57.9966C181.812 58.6572 182.314 59.2071 182.944 59.5708C183.573 59.9344 184.3 60.0939 185.025 60.0272C185.48 59.9673 185.927 59.854 186.357 59.6897L187.647 59.2635L190.068 58.4702L197.38 56.1022L199.375 55.4688L199.896 55.3089L200.073 55.2675L199.902 55.3445L199.392 55.528L197.421 56.2206L190.14 58.7011L187.724 59.5181L186.44 59.9502C185.994 60.1253 185.529 60.2465 185.054 60.3113C184.272 60.3878 183.486 60.2192 182.804 59.8289C182.122 59.4385 181.578 58.8458 181.248 58.1328C181.023 57.6237 180.892 57.1323 180.709 56.6173L178.584 50.2355C178.4 49.6435 178.199 49.1403 178.033 48.5424C177.873 47.9385 177.861 47.305 177.998 46.6953C178.13 46.0698 178.409 45.4846 178.812 44.9876C179.214 44.4906 179.728 44.096 180.312 43.836C185.048 42.2198 189.494 40.7635 193.579 39.4019C194.084 39.2061 194.611 39.0729 195.148 39.0053C195.927 38.9366 196.709 39.0897 197.405 39.447C198.1 39.8042 198.681 40.3509 199.079 41.024C199.311 41.4432 199.494 41.8883 199.623 42.3501C199.771 42.7881 199.913 43.2144 200.05 43.6347C200.328 44.4753 200.594 45.2864 200.843 46.056C201.352 47.5952 201.808 49.016 202.21 50.2C202.311 50.5078 202.412 50.792 202.483 51.0998C202.545 51.3876 202.572 51.6817 202.566 51.976C202.553 52.5868 202.382 53.1839 202.071 53.7097C201.76 54.2354 201.319 54.6721 200.79 54.9774C200.569 55.1027 200.332 55.1964 200.085 55.2557Z" fill="#FDFEFE"/>
<path d="M202.696 52.296C202.595 52.2586 202.5 52.2089 202.412 52.148L201.672 51.704L198.872 49.928L196.936 48.6434L195.864 47.9448L195.308 47.5837C195.129 47.4777 194.923 47.4262 194.716 47.4357C194.507 47.4424 194.304 47.5098 194.133 47.6296C193.962 47.7495 193.829 47.9166 193.751 48.1105L193.259 49.5077L192.218 52.4677C192.052 52.9235 191.898 53.3675 191.744 53.7878L191.685 53.9595L191.525 53.8825L188.932 52.6275L188.34 52.3315C188.158 52.2233 187.957 52.151 187.748 52.1184C187.555 52.098 187.361 52.1251 187.181 52.1974C187.002 52.2696 186.843 52.3848 186.718 52.5328C186.598 52.6902 186.5 52.8635 186.428 53.0478L186.167 53.5925L185.658 54.6403L184.752 56.511L183.426 59.1928L183.053 59.915C183.011 60 182.961 60.0812 182.905 60.1578C182.922 60.0625 182.954 59.9706 183 59.8854C183.083 59.6842 183.19 59.4414 183.32 59.1454C183.628 58.4587 184.048 57.5411 184.557 56.4222C184.823 55.8302 185.114 55.2086 185.427 54.5338C185.587 54.1904 185.747 53.8411 185.919 53.48C186.002 53.2965 186.09 53.113 186.173 52.9235C186.256 52.7141 186.363 52.5154 186.493 52.3315C186.646 52.1428 186.843 51.9957 187.068 51.9036C187.292 51.8115 187.536 51.7775 187.778 51.8046C188.018 51.8382 188.249 51.9187 188.458 52.0414L189.05 52.3315L191.655 53.5747L191.43 53.6635C191.584 53.2432 191.738 52.7992 191.898 52.3434L192.952 49.3834L193.455 47.9803C193.554 47.7305 193.725 47.5156 193.946 47.3629C194.168 47.2101 194.429 47.1263 194.698 47.1219C194.957 47.1162 195.212 47.1861 195.432 47.3232L196.024 47.6902L197.084 48.4065L198.984 49.6853L201.731 51.5619L202.465 52.0888C202.55 52.1483 202.628 52.2179 202.696 52.296Z" fill="#FDFEFE"/>
<path d="M188.843 48.2645C188.843 48.2645 188.997 48.1816 189.246 48.004C189.593 47.7549 189.851 47.3997 189.98 46.9917C190.072 46.6971 190.09 46.3844 190.033 46.081C189.977 45.7775 189.846 45.4927 189.654 45.2512C189.417 44.962 189.098 44.7509 188.739 44.6453C188.38 44.5398 187.997 44.5446 187.641 44.6592C187.287 44.778 186.977 45.0019 186.752 45.3012C186.528 45.6005 186.4 45.9609 186.386 46.3346C186.375 46.6431 186.44 46.9495 186.577 47.2264C186.713 47.5033 186.916 47.742 187.168 47.9212C187.512 48.1694 187.927 48.3001 188.352 48.2941C188.513 48.2738 188.675 48.2619 188.837 48.2586C188.837 48.2586 188.689 48.3711 188.363 48.4184C187.897 48.478 187.425 48.3688 187.031 48.1106C186.737 47.9178 186.496 47.6541 186.331 47.3438C186.165 47.0334 186.08 46.6863 186.084 46.3346C186.091 45.8953 186.233 45.4688 186.493 45.1142C186.752 44.7595 187.115 44.4943 187.532 44.3552C187.949 44.216 188.399 44.2099 188.819 44.3375C189.24 44.4652 189.61 44.7203 189.879 45.0677C190.095 45.3469 190.237 45.6762 190.292 46.025C190.347 46.3737 190.313 46.7307 190.193 47.0628C190.032 47.5038 189.719 47.8731 189.311 48.1047C189.026 48.2645 188.849 48.2823 188.843 48.2645Z" fill="#FAFBFC"/>
<path d="M119.047 195.24L96.888 101.651C95.9585 97.7319 97.2077 93.5109 100.268 91.0778C101.774 89.8504 103.653 89.1719 105.596 89.1538L166.927 87.2239C168.54 87.1911 170.127 87.6296 171.494 88.4856C172.861 89.3416 173.949 90.5778 174.623 92.0428L180.733 104.723L258.563 104.8C264.282 104.8 270.285 112.733 269.604 119.393L276.264 197.336C275.299 206.737 266.999 213.811 258.93 213.811H135.96C127.53 213.835 120.396 206.476 119.047 195.24Z" fill="#8889EE"/>
<path d="M119.047 195.24L96.888 101.651C95.9585 97.7319 97.2077 93.5109 100.268 91.0778C101.774 89.8504 103.653 89.1719 105.596 89.1538L166.927 87.2239C168.54 87.1911 170.127 87.6296 171.494 88.4856C172.861 89.3416 173.949 90.5778 174.623 92.0428L180.733 104.723L258.563 104.8C264.282 104.8 270.285 112.733 269.604 119.393L276.264 197.336C275.299 206.737 266.999 213.811 258.93 213.811H135.96C127.53 213.835 120.396 206.476 119.047 195.24Z" fill="#595959" fill-opacity="0.5"/>
<g opacity="0.3">
<path d="M119.047 195.24L96.888 101.651C95.9585 97.7319 97.2077 93.5109 100.268 91.0778C101.774 89.8504 103.653 89.1719 105.596 89.1538L166.927 87.2239C168.54 87.1911 170.127 87.6296 171.494 88.4856C172.861 89.3416 173.949 90.5778 174.623 92.0428L180.733 104.723L258.563 104.8C264.282 104.8 270.285 112.733 269.604 119.393L276.264 197.336C275.299 206.737 266.999 213.811 258.93 213.811H135.96C127.53 213.835 120.396 206.476 119.047 195.24Z" fill="#9B9CC8"/>
</g>
<path d="M120.106 197.963L114.245 94.2803L259.404 92.084L264.495 195.998L120.106 197.963Z" fill="#E3E3F4"/>
<path d="M119.443 98.5312C119.428 98.7193 119.359 98.8989 119.243 99.0481C119.128 99.1973 118.972 99.3097 118.794 99.3715C118.615 99.4333 118.423 99.4419 118.24 99.3962C118.057 99.3505 117.891 99.2525 117.763 99.1141C117.635 98.9758 117.55 98.8031 117.518 98.6172C117.487 98.4312 117.51 98.2401 117.585 98.0671C117.66 97.8942 117.784 97.7468 117.942 97.6432C118.099 97.5395 118.284 97.484 118.472 97.4834C118.605 97.488 118.735 97.5188 118.856 97.574C118.977 97.6292 119.086 97.7078 119.176 97.8052C119.266 97.9026 119.336 98.0169 119.382 98.1415C119.428 98.2661 119.449 98.3986 119.443 98.5312Z" fill="white"/>
<path d="M123.208 98.5312C123.193 98.7193 123.124 98.8989 123.008 99.0481C122.893 99.1973 122.737 99.3097 122.558 99.3715C122.38 99.4333 122.188 99.4419 122.005 99.3962C121.822 99.3505 121.656 99.2525 121.528 99.1141C121.4 98.9758 121.315 98.8031 121.283 98.6172C121.251 98.4312 121.275 98.2401 121.35 98.0671C121.425 97.8942 121.549 97.7468 121.707 97.6432C121.864 97.5395 122.049 97.484 122.237 97.4834C122.37 97.488 122.5 97.5188 122.621 97.574C122.742 97.6292 122.85 97.7078 122.941 97.8052C123.031 97.9026 123.101 98.0169 123.147 98.1415C123.193 98.2661 123.214 98.3986 123.208 98.5312Z" fill="white"/>
<path d="M126.979 98.5312C126.964 98.7193 126.895 98.8989 126.779 99.0481C126.664 99.1973 126.508 99.3097 126.33 99.3715C126.151 99.4333 125.959 99.4419 125.776 99.3962C125.593 99.3505 125.427 99.2525 125.299 99.1141C125.171 98.9758 125.086 98.8031 125.054 98.6172C125.023 98.4312 125.046 98.2401 125.121 98.0671C125.196 97.8942 125.32 97.7468 125.478 97.6432C125.635 97.5395 125.82 97.484 126.008 97.4834C126.276 97.4942 126.528 97.6105 126.71 97.8069C126.892 98.0033 126.989 98.2637 126.979 98.5312Z" fill="white"/>
<path d="M171.474 98.5312L180.229 150.568L111.338 160.916L102.583 108.879L171.474 98.5312Z" fill="white"/>
<path d="M171.48 98.5312L171.148 98.5905L170.183 98.7444L166.442 99.3364L152.346 101.497L102.618 109.051L102.766 108.856C105.383 124.342 108.373 142.097 111.546 160.887L111.315 160.727L180.212 150.408L180.07 150.592C177.471 134.916 175.334 121.927 173.806 112.84C173.06 108.293 172.474 104.729 172.072 102.285C171.876 101.071 171.728 100.141 171.622 99.5021C171.515 98.8628 171.48 98.5312 171.48 98.5312C171.48 98.5312 171.545 98.8391 171.657 99.4607C171.77 100.082 171.93 101.012 172.137 102.208C172.557 104.641 173.167 108.193 173.948 112.716C175.505 121.821 177.725 134.839 180.401 150.544L180.431 150.698H180.265L111.368 161.106L111.173 161.135L111.137 160.946C107.982 142.156 105.004 124.402 102.405 108.909V108.743H102.583L152.459 101.343L166.531 99.2713L170.242 98.7385L171.19 98.6023L171.48 98.5312Z" fill="#263238"/>
<path d="M113.162 157.281L177.216 147.661L169.562 102.178L105.507 111.798L113.162 157.281Z" fill="#455A64"/>
<g opacity="0.3">
<path d="M113.162 157.281L130.78 125.65L147.61 141.256L155.419 130.386L177.216 147.661L113.162 157.281Z" fill="black"/>
</g>
<g opacity="0.3">
<path d="M149.937 119.221C150.028 119.864 149.99 120.518 149.825 121.145C149.66 121.773 149.372 122.361 148.976 122.876C148.581 123.39 148.087 123.821 147.523 124.142C146.959 124.463 146.337 124.668 145.692 124.745C144.388 124.968 143.049 124.674 141.958 123.926C140.867 123.178 140.111 122.034 139.849 120.737C139.757 120.095 139.794 119.441 139.958 118.813C140.123 118.186 140.411 117.597 140.806 117.083C141.2 116.568 141.694 116.138 142.258 115.817C142.822 115.496 143.444 115.291 144.088 115.213C145.393 114.987 146.735 115.279 147.827 116.028C148.92 116.777 149.677 117.923 149.937 119.221Z" fill="black"/>
</g>
<path d="M124.291 202.883L122.332 102L270.794 101.687L270.184 201.379L124.291 202.883Z" fill="white"/>
<path d="M130.939 105.949C130.924 106.137 130.855 106.316 130.74 106.466C130.624 106.615 130.468 106.727 130.29 106.789C130.112 106.851 129.919 106.859 129.736 106.814C129.553 106.768 129.388 106.67 129.259 106.532C129.131 106.393 129.046 106.221 129.014 106.035C128.983 105.849 129.006 105.658 129.081 105.485C129.156 105.312 129.28 105.164 129.438 105.061C129.596 104.957 129.78 104.901 129.969 104.901C130.236 104.912 130.488 105.028 130.67 105.224C130.852 105.421 130.949 105.681 130.939 105.949Z" fill="#E0E0E0"/>
<path d="M134.415 105.949C134.4 106.137 134.33 106.317 134.215 106.466C134.099 106.615 133.942 106.728 133.764 106.789C133.585 106.851 133.393 106.859 133.209 106.813C133.026 106.767 132.861 106.668 132.733 106.529C132.605 106.391 132.52 106.217 132.489 106.031C132.458 105.845 132.482 105.653 132.558 105.481C132.634 105.308 132.759 105.161 132.918 105.058C133.076 104.955 133.261 104.9 133.45 104.901C133.582 104.906 133.712 104.938 133.832 104.993C133.952 105.049 134.06 105.127 134.149 105.225C134.239 105.322 134.309 105.436 134.354 105.56C134.4 105.685 134.42 105.817 134.415 105.949Z" fill="#E0E0E0"/>
<path d="M127.246 105.949C127.231 106.137 127.161 106.316 127.046 106.466C126.931 106.615 126.774 106.727 126.596 106.789C126.418 106.851 126.225 106.859 126.042 106.814C125.86 106.768 125.694 106.67 125.566 106.532C125.437 106.393 125.352 106.221 125.321 106.035C125.289 105.849 125.312 105.658 125.387 105.485C125.463 105.312 125.587 105.164 125.744 105.061C125.902 104.957 126.086 104.901 126.275 104.901C126.542 104.912 126.795 105.028 126.976 105.224C127.158 105.421 127.255 105.681 127.246 105.949Z" fill="#E0E0E0"/>
<path d="M127.743 205.346V109.424L275.595 109.11L267.656 207.406L127.743 205.346Z" fill="#FAFBFC"/>
<path d="M120.568 194.725L129.412 122.649C130.099 117.013 134.113 112.834 138.843 112.834H273.896C279.609 112.834 284.043 118.855 283.368 125.692L276.264 196.904C274.192 211.704 268.503 213.835 260.434 213.835H134.231C125.789 213.835 117.608 211.716 120.568 194.725Z" fill="#AEAFED"/>
<g opacity="0.7">
<path d="M210.593 150.911L214.477 158.791C214.634 159.105 214.865 159.376 215.149 159.582C215.434 159.788 215.763 159.923 216.111 159.975L224.801 161.224C225.201 161.283 225.576 161.452 225.884 161.714C226.192 161.975 226.421 162.317 226.544 162.702C226.667 163.087 226.68 163.498 226.582 163.89C226.483 164.282 226.276 164.638 225.985 164.918L219.698 171.045C219.448 171.291 219.26 171.594 219.152 171.928C219.044 172.262 219.018 172.617 219.077 172.963L220.563 181.618C220.631 182.017 220.587 182.427 220.435 182.801C220.282 183.176 220.028 183.5 219.701 183.738C219.374 183.976 218.987 184.117 218.584 184.147C218.18 184.176 217.777 184.092 217.419 183.903L209.646 179.819C209.336 179.655 208.99 179.57 208.64 179.57C208.289 179.57 207.944 179.655 207.633 179.819L199.896 183.915C199.538 184.104 199.135 184.189 198.732 184.16C198.328 184.131 197.941 183.989 197.614 183.751C197.287 183.513 197.034 183.188 196.883 182.813C196.731 182.438 196.688 182.028 196.758 181.63L198.238 172.975C198.298 172.629 198.273 172.273 198.165 171.939C198.057 171.605 197.868 171.302 197.617 171.057L191.33 164.93C191.041 164.649 190.836 164.293 190.739 163.901C190.641 163.51 190.655 163.1 190.778 162.716C190.901 162.332 191.129 161.991 191.435 161.729C191.742 161.468 192.115 161.297 192.514 161.236L201.204 159.975C201.551 159.924 201.88 159.79 202.164 159.583C202.448 159.377 202.677 159.105 202.832 158.791L206.722 150.911C206.902 150.552 207.179 150.251 207.52 150.04C207.862 149.829 208.256 149.718 208.657 149.718C209.059 149.718 209.453 149.829 209.795 150.04C210.136 150.251 210.413 150.552 210.593 150.911Z" fill="white"/>
</g>
<path d="M361.828 172.507C361.828 172.507 369.794 177.696 373.396 181.024" stroke="#EBECFB" stroke-width="1.09833" stroke-miterlimit="10"/>
</svg>
