<svg width="24" height="24" viewBox="0 0 24 24" xmlns="http://www.w3.org/2000/svg">
<path d="M13 13C13 12.4477 12.5523 12 12 12C11.4477 12 11 12.4477 11 13H13ZM11 21C11 21.5523 11.4477 22 12 22C12.5523 22 13 21.5523 13 21H11ZM8.29289 14.2929C7.90237 14.6834 7.90237 15.3166 8.29289 15.7071C8.68342 16.0976 9.31658 16.0976 9.70711 15.7071L8.29289 14.2929ZM13.1314 13.1314L13.8385 12.4243L13.8385 12.4243L13.1314 13.1314ZM14.2929 15.7071C14.6834 16.0976 15.3166 16.0976 15.7071 15.7071C16.0976 15.3166 16.0976 14.6834 15.7071 14.2929L14.2929 15.7071ZM11.691 12.4632L12 13.4142L11.691 12.4632ZM12.309 12.4632L12 13.4142L12.309 12.4632ZM16.3308 8.0444L16.4634 9.03557H16.4634L16.3308 8.0444ZM15.0236 7.43195L15.8835 6.92149V6.92149L15.0236 7.43195ZM18.5996 16.6676C18.0935 16.8887 17.8625 17.4782 18.0836 17.9843C18.3048 18.4904 18.8943 18.7214 19.4004 18.5003L18.5996 16.6676ZM4.4279 17.5655C4.88088 17.8815 5.50422 17.7704 5.82019 17.3174C6.13615 16.8644 6.02507 16.2411 5.5721 15.9251L4.4279 17.5655ZM11 13L11 21H13L13 13H11ZM9.70711 15.7071L11.5757 13.8385L10.1615 12.4243L8.29289 14.2929L9.70711 15.7071ZM12.4243 13.8385L14.2929 15.7071L15.7071 14.2929L13.8385 12.4243L12.4243 13.8385ZM11.5757 13.8385C11.7854 13.6288 11.9007 13.5146 11.9899 13.4389C12.0701 13.3708 12.0614 13.3943 12 13.4142L11.382 11.5121C11.0922 11.6062 10.8704 11.7658 10.6955 11.9142C10.5296 12.0551 10.3479 12.2379 10.1615 12.4243L11.5757 13.8385ZM13.8385 12.4243C13.6521 12.2379 13.4704 12.0551 13.3045 11.9142C13.1296 11.7658 12.9078 11.6062 12.618 11.5121L12 13.4142C11.9386 13.3943 11.9299 13.3708 12.0101 13.4389C12.0993 13.5146 12.2146 13.6288 12.4243 13.8385L13.8385 12.4243ZM12 13.4142H12L12.618 11.5121C12.2163 11.3816 11.7837 11.3816 11.382 11.5121L12 13.4142ZM3 11C3 7.68629 5.68629 5 9 5V3C4.58172 3 1 6.58172 1 11H3ZM17 9C19.2091 9 21 10.7909 21 13H23C23 9.68629 20.3137 7 17 7V9ZM16.4634 9.03557C16.6384 9.01215 16.8175 9 17 9V7C16.7286 7 16.4609 7.01808 16.1982 7.05323L16.4634 9.03557ZM9 5C11.1955 5 13.1167 6.1786 14.1637 7.9424L15.8835 6.92149C14.4911 4.57586 11.9301 3 9 3V5ZM21 13C21 14.6387 20.0144 16.0494 18.5996 16.6676L19.4004 18.5003C21.5174 17.5754 23 15.4619 23 13H21ZM5.5721 15.9251C4.01524 14.8392 3 13.0381 3 11H1C1 13.7194 2.35779 16.1215 4.4279 17.5655L5.5721 15.9251ZM16.1982 7.05322C16.0519 7.0728 15.9289 6.99785 15.8835 6.92149L14.1637 7.9424C14.6479 8.75797 15.5816 9.15351 16.4634 9.03557L16.1982 7.05322Z" fill="#282828"/>
</svg>
