<svg width="20" height="20" viewBox="0 0 20 20" fill="none" xmlns="http://www.w3.org/2000/svg">
<g id="bars/user">
<path id="Icon" d="M7.58331 10C7.58331 10.4143 7.9191 10.75 8.33331 10.75C8.74753 10.75 9.08331 10.4143 9.08331 10H7.58331ZM9.08331 6.66671C9.08331 6.25249 8.74753 5.91671 8.33331 5.91671C7.9191 5.91671 7.58331 6.25249 7.58331 6.66671H9.08331ZM10.9166 13.3334C10.9166 13.7476 11.2524 14.0834 11.6666 14.0834C12.0809 14.0834 12.4166 13.7476 12.4166 13.3334L10.9166 13.3334ZM12.4166 6.66671C12.4166 6.25249 12.0809 5.91671 11.6666 5.91671C11.2524 5.91671 10.9166 6.25249 10.9166 6.66671H12.4166ZM14.25 13.3334C14.25 13.7476 14.5858 14.0834 15 14.0834C15.4142 14.0834 15.75 13.7476 15.75 13.3334H14.25ZM15.75 8.33337C15.75 7.91916 15.4142 7.58337 15 7.58337C14.5858 7.58337 14.25 7.91916 14.25 8.33337H15.75ZM0.916646 8.33337C0.916646 8.74759 1.25243 9.08337 1.66665 9.08337C2.08086 9.08337 2.41665 8.74759 2.41665 8.33337H0.916646ZM9.99998 15.9167C9.58577 15.9167 9.24998 16.2525 9.24998 16.6667C9.24998 17.0809 9.58577 17.4167 9.99998 17.4167V15.9167ZM5.08331 12.5C5.08331 13.0063 4.67291 13.4167 4.16665 13.4167V14.9167C5.50133 14.9167 6.58331 13.8347 6.58331 12.5H5.08331ZM4.16665 13.4167C3.66039 13.4167 3.24998 13.0063 3.24998 12.5H1.74998C1.74998 13.8347 2.83196 14.9167 4.16665 14.9167V13.4167ZM3.24998 12.5C3.24998 11.9938 3.66039 11.5834 4.16665 11.5834V10.0834C2.83196 10.0834 1.74998 11.1654 1.74998 12.5H3.24998ZM4.16665 11.5834C4.67291 11.5834 5.08331 11.9938 5.08331 12.5H6.58331C6.58331 11.1654 5.50133 10.0834 4.16665 10.0834V11.5834ZM7.49569 16.75H0.837603V18.25H7.49569V16.75ZM6.74998 17.4958C6.74998 17.0839 7.08387 16.75 7.49569 16.75V18.25C7.91225 18.25 8.24998 17.9124 8.24998 17.4958H6.74998ZM4.16665 14.9167C5.59227 14.9167 6.74998 16.0726 6.74998 17.4958H8.24998C8.24998 15.2417 6.41818 13.4167 4.16665 13.4167V14.9167ZM1.58331 17.4958C1.58331 16.0726 2.74102 14.9167 4.16665 14.9167V13.4167C1.91511 13.4167 0.083313 15.2417 0.083313 17.4958H1.58331ZM0.083313 17.4958C0.083313 17.9123 0.421018 18.25 0.837603 18.25V16.75C1.24945 16.75 1.58331 17.0839 1.58331 17.4958H0.083313ZM9.08331 10V6.66671H7.58331V10H9.08331ZM12.4166 13.3334L12.4166 6.66671H10.9166L10.9166 13.3334L12.4166 13.3334ZM15.75 13.3334V8.33337H14.25V13.3334H15.75ZM3.33331 4.08337H16.6666V2.58337H3.33331V4.08337ZM17.5833 5.00004V15H19.0833V5.00004H17.5833ZM17.5833 15C17.5833 15.5063 17.1729 15.9167 16.6666 15.9167V17.4167C18.0013 17.4167 19.0833 16.3347 19.0833 15H17.5833ZM16.6666 4.08337C17.1729 4.08337 17.5833 4.49378 17.5833 5.00004H19.0833C19.0833 3.66535 18.0013 2.58337 16.6666 2.58337V4.08337ZM3.33331 2.58337C1.99862 2.58337 0.916646 3.66535 0.916646 5.00004H2.41665C2.41665 4.49378 2.82705 4.08337 3.33331 4.08337V2.58337ZM2.41665 8.33337V5.00004H0.916646V8.33337H2.41665ZM16.6666 15.9167H9.99998V17.4167H16.6666V15.9167Z" fill="#323539"/>
</g>
</svg>
