<svg width="20" height="20" viewBox="0 0 20 20" fill="none" xmlns="http://www.w3.org/2000/svg">
<g id="calendar">
<path id="Icon" d="M2.5 8.33333H17.5M7.5 4.16667H5.16667C4.23325 4.16667 3.76654 4.16667 3.41002 4.34832C3.09641 4.50811 2.84144 4.76308 2.68166 5.07668C2.5 5.4332 2.5 5.89991 2.5 6.83333V14.8333C2.5 15.7668 2.5 16.2335 2.68166 16.59C2.84144 16.9036 3.09641 17.1586 3.41002 17.3183C3.76654 17.5 4.23325 17.5 5.16667 17.5H14.8333C15.7668 17.5 16.2335 17.5 16.59 17.3183C16.9036 17.1586 17.1586 16.9036 17.3183 16.59C17.5 16.2335 17.5 15.7668 17.5 14.8333V6.83333C17.5 5.89991 17.5 5.4332 17.3183 5.07668C17.1586 4.76308 16.9036 4.50811 16.59 4.34832C16.2335 4.16667 15.7668 4.16667 14.8333 4.16667H12.5M7.5 4.16667H12.5M7.5 4.16667V3.75C7.5 3.05964 6.94036 2.5 6.25 2.5C5.55964 2.5 5 3.05964 5 3.75V4.16667M12.5 4.16667V3.75C12.5 3.05964 13.0596 2.5 13.75 2.5C14.4404 2.5 15 3.05964 15 3.75V4.16667" stroke="#A1A4AC" stroke-width="1.5" stroke-linecap="round"/>
</g>
</svg>
