<svg width="36" height="42" viewBox="0 0 36 42" fill="none" xmlns="http://www.w3.org/2000/svg">
<path d="M0 2.25C0 1.00736 1.00736 0 2.25 0H22.5L36 13.5V39.75C36 40.9926 34.9926 42 33.75 42H2.25C1.00736 42 0 40.9926 0 39.75V2.25Z" fill="url(#paint0_linear_6498_54100)"/>
<path d="M22.5 11.25V0L36 13.5H24.75C23.5074 13.5 22.5 12.4926 22.5 11.25Z" fill="#2F4D88"/>
<path d="M10.23 30.12C9.802 30.12 9.382 30.066 8.97 29.958C8.558 29.85 8.182 29.688 7.842 29.472C7.502 29.256 7.22 28.986 6.996 28.662C6.776 28.338 6.644 27.958 6.6 27.522H8.394C8.454 27.786 8.568 28.008 8.736 28.188C8.904 28.368 9.116 28.506 9.372 28.602C9.628 28.698 9.912 28.746 10.224 28.746C10.544 28.746 10.836 28.706 11.1 28.626C11.364 28.546 11.576 28.426 11.736 28.266C11.896 28.102 11.976 27.898 11.976 27.654C11.976 27.434 11.91 27.254 11.778 27.114C11.65 26.974 11.476 26.86 11.256 26.772C11.036 26.684 10.786 26.612 10.506 26.556L9.006 26.25C8.35 26.126 7.83 25.866 7.446 25.47C7.062 25.07 6.864 24.538 6.852 23.874C6.848 23.33 6.992 22.86 7.284 22.464C7.58 22.064 7.98 21.756 8.484 21.54C8.992 21.324 9.56 21.216 10.188 21.216C10.936 21.216 11.564 21.334 12.072 21.57C12.584 21.802 12.972 22.118 13.236 22.518C13.504 22.914 13.642 23.356 13.65 23.844H11.892C11.86 23.54 11.768 23.298 11.616 23.118C11.464 22.938 11.268 22.808 11.028 22.728C10.792 22.648 10.522 22.608 10.218 22.608C9.986 22.608 9.774 22.634 9.582 22.686C9.394 22.738 9.234 22.812 9.102 22.908C8.97 23 8.868 23.11 8.796 23.238C8.724 23.366 8.688 23.51 8.688 23.67C8.688 23.922 8.772 24.126 8.94 24.282C9.108 24.438 9.422 24.566 9.882 24.666L11.37 24.972C11.902 25.076 12.324 25.23 12.636 25.434C12.952 25.638 13.188 25.868 13.344 26.124C13.504 26.38 13.608 26.642 13.656 26.91C13.708 27.174 13.734 27.418 13.734 27.642C13.734 28.11 13.586 28.532 13.29 28.908C12.998 29.28 12.59 29.576 12.066 29.796C11.542 30.012 10.93 30.12 10.23 30.12ZM14.4132 22.884V21.324H21.3552V22.884H18.7932V30H17.0352V22.884H14.4132ZM22.4517 21.324H24.2157V28.518H27.9837V30H22.4517V21.324Z" fill="white"/>
<defs>
<linearGradient id="paint0_linear_6498_54100" x1="19.0561" y1="42" x2="19.0561" y2="1.13146e-06" gradientUnits="userSpaceOnUse">
<stop stop-color="#5558DA"/>
<stop offset="1" stop-color="#5683D3"/>
</linearGradient>
</defs>
</svg>
