<svg width="24" height="24" viewBox="0 0 24 24" fill="none" xmlns="http://www.w3.org/2000/svg">
<g id="document/star">
<path id="Icon" d="M8 13.25C7.58579 13.25 7.25 13.5858 7.25 14C7.25 14.4142 7.58579 14.75 8 14.75V13.25ZM8 9.25C7.58579 9.25 7.25 9.58579 7.25 10C7.25 10.4142 7.58579 10.75 8 10.75V9.25ZM8 5.25C7.58579 5.25 7.25 5.58579 7.25 6C7.25 6.41421 7.58579 6.75 8 6.75V5.25ZM10 20.75C10.4142 20.75 10.75 20.4142 10.75 20C10.75 19.5858 10.4142 19.25 10 19.25V20.75ZM5.07805 19.7748L5.42378 19.1093H5.42378L5.07805 19.7748ZM4.22517 18.9219L3.55961 19.2677L3.55961 19.2677L4.22517 18.9219ZM16.9219 2.22517L16.5762 2.89073V2.89073L16.9219 2.22517ZM17.7748 3.07805L17.1093 3.42378L17.1093 3.42378L17.7748 3.07805ZM5.07805 2.22517L4.73232 1.55961H4.73232L5.07805 2.22517ZM4.22517 3.07805L3.55961 2.73232V2.73232L4.22517 3.07805ZM17.2401 12.3529L16.5976 12.7398L16.5976 12.7398L17.2401 12.3529ZM18.4596 14.378L19.1021 13.9911L19.1021 13.9911L18.4596 14.378ZM18.6269 14.4946L18.7675 13.7579H18.7675L18.6269 14.4946ZM20.5554 14.8625L20.6959 14.1258L20.5554 14.8625ZM20.6914 15.2785L21.2401 15.7898L21.2401 15.7898L20.6914 15.2785ZM19.3265 16.7434L19.8752 17.2547H19.8752L19.3265 16.7434ZM19.2665 16.9732L19.9951 16.795V16.795L19.2665 16.9732ZM19.8696 19.4385L19.141 19.6167L19.8696 19.4385ZM19.5037 19.7155L19.8728 19.0626H19.8728L19.5037 19.7155ZM17.1506 18.3853L16.7815 19.0382L16.7815 19.0382L17.1506 18.3853ZM16.9046 18.3853L16.5355 17.7324H16.5355L16.9046 18.3853ZM14.5515 19.7155L14.9206 20.3684H14.9206L14.5515 19.7155ZM14.1856 19.4385L13.4571 19.2603L14.1856 19.4385ZM14.7875 16.9779L15.516 17.156L14.7875 16.9779ZM14.7225 16.7427L14.189 17.2699L14.189 17.2699L14.7225 16.7427ZM13.3296 15.3334L12.7961 15.8607L13.3296 15.3334ZM13.4605 14.9121L13.32 14.1754L13.4605 14.9121ZM15.3741 14.5471L15.2335 13.8103L15.3741 14.5471ZM15.5405 14.4319L16.1803 14.8232L15.5405 14.4319ZM16.8127 12.3515L17.4525 12.7427L16.8127 12.3515ZM8 14.75H10V13.25H8V14.75ZM8 10.75H14V9.25H8V10.75ZM8 6.75H14V5.25H8V6.75ZM7.22 2.75H14.78V1.25H7.22V2.75ZM17.25 5.22V8H18.75V5.22H17.25ZM10 19.25H7.22V20.75H10V19.25ZM4.75 16.78V5.22H3.25V16.78H4.75ZM7.22 19.25C6.63792 19.25 6.24722 19.2494 5.94653 19.2244C5.65482 19.2002 5.51562 19.157 5.42378 19.1093L4.73232 20.4404C5.07395 20.6179 5.43624 20.6872 5.82239 20.7193C6.19956 20.7506 6.6631 20.75 7.22 20.75V19.25ZM3.25 16.78C3.25 17.3369 3.2494 17.8004 3.28072 18.1776C3.31279 18.5638 3.38215 18.926 3.55961 19.2677L4.89073 18.5762C4.84303 18.4844 4.7998 18.3452 4.77557 18.0535C4.7506 17.7528 4.75 17.3621 4.75 16.78H3.25ZM5.42378 19.1093C5.19548 18.9907 5.00933 18.8045 4.89073 18.5762L3.55961 19.2677C3.82052 19.7699 4.23005 20.1795 4.73232 20.4404L5.42378 19.1093ZM14.78 2.75C15.3621 2.75 15.7528 2.7506 16.0535 2.77557C16.3452 2.7998 16.4844 2.84303 16.5762 2.89073L17.2677 1.55961C16.926 1.38215 16.5638 1.31279 16.1776 1.28072C15.8004 1.2494 15.3369 1.25 14.78 1.25V2.75ZM18.75 5.22C18.75 4.6631 18.7506 4.19956 18.7193 3.82239C18.6872 3.43624 18.6179 3.07396 18.4404 2.73232L17.1093 3.42378C17.157 3.51562 17.2002 3.65482 17.2244 3.94653C17.2494 4.24722 17.25 4.63792 17.25 5.22H18.75ZM16.5762 2.89073C16.8045 3.00933 16.9907 3.19548 17.1093 3.42378L18.4404 2.73232C18.1795 2.23005 17.7699 1.82052 17.2677 1.55961L16.5762 2.89073ZM7.22 1.25C6.6631 1.25 6.19956 1.2494 5.82239 1.28072C5.43624 1.31279 5.07395 1.38215 4.73232 1.55961L5.42378 2.89073C5.51562 2.84303 5.65482 2.7998 5.94653 2.77557C6.24722 2.7506 6.63792 2.75 7.22 2.75V1.25ZM4.75 5.22C4.75 4.63792 4.7506 4.24722 4.77557 3.94653C4.7998 3.65482 4.84303 3.51562 4.89073 3.42378L3.55961 2.73232C3.38215 3.07395 3.31279 3.43624 3.28072 3.82239C3.2494 4.19956 3.25 4.6631 3.25 5.22H4.75ZM4.73232 1.55961C4.23005 1.82052 3.82052 2.23005 3.55961 2.73232L4.89073 3.42378C5.00933 3.19548 5.19548 3.00933 5.42378 2.89073L4.73232 1.55961ZM16.5976 12.7398L17.8171 14.7649L19.1021 13.9911L17.8826 11.966L16.5976 12.7398ZM18.4864 15.2313L20.4148 15.5992L20.6959 14.1258L18.7675 13.7579L18.4864 15.2313ZM20.1427 14.7672L18.7778 16.2321L19.8752 17.2547L21.2401 15.7898L20.1427 14.7672ZM18.538 17.1514L19.141 19.6167L20.5981 19.2603L19.9951 16.795L18.538 17.1514ZM19.8728 19.0626L17.5197 17.7324L16.7815 19.0382L19.1346 20.3684L19.8728 19.0626ZM16.5355 17.7324L14.1824 19.0626L14.9206 20.3684L17.2736 19.0382L16.5355 17.7324ZM14.9141 19.6167L15.516 17.156L14.059 16.7997L13.4571 19.2603L14.9141 19.6167ZM15.2559 16.2155L13.863 14.8062L12.7961 15.8607L14.189 17.2699L15.2559 16.2155ZM13.6011 15.6488L15.5146 15.2838L15.2335 13.8103L13.32 14.1754L13.6011 15.6488ZM16.1803 14.8232L17.4525 12.7427L16.1728 11.9602L14.9006 14.0406L16.1803 14.8232ZM15.5146 15.2838C15.7915 15.2309 16.0333 15.0637 16.1803 14.8232L14.9006 14.0406C14.9742 13.9204 15.095 13.8368 15.2335 13.8103L15.5146 15.2838ZM13.863 14.8062C14.1442 15.0907 13.994 15.5739 13.6011 15.6488L13.32 14.1754C12.5341 14.3254 12.2337 15.2916 12.7961 15.8607L13.863 14.8062ZM15.516 17.156C15.5985 16.8186 15.5001 16.4626 15.2559 16.2155L14.189 17.2699C14.0669 17.1464 14.0177 16.9684 14.059 16.7997L15.516 17.156ZM14.1824 19.0626C14.5637 18.8471 15.0182 19.1912 14.9141 19.6167L13.4571 19.2603C13.249 20.1113 14.158 20.7995 14.9206 20.3684L14.1824 19.0626ZM17.5197 17.7324C17.2143 17.5598 16.8408 17.5598 16.5355 17.7324L17.2736 19.0382C17.121 19.1245 16.9342 19.1245 16.7815 19.0382L17.5197 17.7324ZM19.141 19.6167C19.037 19.1912 19.4915 18.8471 19.8728 19.0626L19.1346 20.3684C19.8972 20.7995 20.8062 20.1113 20.5981 19.2603L19.141 19.6167ZM18.7778 16.2321C18.5481 16.4786 18.458 16.8241 18.538 17.1514L19.9951 16.795C20.0351 16.9586 19.99 17.1314 19.8752 17.2547L18.7778 16.2321ZM20.4148 15.5992C20.0284 15.5255 19.8745 15.0551 20.1427 14.7672L21.2401 15.7898C21.7765 15.2142 21.4688 14.2733 20.6959 14.1258L20.4148 15.5992ZM17.8171 14.7649C17.9638 15.0085 18.2072 15.1781 18.4864 15.2313L18.7675 13.7579C18.9071 13.7845 19.0288 13.8693 19.1021 13.9911L17.8171 14.7649ZM17.8826 11.966C17.4954 11.3231 16.5643 11.3199 16.1728 11.9602L17.4525 12.7427C17.2568 13.0629 16.7912 13.0613 16.5976 12.7398L17.8826 11.966Z" fill="#323539"/>
</g>
</svg>
