<svg width="20" height="20" viewBox="0 0 20 20" fill="none" xmlns="http://www.w3.org/2000/svg">
<g id="document/check">
<path id="Icon" d="M6.66665 10.9166C6.25243 10.9166 5.91665 11.2524 5.91665 11.6666C5.91665 12.0808 6.25243 12.4166 6.66665 12.4166V10.9166ZM8.33331 12.4166C8.74753 12.4166 9.08331 12.0808 9.08331 11.6666C9.08331 11.2524 8.74753 10.9166 8.33331 10.9166V12.4166ZM6.66665 7.58329C6.25243 7.58329 5.91665 7.91908 5.91665 8.33329C5.91665 8.74751 6.25243 9.08329 6.66665 9.08329V7.58329ZM11.6666 9.08329C12.0809 9.08329 12.4166 8.74751 12.4166 8.33329C12.4166 7.91908 12.0809 7.58329 11.6666 7.58329V9.08329ZM6.66665 4.24996C6.25243 4.24996 5.91665 4.58575 5.91665 4.99996C5.91665 5.41417 6.25243 5.74996 6.66665 5.74996V4.24996ZM11.6666 5.74996C12.0809 5.74996 12.4166 5.41417 12.4166 4.99996C12.4166 4.58575 12.0809 4.24996 11.6666 4.24996V5.74996ZM14.25 9.58329C14.25 9.99751 14.5858 10.3333 15 10.3333C15.4142 10.3333 15.75 9.99751 15.75 9.58329H14.25ZM8.33331 17.4166C8.74753 17.4166 9.08331 17.0808 9.08331 16.6666C9.08331 16.2524 8.74753 15.9166 8.33331 15.9166V17.4166ZM4.23169 16.479L4.57742 15.8134L4.57742 15.8134L4.23169 16.479ZM3.52096 15.7682L2.8554 16.114L2.8554 16.114L3.52096 15.7682ZM14.1016 1.85427L13.7559 2.51983L13.7559 2.51983L14.1016 1.85427ZM14.8123 2.565L14.1468 2.91073V2.91073L14.8123 2.565ZM4.23169 1.85427L3.88596 1.18871V1.18871L4.23169 1.85427ZM3.52096 2.565L2.8554 2.21927H2.8554L3.52096 2.565ZM17.197 13.8636C17.4899 13.5707 17.4899 13.0959 17.197 12.803C16.9041 12.5101 16.4292 12.5101 16.1363 12.803L17.197 13.8636ZM13.0387 16.372L12.5084 16.9023H12.5084L13.0387 16.372ZM12.197 14.4696C11.9041 14.1767 11.4292 14.1767 11.1363 14.4696C10.8434 14.7625 10.8434 15.2374 11.1363 15.5303L12.197 14.4696ZM6.66665 12.4166H8.33331V10.9166H6.66665V12.4166ZM6.66665 9.08329H11.6666V7.58329H6.66665V9.08329ZM6.66665 5.74996H11.6666V4.24996H6.66665V5.74996ZM6.01665 2.41663H12.3166V0.916626H6.01665V2.41663ZM14.25 4.34996V9.58329H15.75V4.34996H14.25ZM8.33331 15.9166H6.01665V17.4166H8.33331V15.9166ZM4.08331 13.9833V4.34996H2.58331V13.9833H4.08331ZM6.01665 15.9166C5.52948 15.9166 5.20997 15.916 4.96577 15.8957C4.73054 15.8762 4.63314 15.8424 4.57742 15.8134L3.88596 17.1445C4.19147 17.3032 4.51197 17.3632 4.84163 17.3906C5.16231 17.4172 5.55466 17.4166 6.01665 17.4166V15.9166ZM2.58331 13.9833C2.58331 14.4453 2.58271 14.8376 2.60934 15.1583C2.63672 15.488 2.6967 15.8085 2.8554 16.114L4.18652 15.4225C4.15757 15.3668 4.12373 15.2694 4.1042 15.0342C4.08392 14.79 4.08331 14.4705 4.08331 13.9833H2.58331ZM4.57742 15.8134C4.41 15.7264 4.27349 15.5899 4.18652 15.4225L2.8554 16.114C3.08468 16.5554 3.44457 16.9153 3.88596 17.1445L4.57742 15.8134ZM12.3166 2.41663C12.8038 2.41663 13.1233 2.41723 13.3675 2.43751C13.6027 2.45704 13.7002 2.49089 13.7559 2.51983L14.4473 1.18871C14.1418 1.03001 13.8213 0.970031 13.4917 0.942654C13.171 0.916023 12.7786 0.916626 12.3166 0.916626V2.41663ZM15.75 4.34996C15.75 3.88797 15.7506 3.49562 15.724 3.17494C15.6966 2.84528 15.6366 2.52478 15.4779 2.21927L14.1468 2.91073C14.1757 2.96645 14.2096 3.06386 14.2291 3.29908C14.2494 3.54328 14.25 3.86279 14.25 4.34996H15.75ZM13.7559 2.51983C13.9233 2.6068 14.0598 2.74331 14.1468 2.91073L15.4779 2.21927C15.2486 1.77788 14.8887 1.41799 14.4473 1.18871L13.7559 2.51983ZM6.01665 0.916626C5.55466 0.916626 5.16231 0.916023 4.84163 0.942654C4.51197 0.970031 4.19147 1.03001 3.88596 1.18871L4.57742 2.51983C4.63314 2.49089 4.73054 2.45704 4.96577 2.43751C5.20997 2.41723 5.52948 2.41663 6.01665 2.41663V0.916626ZM4.08331 4.34996C4.08331 3.8628 4.08392 3.54328 4.1042 3.29908C4.12373 3.06386 4.15757 2.96645 4.18652 2.91073L2.8554 2.21927C2.6967 2.52478 2.63672 2.84528 2.60934 3.17494C2.58271 3.49562 2.58331 3.88797 2.58331 4.34996H4.08331ZM3.88596 1.18871C3.44457 1.41799 3.08468 1.77788 2.8554 2.21927L4.18652 2.91073C4.27349 2.74331 4.41 2.6068 4.57742 2.51983L3.88596 1.18871ZM14.1583 16.9023L17.197 13.8636L16.1363 12.803L13.0976 15.8417L14.1583 16.9023ZM13.569 15.8417L12.197 14.4696L11.1363 15.5303L12.5084 16.9023L13.569 15.8417ZM13.0976 15.8417C13.2278 15.7115 13.4388 15.7115 13.569 15.8417L12.5084 16.9023C12.964 17.3579 13.7027 17.3579 14.1583 16.9023L13.0976 15.8417Z" fill="#323539"/>
</g>
</svg>
