<svg width="20" height="20" viewBox="0 0 20 20" fill="none" xmlns="http://www.w3.org/2000/svg">
<g id="dot menu">
<path id="Icon" d="M9.68722 9.68745H10.3122M9.68722 10.3124H10.3122M3.85388 9.68745H4.47888M3.85388 10.3124H4.47888M15.5205 9.68745H16.1455M15.5205 10.3124H16.1455M10.8333 10C10.8333 10.4602 10.4602 10.8333 9.99992 10.8333C9.53968 10.8333 9.16659 10.4602 9.16659 10C9.16659 9.53976 9.53968 9.16666 9.99992 9.16666C10.4602 9.16666 10.8333 9.53976 10.8333 10ZM4.99992 10C4.99992 10.4602 4.62682 10.8333 4.16659 10.8333C3.70635 10.8333 3.33325 10.4602 3.33325 10C3.33325 9.53976 3.70635 9.16666 4.16659 9.16666C4.62682 9.16666 4.99992 9.53976 4.99992 10ZM16.6666 10C16.6666 10.4602 16.2935 10.8333 15.8333 10.8333C15.373 10.8333 14.9999 10.4602 14.9999 10C14.9999 9.53976 15.373 9.16666 15.8333 9.16666C16.2935 9.16666 16.6666 9.53976 16.6666 10Z" stroke="#323539" stroke-width="1.5" stroke-linecap="round"/>
</g>
</svg>
