<svg width="18" height="18" viewBox="0 0 18 18" fill="none" xmlns="http://www.w3.org/2000/svg">
<g id="download">
<path id="Icon" d="M9.75 2.25C9.75 1.83579 9.41421 1.5 9 1.5C8.58579 1.5 8.25 1.83579 8.25 2.25L9.75 2.25ZM8.25 10.5C8.25 10.9142 8.58579 11.25 9 11.25C9.41421 11.25 9.75 10.9142 9.75 10.5H8.25ZM12.5303 9.53033C12.8232 9.23744 12.8232 8.76256 12.5303 8.46967C12.2374 8.17678 11.7626 8.17678 11.4697 8.46967L12.5303 9.53033ZM9.53033 11.4697L9 10.9393L9.53033 11.4697ZM8.46967 11.4697L9 10.9393L9 10.9393L8.46967 11.4697ZM6.53033 8.46967C6.23744 8.17678 5.76256 8.17678 5.46967 8.46967C5.17678 8.76256 5.17678 9.23744 5.46967 9.53033L6.53033 8.46967ZM3 12C3 11.5858 2.66421 11.25 2.25 11.25C1.83579 11.25 1.5 11.5858 1.5 12H3ZM16.5 12C16.5 11.5858 16.1642 11.25 15.75 11.25C15.3358 11.25 15 11.5858 15 12H16.5ZM14.5215 15.5048L14.181 14.8365L14.5215 15.5048ZM15.5048 14.5215L16.173 14.862L15.5048 14.5215ZM2.49524 14.5215L1.82698 14.862L2.49524 14.5215ZM3.47852 15.5048L3.13803 16.173H3.13803L3.47852 15.5048ZM8.25 2.25L8.25 10.5H9.75L9.75 2.25L8.25 2.25ZM11.4697 8.46967L9 10.9393L10.0607 12L12.5303 9.53033L11.4697 8.46967ZM9 10.9393L6.53033 8.46967L5.46967 9.53033L7.93934 12L9 10.9393ZM9 10.9393L9 10.9393L7.93934 12C8.52513 12.5858 9.47487 12.5858 10.0607 12L9 10.9393ZM1.5 12V12.15H3V12H1.5ZM5.85 16.5H12.15V15H5.85V16.5ZM16.5 12.15V12H15V12.15H16.5ZM12.15 16.5C12.7677 16.5 13.2761 16.5006 13.6889 16.4669C14.1104 16.4324 14.498 16.3585 14.862 16.173L14.181 14.8365C14.0637 14.8963 13.8955 14.945 13.5667 14.9718C13.2292 14.9994 12.7924 15 12.15 15V16.5ZM15 12.15C15 12.7924 14.9994 13.2292 14.9718 13.5667C14.945 13.8955 14.8963 14.0637 14.8365 14.181L16.173 14.862C16.3585 14.498 16.4324 14.1104 16.4669 13.6889C16.5006 13.2761 16.5 12.7677 16.5 12.15H15ZM14.862 16.173C15.4265 15.8854 15.8854 15.4265 16.173 14.862L14.8365 14.181C14.6927 14.4632 14.4632 14.6927 14.181 14.8365L14.862 16.173ZM1.5 12.15C1.5 12.7677 1.49942 13.2761 1.53315 13.6889C1.56759 14.1104 1.64151 14.498 1.82698 14.862L3.16349 14.181C3.10372 14.0637 3.05503 13.8955 3.02816 13.5667C3.00058 13.2292 3 12.7924 3 12.15H1.5ZM5.85 15C5.20757 15 4.77085 14.9994 4.43328 14.9718C4.10447 14.945 3.93631 14.8963 3.81901 14.8365L3.13803 16.173C3.50203 16.3585 3.88956 16.4324 4.31113 16.4669C4.72395 16.5006 5.23232 16.5 5.85 16.5V15ZM1.82698 14.862C2.1146 15.4265 2.57354 15.8854 3.13803 16.173L3.81901 14.8365C3.53677 14.6927 3.3073 14.4632 3.16349 14.181L1.82698 14.862Z" fill="#323539"/>
</g>
</svg>
