<svg width="24" height="24" viewBox="0 0 24 24" fill="none" xmlns="http://www.w3.org/2000/svg">
<g id="edit/2">
<rect width="24" height="24" rx="12" fill="#4F4ECF"/>
<path id="Icon" d="M5.01149 16.9639L5.723 17.2011H5.723L5.01149 16.9639ZM5.76068 14.7163L5.04917 14.4792H5.04916L5.76068 14.7163ZM6.53372 13.4655L7.06405 13.9959L7.06405 13.9959L6.53372 13.4655ZM13.9996 5.9997L13.4692 5.46937V5.46937L13.9996 5.9997ZM17.9996 9.9997L18.5299 10.53L18.5299 10.53L17.9996 9.9997ZM10.5337 17.4655L10.0034 16.9352H10.0034L10.5337 17.4655ZM9.28291 18.2386L9.52008 18.9501H9.52008L9.28291 18.2386ZM7.03535 18.9878L7.27252 19.6993H7.27252L7.03535 18.9878ZM10.1237 17.8483L9.672 17.2495L9.672 17.2495L10.1237 17.8483ZM9.80861 18.043L9.47508 17.3712L9.80861 18.043ZM18.9632 7.11167L18.2912 7.44468V7.44468L18.9632 7.11167ZM18.9632 8.88773L18.2912 8.55472V8.55472L18.9632 8.88773ZM15.1115 5.03609L15.4445 5.7081V5.7081L15.1115 5.03609ZM16.8876 5.03609L16.5546 5.7081V5.7081L16.8876 5.03609ZM5.95627 14.1907L6.62803 14.5242L6.62803 14.5242L5.95627 14.1907ZM6.151 13.8756L5.55226 13.4239H5.55226L6.151 13.8756ZM4.6388 18.7544L3.93237 19.0063L4.6388 18.7544ZM5.24482 19.3605L4.99291 20.0669H4.99291L5.24482 19.3605ZM13.5299 6.4694C13.237 6.17651 12.7621 6.17651 12.4692 6.4694C12.1763 6.76229 12.1763 7.23717 12.4692 7.53006L13.5299 6.4694ZM16.4692 11.5301C16.7621 11.823 17.237 11.823 17.5299 11.5301C17.8228 11.2372 17.8228 10.7623 17.5299 10.4694L16.4692 11.5301ZM11.9996 19.2497C11.5853 19.2497 11.2496 19.5855 11.2496 19.9997C11.2496 20.4139 11.5853 20.7497 11.9996 20.7497V19.2497ZM18.9996 20.7497C19.4138 20.7497 19.7496 20.4139 19.7496 19.9997C19.7496 19.5855 19.4138 19.2497 18.9996 19.2497V20.7497ZM5.723 17.2011L6.47219 14.9535L5.04916 14.4792L4.29998 16.7267L5.723 17.2011ZM7.06405 13.9959L14.5299 6.53003L13.4692 5.46937L6.00339 12.9352L7.06405 13.9959ZM17.4692 9.46937L10.0034 16.9352L11.0641 17.9959L18.5299 10.53L17.4692 9.46937ZM9.04574 17.5271L6.79818 18.2763L7.27252 19.6993L9.52008 18.9501L9.04574 17.5271ZM10.0034 16.9352C9.79002 17.1486 9.73197 17.2043 9.672 17.2495L10.5754 18.447C10.7378 18.3244 10.879 18.1809 11.0641 17.9959L10.0034 16.9352ZM9.52008 18.9501C9.76836 18.8673 9.95986 18.8052 10.1421 18.7147L9.47508 17.3712C9.40779 17.4046 9.33201 17.4316 9.04574 17.5271L9.52008 18.9501ZM9.672 17.2495C9.61026 17.2961 9.54434 17.3368 9.47508 17.3712L10.1421 18.7147C10.2945 18.6391 10.4395 18.5495 10.5754 18.447L9.672 17.2495ZM17.4692 6.53003C18.0573 7.1181 18.2138 7.28867 18.2912 7.44468L19.6352 6.77866C19.421 6.34648 19.0323 5.9718 18.5299 5.46937L17.4692 6.53003ZM18.5299 10.53C19.0323 10.0276 19.421 9.65292 19.6352 9.22074L18.2912 8.55472C18.2138 8.71073 18.0573 8.8813 17.4692 9.46937L18.5299 10.53ZM18.2912 7.44468C18.4645 7.7944 18.4645 8.205 18.2912 8.55472L19.6352 9.22074C20.0164 8.45135 20.0164 7.54804 19.6352 6.77865L18.2912 7.44468ZM14.5299 6.53003C15.118 5.94196 15.2885 5.78541 15.4445 5.7081L14.7785 4.36407C14.3463 4.57824 13.9717 4.96694 13.4692 5.46937L14.5299 6.53003ZM18.5299 5.46937C18.0275 4.96694 17.6528 4.57824 17.2206 4.36407L16.5546 5.7081C16.7106 5.78541 16.8812 5.94196 17.4692 6.53003L18.5299 5.46937ZM15.4445 5.7081C15.7943 5.5348 16.2049 5.5348 16.5546 5.7081L17.2206 4.36407C16.4512 3.98281 15.5479 3.98281 14.7785 4.36407L15.4445 5.7081ZM6.47219 14.9535C6.56761 14.6673 6.59462 14.5915 6.62803 14.5242L5.28451 13.8571C5.19401 14.0394 5.13193 14.2309 5.04917 14.4792L6.47219 14.9535ZM6.00339 12.9352C5.81833 13.1203 5.67482 13.2614 5.55226 13.4239L6.74973 14.3273C6.79497 14.2673 6.85069 14.2092 7.06405 13.9959L6.00339 12.9352ZM6.62803 14.5242C6.66242 14.4549 6.70316 14.389 6.74973 14.3273L5.55226 13.4239C5.4498 13.5597 5.36017 13.7047 5.28451 13.8571L6.62803 14.5242ZM4.29998 16.7267C4.14186 17.2011 4.00609 17.606 3.92945 17.9322C3.85542 18.2472 3.79836 18.6306 3.93237 19.0063L5.34522 18.5025C5.36338 18.5534 5.32981 18.5301 5.38967 18.2753C5.44692 18.0317 5.55543 17.7038 5.723 17.2011L4.29998 16.7267ZM6.79818 18.2763C6.29545 18.4438 5.96756 18.5523 5.72394 18.6096C5.46919 18.6694 5.44582 18.6359 5.49673 18.654L4.99291 20.0669C5.36871 20.2009 5.75205 20.1438 6.06707 20.0698C6.39322 19.9932 6.79815 19.8574 7.27252 19.6993L6.79818 18.2763ZM3.93237 19.0063C4.1088 19.5011 4.49815 19.8905 4.99291 20.0669L5.49673 18.654C5.42605 18.6288 5.37043 18.5732 5.34522 18.5025L3.93237 19.0063ZM12.4692 7.53006L16.4692 11.5301L17.5299 10.4694L13.5299 6.4694L12.4692 7.53006ZM11.9996 20.7497H18.9996V19.2497H11.9996V20.7497Z" fill="white"/>
</g>
</svg>
