<svg width="18" height="18" viewBox="0 0 18 18" fill="none" xmlns="http://www.w3.org/2000/svg">
<g id="file/multiple">
<g id="Icon">
<path d="M7.5 6.3V3.45C7.5 3.02996 7.5 2.81994 7.41825 2.65951C7.34635 2.51839 7.23161 2.40365 7.09049 2.33175C6.93006 2.25 6.72004 2.25 6.3 2.25H5.74706C5.56361 2.25 5.47189 2.25 5.38558 2.27072C5.30905 2.2891 5.23589 2.3194 5.16879 2.36052C5.0931 2.4069 5.02824 2.47176 4.89853 2.60147L3.35147 4.14853C3.22176 4.27824 3.1569 4.3431 3.11052 4.41879C3.0694 4.48589 3.0391 4.55905 3.02072 4.63558C3 4.72189 3 4.81361 3 4.99706V6.3C3 6.72004 3 6.93006 3.08175 7.09049C3.15365 7.23161 3.26839 7.34635 3.40951 7.41825C3.56994 7.5 3.77996 7.5 4.2 7.5H6.3C6.72004 7.5 6.93006 7.5 7.09049 7.41825C7.23161 7.34635 7.34635 7.23161 7.41825 7.09049C7.5 6.93006 7.5 6.72004 7.5 6.3Z" stroke="#858C95" stroke-width="1.5"/>
<path d="M7.5 14.55V11.7C7.5 11.28 7.5 11.0699 7.41825 10.9095C7.34635 10.7684 7.23161 10.6537 7.09049 10.5817C6.93006 10.5 6.72004 10.5 6.3 10.5H5.74706C5.56361 10.5 5.47189 10.5 5.38558 10.5207C5.30905 10.5391 5.23589 10.5694 5.16879 10.6105C5.0931 10.6569 5.02824 10.7218 4.89853 10.8515L3.35147 12.3985C3.22176 12.5282 3.1569 12.5931 3.11052 12.6688C3.0694 12.7359 3.0391 12.809 3.02072 12.8856C3 12.9719 3 13.0636 3 13.2471V14.55C3 14.97 3 15.1801 3.08175 15.3405C3.15365 15.4816 3.26839 15.5963 3.40951 15.6683C3.56994 15.75 3.77996 15.75 4.2 15.75H6.3C6.72004 15.75 6.93006 15.75 7.09049 15.6683C7.23161 15.5963 7.34635 15.4816 7.41825 15.3405C7.5 15.1801 7.5 14.97 7.5 14.55Z" stroke="#858C95" stroke-width="1.5"/>
<path d="M15 6.3V3.45C15 3.02996 15 2.81994 14.9183 2.65951C14.8463 2.51839 14.7316 2.40365 14.5905 2.33175C14.4301 2.25 14.22 2.25 13.8 2.25H13.2471C13.0636 2.25 12.9719 2.25 12.8856 2.27072C12.809 2.2891 12.7359 2.3194 12.6688 2.36052C12.5931 2.4069 12.5282 2.47176 12.3985 2.60147L10.8515 4.14853C10.7218 4.27824 10.6569 4.3431 10.6105 4.41879C10.5694 4.48589 10.5391 4.55905 10.5207 4.63558C10.5 4.72189 10.5 4.81361 10.5 4.99706V6.3C10.5 6.72004 10.5 6.93006 10.5817 7.09049C10.6537 7.23161 10.7684 7.34635 10.9095 7.41825C11.0699 7.5 11.28 7.5 11.7 7.5H13.8C14.22 7.5 14.4301 7.5 14.5905 7.41825C14.7316 7.34635 14.8463 7.23161 14.9183 7.09049C15 6.93006 15 6.72004 15 6.3Z" stroke="#858C95" stroke-width="1.5"/>
<path d="M15 14.55V11.7C15 11.28 15 11.0699 14.9183 10.9095C14.8463 10.7684 14.7316 10.6537 14.5905 10.5817C14.4301 10.5 14.22 10.5 13.8 10.5H13.2471C13.0636 10.5 12.9719 10.5 12.8856 10.5207C12.809 10.5391 12.7359 10.5694 12.6688 10.6105C12.5931 10.6569 12.5282 10.7218 12.3985 10.8515L10.8515 12.3985C10.7218 12.5282 10.6569 12.5931 10.6105 12.6688C10.5694 12.7359 10.5391 12.809 10.5207 12.8856C10.5 12.9719 10.5 13.0636 10.5 13.2471V14.55C10.5 14.97 10.5 15.1801 10.5817 15.3405C10.6537 15.4816 10.7684 15.5963 10.9095 15.6683C11.0699 15.75 11.28 15.75 11.7 15.75H13.8C14.22 15.75 14.4301 15.75 14.5905 15.6683C14.7316 15.5963 14.8463 15.4816 14.9183 15.3405C15 15.1801 15 14.97 15 14.55Z" stroke="#858C95" stroke-width="1.5"/>
</g>
</g>
</svg>
