<svg width="21" height="20" viewBox="0 0 21 20" fill="none" xmlns="http://www.w3.org/2000/svg">
<g id="Social platforms logo" clip-path="url(#clip0_3791_5514)">
<g id="Logo">
<path id="Vector" d="M20.3023 10.2299C20.3023 9.55016 20.2472 8.86672 20.1296 8.19797H10.6973V12.0488H16.0987C15.8746 13.2907 15.1544 14.3894 14.0998 15.0875V17.5862H17.3223C19.2146 15.8445 20.3023 13.2724 20.3023 10.2299Z" fill="#4285F4"/>
<path id="Vector_2" d="M10.697 20.0001C13.394 20.0001 15.6685 19.1146 17.3257 17.586L14.1032 15.0874C13.2066 15.6974 12.0492 16.0428 10.7007 16.0428C8.09181 16.0428 5.87979 14.2827 5.08611 11.9164H1.76074V14.4921C3.45834 17.8689 6.91599 20.0001 10.697 20.0001Z" fill="#34A853"/>
<path id="Vector_3" d="M5.08272 11.9167C4.66383 10.6748 4.66383 9.32992 5.08272 8.08796V5.51218H1.76102C0.342682 8.33782 0.342682 11.6669 1.76102 14.4925L5.08272 11.9167Z" fill="#FBBC04"/>
<path id="Vector_4" d="M10.697 3.9579C12.1227 3.93585 13.5006 4.47232 14.5331 5.45707L17.3882 2.60203C15.5803 0.904435 13.1809 -0.0288743 10.697 0.000521301C6.91599 0.000521301 3.45834 2.1317 1.76074 5.51219L5.08244 8.08797C5.87244 5.71796 8.08813 3.9579 10.697 3.9579Z" fill="#EA4335"/>
</g>
</g>
<defs>
<clipPath id="clip0_3791_5514">
<rect width="20" height="20" fill="white" transform="translate(0.5)"/>
</clipPath>
</defs>
</svg>
