<svg width="20" height="20" viewBox="0 0 20 20" fill="none" xmlns="http://www.w3.org/2000/svg">
<g id="headphones/alt">
<path id="Icon" d="M4.53501 13.9044L4.24266 14.595H4.24266L4.53501 13.9044ZM4.53501 7.7623L4.82737 8.45298L4.53501 7.7623ZM5.15816 7.65221L5.01582 8.38858L5.15816 7.65221ZM5.69182 8.00582L6.31445 7.5877H6.31445L5.69182 8.00582ZM5.15816 14.0145L5.01582 13.2781H5.01581L5.15816 14.0145ZM5.69182 13.6609L5.06918 13.2427L5.06918 13.2427L5.69182 13.6609ZM15.465 13.9044L15.7573 14.595H15.7573L15.465 13.9044ZM15.465 7.7623L15.1726 8.45298L15.465 7.7623ZM14.8418 7.65221L14.9842 8.38858L14.8418 7.65221ZM14.3082 8.00582L13.6855 7.5877L14.3082 8.00582ZM14.8418 14.0145L14.9842 13.2781H14.9842L14.8418 14.0145ZM14.3082 13.6609L14.9308 13.2427V13.2427L14.3082 13.6609ZM16.5833 14.1667C16.5833 13.7525 16.2475 13.4167 15.8333 13.4167C15.4191 13.4167 15.0833 13.7525 15.0833 14.1667H16.5833ZM10 15.9167C9.58579 15.9167 9.25 16.2525 9.25 16.6667C9.25 17.0809 9.58579 17.4167 10 17.4167V15.9167ZM4.82737 13.2137C3.89902 12.8207 3.25 11.902 3.25 10.8333H1.75C1.75 12.5255 2.77913 13.9755 4.24266 14.595L4.82737 13.2137ZM3.25 10.8333C3.25 9.7647 3.89902 8.84593 4.82737 8.45298L4.24266 7.07163C2.77913 7.69112 1.75 9.14118 1.75 10.8333H3.25ZM6.58333 12.8333V8.83333H5.08333V12.8333H6.58333ZM4.82737 8.45298C4.89347 8.425 4.93294 8.40843 4.96637 8.39586C4.99707 8.38432 5.00705 8.38226 5.0062 8.38244C5.00249 8.38325 4.9948 8.38427 4.98803 8.38424C4.98309 8.38422 4.99014 8.38361 5.01582 8.38858L5.3005 6.91584C5.09194 6.87552 4.89454 6.8716 4.68701 6.9168C4.51124 6.95508 4.34852 7.02682 4.24266 7.07163L4.82737 8.45298ZM6.58333 8.83333C6.58333 8.48288 6.60728 8.02376 6.31445 7.5877L5.06918 8.42394C5.07178 8.4278 5.06976 8.42523 5.06789 8.42002C5.06651 8.41618 5.06925 8.42184 5.07258 8.44619C5.07624 8.47287 5.07956 8.51364 5.08141 8.58082C5.08328 8.64881 5.08333 8.72762 5.08333 8.83333H6.58333ZM5.01582 8.38858C4.99634 8.38481 4.98484 8.38094 4.98226 8.38006C4.97919 8.379 4.98056 8.3793 4.98622 8.38192C4.99829 8.38749 5.01713 8.39765 5.03872 8.41196C5.06032 8.42626 5.07702 8.43965 5.08685 8.44859C5.09147 8.45279 5.09228 8.45393 5.09011 8.45152C5.08829 8.44949 5.08024 8.44041 5.06918 8.42394L6.31445 7.5877C6.18779 7.39908 6.00719 7.25426 5.86726 7.16154C5.72732 7.06882 5.52356 6.95896 5.3005 6.91584L5.01582 8.38858ZM4.24266 14.595C4.34852 14.6398 4.51124 14.7116 4.68701 14.7499C4.89454 14.7951 5.09195 14.7911 5.3005 14.7508L5.01581 13.2781C4.99013 13.2831 4.98309 13.2824 4.98803 13.2824C4.9948 13.2824 5.00248 13.2834 5.0062 13.2842C5.00705 13.2844 4.99707 13.2823 4.96637 13.2708C4.93293 13.2582 4.89347 13.2417 4.82737 13.2137L4.24266 14.595ZM5.08333 12.8333C5.08333 12.939 5.08328 13.0179 5.08141 13.0858C5.07956 13.153 5.07624 13.1938 5.07258 13.2205C5.06925 13.2448 5.06651 13.2505 5.06789 13.2467C5.06976 13.2414 5.07178 13.2389 5.06918 13.2427L6.31445 14.079C6.60728 13.6429 6.58333 13.1838 6.58333 12.8333H5.08333ZM5.3005 14.7508C5.52356 14.7077 5.72732 14.5978 5.86726 14.5051C6.00719 14.4124 6.18779 14.2676 6.31445 14.079L5.06918 13.2427C5.08024 13.2263 5.08829 13.2172 5.09011 13.2151C5.09228 13.2127 5.09146 13.2139 5.08685 13.2181C5.07702 13.227 5.06032 13.2404 5.03872 13.2547C5.01713 13.269 4.99829 13.2792 4.98622 13.2847C4.98056 13.2874 4.9792 13.2877 4.98226 13.2866C4.98484 13.2857 4.99634 13.2819 5.01582 13.2781L5.3005 14.7508ZM15.7573 14.595C17.2209 13.9755 18.25 12.5255 18.25 10.8333H16.75C16.75 11.902 16.101 12.8207 15.1726 13.2137L15.7573 14.595ZM18.25 10.8333C18.25 9.14118 17.2209 7.69112 15.7573 7.07163L15.1726 8.45298C16.101 8.84593 16.75 9.7647 16.75 10.8333H18.25ZM14.9167 12.8333V8.83333H13.4167V12.8333H14.9167ZM15.7573 7.07163C15.6515 7.02682 15.4888 6.95508 15.313 6.9168C15.1055 6.8716 14.9081 6.87552 14.6995 6.91584L14.9842 8.38858C15.0099 8.38361 15.0169 8.38422 15.012 8.38424C15.0052 8.38427 14.9975 8.38325 14.9938 8.38244C14.9929 8.38226 15.0029 8.38432 15.0336 8.39586C15.0671 8.40843 15.1065 8.425 15.1726 8.45298L15.7573 7.07163ZM14.9167 8.83333C14.9167 8.72762 14.9167 8.64881 14.9186 8.58082C14.9204 8.51364 14.9238 8.47287 14.9274 8.44619C14.9308 8.42184 14.9335 8.41618 14.9321 8.42002C14.9302 8.42523 14.9282 8.4278 14.9308 8.42394L13.6855 7.5877C13.3927 8.02376 13.4167 8.48289 13.4167 8.83333H14.9167ZM14.6995 6.91584C14.4764 6.95896 14.2727 7.06882 14.1327 7.16154C13.9928 7.25426 13.8122 7.39908 13.6855 7.5877L14.9308 8.42394C14.9198 8.44041 14.9117 8.44949 14.9099 8.45152C14.9077 8.45393 14.9085 8.45279 14.9131 8.44859C14.923 8.43965 14.9397 8.42626 14.9613 8.41196C14.9829 8.39765 15.0017 8.38749 15.0138 8.38192C15.0194 8.3793 15.0208 8.379 15.0177 8.38006C15.0152 8.38094 15.0037 8.38481 14.9842 8.38858L14.6995 6.91584ZM15.1726 13.2137C15.1065 13.2417 15.0671 13.2582 15.0336 13.2708C15.0029 13.2823 14.9929 13.2844 14.9938 13.2842C14.9975 13.2834 15.0052 13.2824 15.012 13.2824C15.0169 13.2824 15.0099 13.2831 14.9842 13.2781L14.6995 14.7508C14.9081 14.7911 15.1055 14.7951 15.313 14.7499C15.4888 14.7116 15.6515 14.6398 15.7573 14.595L15.1726 13.2137ZM13.4167 12.8333C13.4167 13.1838 13.3927 13.6429 13.6855 14.079L14.9308 13.2427C14.9282 13.2389 14.9302 13.2414 14.9321 13.2467C14.9335 13.2505 14.9308 13.2448 14.9274 13.2205C14.9238 13.1938 14.9204 13.153 14.9186 13.0858C14.9167 13.0179 14.9167 12.939 14.9167 12.8333H13.4167ZM14.9842 13.2781C15.0037 13.2819 15.0152 13.2857 15.0177 13.2866C15.0208 13.2877 15.0194 13.2874 15.0138 13.2847C15.0017 13.2792 14.9829 13.269 14.9613 13.2547C14.9397 13.2404 14.923 13.227 14.9131 13.2181C14.9085 13.2139 14.9077 13.2127 14.9099 13.2151C14.9117 13.2172 14.9198 13.2263 14.9308 13.2427L13.6855 14.079C13.8122 14.2676 13.9928 14.4124 14.1327 14.5051C14.2727 14.5978 14.4764 14.7077 14.6995 14.7508L14.9842 13.2781ZM4.91667 8.33333C4.91667 5.52589 7.19255 3.25 10 3.25V1.75C6.36413 1.75 3.41667 4.69746 3.41667 8.33333H4.91667ZM10 3.25C12.8074 3.25 15.0833 5.52589 15.0833 8.33333H16.5833C16.5833 4.69746 13.6359 1.75 10 1.75V3.25ZM15.0833 14.1667V15H16.5833V14.1667H15.0833ZM14.1667 15.9167H10V17.4167H14.1667V15.9167ZM15.0833 15C15.0833 15.5063 14.6729 15.9167 14.1667 15.9167V17.4167C15.5014 17.4167 16.5833 16.3347 16.5833 15H15.0833Z" fill="#323539"/>
</g>
</svg>
