<svg width="20" height="20" viewBox="0 0 20 20" fill="none" xmlns="http://www.w3.org/2000/svg">
<g id="mobile/user">
<path id="Icon" d="M9.16667 4.16663H10.8333M10 14.1666C11.3807 14.1666 12.5 13.0473 12.5 11.6666C12.5 10.2859 11.3807 9.16663 10 9.16663C8.61929 9.16663 7.5 10.2859 7.5 11.6666C7.5 13.0473 8.61929 14.1666 10 14.1666ZM10 14.1666C12.3012 14.1666 14.1667 15.1988 14.1667 17.5M10 14.1666C7.69881 14.1666 5.83333 15.6154 5.83333 17.9166M7.66667 18.3333H12.3333C13.2668 18.3333 13.7335 18.3333 14.09 18.1516C14.4036 17.9918 14.6586 17.7369 14.8183 17.4233C15 17.0668 15 16.6 15 15.6666V4.33329C15 3.39987 15 2.93316 14.8183 2.57664C14.6586 2.26304 14.4036 2.00807 14.09 1.84828C13.7335 1.66663 13.2668 1.66663 12.3333 1.66663H7.66667C6.73325 1.66663 6.26654 1.66663 5.91002 1.84828C5.59641 2.00807 5.34144 2.26304 5.18166 2.57664C5 2.93316 5 3.39987 5 4.33329V15.6666C5 16.6 5 17.0668 5.18166 17.4233C5.34144 17.7369 5.59641 17.9918 5.91002 18.1516C6.26654 18.3333 6.73325 18.3333 7.66667 18.3333Z" stroke="#323539" stroke-width="1.5" stroke-linecap="round"/>
</g>
</svg>
