<svg width="16" height="16" viewBox="0 0 16 16" fill="none" xmlns="http://www.w3.org/2000/svg">
<g id="photo camera">
<path id="Icon" d="M6 4.00007C6.08616 4 6.17501 4 6.26667 4H9.73333C9.82499 4 9.91384 4 10 4.00007M6 4.00007C4.6822 4.00109 3.99145 4.01784 3.45603 4.29065C2.95426 4.54631 2.54631 4.95426 2.29065 5.45603C2 6.02646 2 6.77319 2 8.26667V9.06667C2 10.5601 2 11.3069 2.29065 11.8773C2.54631 12.3791 2.95426 12.787 3.45603 13.0427C4.02646 13.3333 4.77319 13.3333 6.26667 13.3333H9.73333C11.2268 13.3333 11.9735 13.3333 12.544 13.0427C13.0457 12.787 13.4537 12.3791 13.7094 11.8773C14 11.3069 14 10.5601 14 9.06667V8.26667C14 6.77319 14 6.02646 13.7094 5.45603C13.4537 4.95426 13.0457 4.54631 12.544 4.29065C12.0086 4.01784 11.3178 4.00109 10 4.00007M6 4.00007V3.33333C6 2.59695 6.59695 2 7.33333 2H8.66667C9.40305 2 10 2.59695 10 3.33333V4.00007M10 8.66667C10 9.77124 9.10457 10.6667 8 10.6667C6.89543 10.6667 6 9.77124 6 8.66667C6 7.5621 6.89543 6.66667 8 6.66667C9.10457 6.66667 10 7.5621 10 8.66667Z" stroke="#323539" stroke-width="1.5" stroke-linecap="round"/>
</g>
</svg>
