<svg width="24" height="24" viewBox="0 0 24 24" fill="none" xmlns="http://www.w3.org/2000/svg">
<g id="repeat">
<path id="Icon" d="M8 5.75C8.41421 5.75 8.75 5.41421 8.75 5C8.75 4.58579 8.41421 4.25 8 4.25V5.75ZM14 4.25C13.5858 4.25 13.25 4.58579 13.25 5C13.25 5.41421 13.5858 5.75 14 5.75V4.25ZM10 19.75C10.4142 19.75 10.75 19.4142 10.75 19C10.75 18.5858 10.4142 18.25 10 18.25V19.75ZM15 18.25C14.5858 18.25 14.25 18.5858 14.25 19C14.25 19.4142 14.5858 19.75 15 19.75V18.25ZM3.21799 17.908L2.54973 18.2485L2.54973 18.2485L3.21799 17.908ZM4.09202 18.782L4.43251 18.1138H4.43251L4.09202 18.782ZM20.782 17.908L20.1138 17.5675L20.782 17.908ZM19.908 18.782L20.2485 19.4503L19.908 18.782ZM20.782 6.09202L20.1138 6.43251V6.43251L20.782 6.09202ZM19.908 5.21799L20.2485 4.54973L20.2485 4.54973L19.908 5.21799ZM3.21799 6.09202L2.54973 5.75153H2.54973L3.21799 6.09202ZM4.09202 5.21799L3.75153 4.54973H3.75153L4.09202 5.21799ZM8.53033 2.46967C8.23744 2.17678 7.76256 2.17678 7.46967 2.46967C7.17678 2.76256 7.17678 3.23744 7.46967 3.53033L8.53033 2.46967ZM9.29289 4.29289L9.82322 3.76256V3.76256L9.29289 4.29289ZM9.29289 5.70711L8.76256 5.17678L9.29289 5.70711ZM7.46967 6.46967C7.17678 6.76256 7.17678 7.23744 7.46967 7.53033C7.76256 7.82322 8.23744 7.82322 8.53033 7.53033L7.46967 6.46967ZM16.5303 17.5303C16.8232 17.2374 16.8232 16.7626 16.5303 16.4697C16.2374 16.1768 15.7626 16.1768 15.4697 16.4697L16.5303 17.5303ZM14.7071 19.7071L14.1768 20.2374L14.7071 19.7071ZM15.4697 21.5303C15.7626 21.8232 16.2374 21.8232 16.5303 21.5303C16.8232 21.2374 16.8232 20.7626 16.5303 20.4697L15.4697 21.5303ZM20.25 8.2V15.8H21.75V8.2H20.25ZM3.75 15.8V8.2H2.25V15.8H3.75ZM6.2 5.75H8V4.25H6.2V5.75ZM14 5.75H17.8V4.25H14V5.75ZM10 18.25H6.2V19.75H10V18.25ZM17.8 18.25H15V19.75H17.8V18.25ZM2.25 15.8C2.25 16.3477 2.24942 16.8035 2.27974 17.1747C2.31078 17.5546 2.37789 17.9112 2.54973 18.2485L3.88624 17.5675C3.8401 17.4769 3.79822 17.3396 3.77476 17.0525C3.75058 16.7566 3.75 16.3724 3.75 15.8H2.25ZM6.2 18.25C5.62757 18.25 5.24336 18.2494 4.94748 18.2252C4.66035 18.2018 4.52307 18.1599 4.43251 18.1138L3.75153 19.4503C4.08879 19.6221 4.44545 19.6892 4.82533 19.7203C5.19646 19.7506 5.65232 19.75 6.2 19.75V18.25ZM2.54973 18.2485C2.81338 18.7659 3.23408 19.1866 3.75153 19.4503L4.43251 18.1138C4.19731 17.9939 4.00608 17.8027 3.88624 17.5675L2.54973 18.2485ZM20.25 15.8C20.25 16.3724 20.2494 16.7566 20.2252 17.0525C20.2018 17.3396 20.1599 17.4769 20.1138 17.5675L21.4503 18.2485C21.6221 17.9112 21.6892 17.5546 21.7203 17.1747C21.7506 16.8035 21.75 16.3477 21.75 15.8H20.25ZM17.8 19.75C18.3477 19.75 18.8035 19.7506 19.1747 19.7203C19.5546 19.6892 19.9112 19.6221 20.2485 19.4503L19.5675 18.1138C19.4769 18.1599 19.3396 18.2018 19.0525 18.2252C18.7566 18.2494 18.3724 18.25 17.8 18.25V19.75ZM20.1138 17.5675C19.9939 17.8027 19.8027 17.9939 19.5675 18.1138L20.2485 19.4503C20.7659 19.1866 21.1866 18.7659 21.4503 18.2485L20.1138 17.5675ZM21.75 8.2C21.75 7.65232 21.7506 7.19646 21.7203 6.82533C21.6892 6.44545 21.6221 6.08879 21.4503 5.75153L20.1138 6.43251C20.1599 6.52307 20.2018 6.66035 20.2252 6.94748C20.2494 7.24336 20.25 7.62757 20.25 8.2H21.75ZM17.8 5.75C18.3724 5.75 18.7566 5.75058 19.0525 5.77476C19.3396 5.79822 19.4769 5.8401 19.5675 5.88624L20.2485 4.54973C19.9112 4.37789 19.5546 4.31078 19.1747 4.27974C18.8035 4.24942 18.3477 4.25 17.8 4.25V5.75ZM21.4503 5.75153C21.1866 5.23408 20.7659 4.81338 20.2485 4.54973L19.5675 5.88624C19.8027 6.00608 19.9939 6.19731 20.1138 6.43251L21.4503 5.75153ZM3.75 8.2C3.75 7.62757 3.75058 7.24336 3.77476 6.94748C3.79822 6.66035 3.8401 6.52307 3.88624 6.43251L2.54973 5.75153C2.37789 6.08879 2.31078 6.44545 2.27974 6.82533C2.24942 7.19646 2.25 7.65232 2.25 8.2H3.75ZM6.2 4.25C5.65232 4.25 5.19646 4.24942 4.82533 4.27974C4.44545 4.31078 4.08879 4.37789 3.75153 4.54973L4.43251 5.88624C4.52307 5.8401 4.66035 5.79822 4.94748 5.77476C5.24336 5.75058 5.62757 5.75 6.2 5.75V4.25ZM3.88624 6.43251C4.00608 6.19731 4.19731 6.00608 4.43251 5.88624L3.75153 4.54973C3.23408 4.81338 2.81338 5.23408 2.54973 5.75153L3.88624 6.43251ZM7.46967 3.53033L8.76256 4.82322L9.82322 3.76256L8.53033 2.46967L7.46967 3.53033ZM8.76256 5.17678L7.46967 6.46967L8.53033 7.53033L9.82322 6.23744L8.76256 5.17678ZM8.76256 4.82322C8.86019 4.92085 8.86019 5.07915 8.76256 5.17678L9.82322 6.23744C10.5066 5.55402 10.5066 4.44598 9.82322 3.76256L8.76256 4.82322ZM15.4697 16.4697L14.1768 17.7626L15.2374 18.8232L16.5303 17.5303L15.4697 16.4697ZM14.1768 20.2374L15.4697 21.5303L16.5303 20.4697L15.2374 19.1768L14.1768 20.2374ZM14.1768 17.7626C13.4934 18.446 13.4934 19.554 14.1768 20.2374L15.2374 19.1768C15.1398 19.0791 15.1398 18.9209 15.2374 18.8232L14.1768 17.7626Z" fill="#323539"/>
</g>
</svg>
