<svg width="20" height="20" viewBox="0 0 20 20" fill="none" xmlns="http://www.w3.org/2000/svg">
<g id="settings/3">
<path id="Icon" d="M3.33331 5.00004H13.3333M13.3333 5.00004C13.3333 5.92052 14.0795 6.66671 15 6.66671C15.9205 6.66671 16.6666 5.92052 16.6666 5.00004C16.6666 4.07957 15.9205 3.33337 15 3.33337C14.0795 3.33337 13.3333 4.07957 13.3333 5.00004ZM6.66665 10H16.6666M6.66665 10C6.66665 10.9205 5.92045 11.6667 4.99998 11.6667C4.07951 11.6667 3.33331 10.9205 3.33331 10C3.33331 9.07957 4.07951 8.33337 4.99998 8.33337C5.92045 8.33337 6.66665 9.07957 6.66665 10ZM3.33331 15H13.3333M13.3333 15C13.3333 15.9205 14.0795 16.6667 15 16.6667C15.9205 16.6667 16.6666 15.9205 16.6666 15C16.6666 14.0796 15.9205 13.3334 15 13.3334C14.0795 13.3334 13.3333 14.0796 13.3333 15Z" stroke="#323539" stroke-width="1.5" stroke-linecap="round"/>
</g>
</svg>
