<svg width="20" height="20" viewBox="0 0 20 20" fill="none" xmlns="http://www.w3.org/2000/svg">
<g id="trash/alt">
<path id="Icon" d="M9.08341 8.33333C9.08341 7.91912 8.74763 7.58333 8.33341 7.58333C7.9192 7.58333 7.58341 7.91912 7.58341 8.33333H9.08341ZM7.58341 15C7.58341 15.4142 7.9192 15.75 8.33341 15.75C8.74763 15.75 9.08341 15.4142 9.08341 15H7.58341ZM12.4167 8.33333C12.4167 7.91912 12.081 7.58333 11.6667 7.58333C11.2525 7.58333 10.9167 7.91912 10.9167 8.33333H12.4167ZM10.9167 15C10.9167 15.4142 11.2525 15.75 11.6667 15.75C12.081 15.75 12.4167 15.4142 12.4167 15H10.9167ZM5.9101 17.3183L6.25059 16.6501H6.25059L5.9101 17.3183ZM5.18174 16.59L5.84999 16.2495H5.84999L5.18174 16.59ZM14.8184 16.59L14.1502 16.2495L14.8184 16.59ZM14.0901 17.3183L13.7496 16.6501L13.7496 16.6501L14.0901 17.3183ZM4.16675 5.08333C3.75253 5.08333 3.41675 5.41912 3.41675 5.83333C3.41675 6.24755 3.75253 6.58333 4.16675 6.58333V5.08333ZM15.8334 6.58333C16.2476 6.58333 16.5834 6.24755 16.5834 5.83333C16.5834 5.41912 16.2476 5.08333 15.8334 5.08333V6.58333ZM6.33341 5.83333C6.33341 6.24755 6.6692 6.58333 7.08341 6.58333C7.49763 6.58333 7.83341 6.24755 7.83341 5.83333H6.33341ZM12.1667 5.83333C12.1667 6.24755 12.5025 6.58333 12.9167 6.58333C13.331 6.58333 13.6667 6.24755 13.6667 5.83333H12.1667ZM7.58341 8.33333V15H9.08341V8.33333H7.58341ZM10.9167 8.33333V15H12.4167V8.33333H10.9167ZM14.2501 5.83333V14.8333H15.7501V5.83333H14.2501ZM12.3334 16.75H7.66675V18.25H12.3334V16.75ZM4.25008 5.83333V14.8333H5.75008V5.83333H4.25008ZM7.66675 16.75C7.18766 16.75 6.87345 16.7494 6.63316 16.7298C6.40162 16.7109 6.3055 16.6781 6.25059 16.6501L5.5696 17.9866C5.87121 18.1403 6.18671 18.1983 6.51101 18.2248C6.82656 18.2506 7.21241 18.25 7.66675 18.25V16.75ZM4.25008 14.8333C4.25008 15.2877 4.2495 15.6735 4.27528 15.9891C4.30178 16.3134 4.3598 16.6289 4.51348 16.9305L5.84999 16.2495C5.82201 16.1946 5.78922 16.0985 5.7703 15.8669C5.75066 15.6266 5.75008 15.3124 5.75008 14.8333H4.25008ZM6.25059 16.6501C6.07811 16.5622 5.93788 16.422 5.84999 16.2495L4.51348 16.9305C4.74518 17.3852 5.11488 17.7549 5.5696 17.9866L6.25059 16.6501ZM14.2501 14.8333C14.2501 15.3124 14.2495 15.6266 14.2299 15.8669C14.2109 16.0985 14.1781 16.1946 14.1502 16.2495L15.4867 16.9305C15.6404 16.6289 15.6984 16.3134 15.7249 15.9891C15.7507 15.6735 15.7501 15.2877 15.7501 14.8333H14.2501ZM12.3334 18.25C12.7877 18.25 13.1736 18.2506 13.4892 18.2248C13.8135 18.1983 14.1289 18.1403 14.4306 17.9866L13.7496 16.6501C13.6947 16.6781 13.5985 16.7109 13.367 16.7298C13.1267 16.7494 12.8125 16.75 12.3334 16.75V18.25ZM14.1502 16.2495C14.0623 16.422 13.9221 16.5622 13.7496 16.6501L14.4306 17.9866C14.8853 17.7549 15.255 17.3852 15.4867 16.9305L14.1502 16.2495ZM4.16675 6.58333H5.00008V5.08333H4.16675V6.58333ZM5.00008 6.58333H15.0001V5.08333H5.00008V6.58333ZM15.0001 6.58333H15.8334V5.08333H15.0001V6.58333ZM7.83341 5.16667C7.83341 4.16996 8.73879 3.25 10.0001 3.25V1.75C8.03971 1.75 6.33341 3.21785 6.33341 5.16667H7.83341ZM10.0001 3.25C11.2614 3.25 12.1667 4.16996 12.1667 5.16667H13.6667C13.6667 3.21785 11.9605 1.75 10.0001 1.75V3.25ZM6.33341 5.16667V5.83333H7.83341V5.16667H6.33341ZM12.1667 5.16667V5.83333H13.6667V5.16667H12.1667Z" fill="#323539"/>
</g>
</svg>
