<svg width="20" height="20" viewBox="0 0 20 20" fill="none" xmlns="http://www.w3.org/2000/svg">
<g id="upload">
<path id="Icon" d="M6.66669 9.25C6.25248 9.25 5.91669 9.58579 5.91669 10C5.91669 10.4142 6.25248 10.75 6.66669 10.75L6.66669 9.25ZM15.8334 10.75C16.2476 10.75 16.5834 10.4142 16.5834 10C16.5834 9.58579 16.2476 9.25 15.8334 9.25L15.8334 10.75ZM13.6364 12.803C13.3435 13.0959 13.3435 13.5708 13.6364 13.8637C13.9293 14.1566 14.4041 14.1566 14.697 13.8637L13.6364 12.803ZM16.9108 10.5893L16.3804 10.0589L16.9108 10.5893ZM16.9108 9.41074L16.3804 9.94107L16.3804 9.94107L16.9108 9.41074ZM14.697 6.13634C14.4041 5.84344 13.9293 5.84344 13.6364 6.13634C13.3435 6.42923 13.3435 6.9041 13.6364 7.197L14.697 6.13634ZM6.66669 3.25C7.0809 3.25 7.41669 2.91421 7.41669 2.5C7.41669 2.08579 7.0809 1.75 6.66669 1.75L6.66669 3.25ZM6.66669 18.25C7.0809 18.25 7.41669 17.9142 7.41669 17.5C7.41669 17.0858 7.0809 16.75 6.66669 16.75L6.66669 18.25ZM2.77251 16.135L3.44076 15.7945L3.44076 15.7945L2.77251 16.135ZM3.86505 17.2275L3.52455 17.8958L3.52455 17.8958L3.86505 17.2275ZM3.86505 2.77248L3.52456 2.10423L3.86505 2.77248ZM2.77251 3.86502L2.10425 3.52453L2.10425 3.52453L2.77251 3.86502ZM6.66669 10.75L15.8334 10.75L15.8334 9.25L6.66669 9.25L6.66669 10.75ZM14.697 13.8637L17.4411 11.1196L16.3804 10.0589L13.6364 12.803L14.697 13.8637ZM17.4411 8.88041L14.697 6.13634L13.6364 7.197L16.3804 9.94107L17.4411 8.88041ZM17.4411 11.1196C18.0594 10.5013 18.0594 9.49874 17.4411 8.88041L16.3804 9.94107C16.413 9.97362 16.413 10.0264 16.3804 10.0589L17.4411 11.1196ZM6.66669 1.75L6.50002 1.75L6.50002 3.25L6.66669 3.25L6.66669 1.75ZM1.75002 6.5L1.75002 13.5L3.25002 13.5L3.25002 6.5L1.75002 6.5ZM6.50002 18.25L6.66669 18.25L6.66669 16.75L6.50002 16.75L6.50002 18.25ZM1.75002 13.5C1.75002 14.1877 1.74944 14.7486 1.78657 15.2031C1.82443 15.6663 1.90516 16.0847 2.10425 16.4755L3.44076 15.7945C3.36737 15.6504 3.31186 15.4514 3.28159 15.0809C3.25061 14.7017 3.25002 14.2124 3.25002 13.5L1.75002 13.5ZM6.50002 16.75C5.78758 16.75 5.29836 16.7494 4.9191 16.7184C4.5486 16.6882 4.34958 16.6327 4.20554 16.5593L3.52455 17.8958C3.91529 18.0949 4.33369 18.1756 4.79695 18.2134C5.25146 18.2506 5.81233 18.25 6.50002 18.25L6.50002 16.75ZM2.10425 16.4755C2.41584 17.087 2.91303 17.5842 3.52455 17.8958L4.20554 16.5593C3.87626 16.3915 3.60854 16.1238 3.44076 15.7945L2.10425 16.4755ZM6.50002 1.75C5.81233 1.75 5.25146 1.74942 4.79696 1.78655C4.33369 1.8244 3.9153 1.90514 3.52456 2.10423L4.20554 3.44074C4.34958 3.36735 4.5486 3.31184 4.9191 3.28157C5.29836 3.25058 5.78758 3.25 6.50002 3.25L6.50002 1.75ZM3.25002 6.5C3.25002 5.78756 3.25061 5.29833 3.28159 4.91908C3.31186 4.54858 3.36737 4.34955 3.44076 4.20552L2.10425 3.52453C1.90516 3.91527 1.82443 4.33367 1.78658 4.79693C1.74944 5.25144 1.75002 5.81231 1.75002 6.5L3.25002 6.5ZM3.52456 2.10423C2.91303 2.41582 2.41584 2.913 2.10425 3.52453L3.44076 4.20552C3.60854 3.87623 3.87626 3.60852 4.20554 3.44074L3.52456 2.10423Z" fill="#282828"/>
</g>
</svg>
