<svg width="20" height="20" viewBox="0 0 20 20" fill="none" xmlns="http://www.w3.org/2000/svg">
<g id="zoom/search" clip-path="url(#clip0_2289_13343)">
<path id="Icon" d="M18.6364 19.697C18.9293 19.9899 19.4041 19.9899 19.697 19.697C19.9899 19.4041 19.9899 18.9292 19.697 18.6363L18.6364 19.697ZM15.1814 8.38235C15.1814 12.1373 12.1374 15.1814 8.38239 15.1814V16.6814C12.9658 16.6814 16.6814 12.9658 16.6814 8.38235H15.1814ZM8.38239 15.1814C4.6274 15.1814 1.58337 12.1373 1.58337 8.38235H0.083374C0.083374 12.9658 3.79897 16.6814 8.38239 16.6814V15.1814ZM1.58337 8.38235C1.58337 4.62735 4.6274 1.58333 8.38239 1.58333V0.0833282C3.79897 0.0833282 0.083374 3.79893 0.083374 8.38235H1.58337ZM8.38239 1.58333C12.1374 1.58333 15.1814 4.62735 15.1814 8.38235H16.6814C16.6814 3.79893 12.9658 0.0833282 8.38239 0.0833282V1.58333ZM13.2442 14.3048L18.6364 19.697L19.697 18.6363L14.3049 13.2442L13.2442 14.3048Z" fill="#A1A4AC"/>
</g>
<defs>
<clipPath id="clip0_2289_13343">
<rect width="20" height="20" fill="white"/>
</clipPath>
</defs>
</svg>
