<svg width="166" height="166" viewBox="0 0 166 166" fill="none" xmlns="http://www.w3.org/2000/svg">
<g id="Inbox cleanup-amico 1">
<g id="freepik--Floor--inject-59">
<path id="freepik--floor--inject-59" d="M84 159.833C127.63 159.833 163 140.133 163 115.833C163 91.5322 127.63 71.8328 84 71.8328C40.3695 71.8328 5 91.5322 5 115.833C5 140.133 40.3695 159.833 84 159.833Z" fill="#F5F5F5"/>
</g>
<g id="freepik--Mailbox--inject-59">
<g id="freepik--mailbox--inject-59">
<path id="Vector" d="M68.2977 31.1426L63.0921 28.1376C62.858 28.0056 62.692 27.9716 62.5984 28.0227L61.9642 28.393C61.8535 28.4525 61.8578 28.6441 61.9982 28.9335L63.2751 31.5555L62.3302 32.4068C62.23 32.484 62.1514 32.5859 62.102 32.7024C62.0526 32.8189 62.034 32.9462 62.0481 33.072C62.0623 33.1978 62.1086 33.3178 62.1826 33.4205C62.2566 33.5231 62.3558 33.605 62.4707 33.6581L67.672 36.6632L68.3105 36.2971L68.2977 31.1426Z" fill="#5558DA"/>
<path id="Vector_2" opacity="0.5" d="M68.2977 31.1426L63.0921 28.1376C62.858 28.0056 62.692 27.9716 62.5984 28.0227L61.9642 28.393C61.8535 28.4525 61.8578 28.6441 61.9982 28.9335L63.2751 31.5555L62.3302 32.4068C62.23 32.484 62.1514 32.5859 62.102 32.7024C62.0526 32.8189 62.034 32.9462 62.0481 33.072C62.0623 33.1978 62.1086 33.3178 62.1826 33.4205C62.2566 33.5231 62.3558 33.605 62.4707 33.6581L67.672 36.6632L68.3105 36.2971L68.2977 31.1426Z" fill="white"/>
<path id="Vector_3" d="M62.4578 28.5079C61.9471 28.2099 61.7427 28.4015 61.9981 28.9335L63.2751 31.5555L62.3301 32.4068C62.2299 32.484 62.1513 32.5859 62.1019 32.7024C62.0525 32.8189 62.0339 32.9462 62.0481 33.072C62.0622 33.1978 62.1085 33.3178 62.1825 33.4205C62.2565 33.5231 62.3557 33.605 62.4706 33.6581L67.6719 36.6632V31.5086L62.4578 28.5079Z" fill="#5558DA"/>
<path id="Vector_4" d="M68.2721 47.7043C68.1099 47.7032 67.9546 47.6382 67.8399 47.5235C67.7252 47.4088 67.6603 47.2536 67.6592 47.0914V29.8018C67.6592 29.6393 67.7238 29.4834 67.8387 29.3684C67.9536 29.2535 68.1095 29.1889 68.2721 29.1889C68.4347 29.1889 68.5906 29.2535 68.7055 29.3684C68.8205 29.4834 68.885 29.6393 68.885 29.8018V47.0914C68.8839 47.2536 68.819 47.4088 68.7043 47.5235C68.5896 47.6382 68.4343 47.7032 68.2721 47.7043Z" fill="#E0E0E0"/>
<path id="Vector_5" d="M43.6402 108.511V107.43H43.9041C44.3085 106.704 44.9166 106.112 45.6535 105.728C48.3435 104.174 52.7021 104.174 55.3922 105.728C56.129 106.112 56.7372 106.704 57.1415 107.43H57.4097V108.477C57.4097 109.512 56.7627 110.546 55.3964 111.338C52.7064 112.887 48.3478 112.887 45.6578 111.338C44.3042 110.559 43.6317 109.533 43.6402 108.511Z" fill="#263238"/>
<path id="Vector_6" d="M50.5229 111.406C54.3264 111.406 57.4097 109.626 57.4097 107.43C57.4097 105.235 54.3264 103.455 50.5229 103.455C46.7193 103.455 43.636 105.235 43.636 107.43C43.636 109.626 46.7193 111.406 50.5229 111.406Z" fill="#455A64"/>
<path id="Vector_7" d="M52.3019 53.9314V106.949C52.2875 107.105 52.2317 107.254 52.1405 107.382C52.0492 107.509 51.9257 107.609 51.7827 107.673C51.3943 107.87 50.9648 107.973 50.5291 107.973C50.0935 107.973 49.664 107.87 49.2756 107.673C49.1326 107.609 49.0091 107.509 48.9178 107.382C48.8266 107.254 48.7708 107.105 48.7563 106.949V53.9314H52.3019Z" fill="#37474F"/>
<path id="Vector_8" d="M48.7522 58.4049V61.8824L52.2978 63.9255V60.4565L48.7522 58.4049Z" fill="#263238"/>
<path id="Vector_9" d="M63.8413 51.9139L70.3962 55.7021C70.3626 55.754 70.3193 55.7988 70.2685 55.834L58.8017 62.4527C58.7038 62.5081 58.6272 62.4527 58.6272 62.3506V54.0889C58.6584 52.4994 58.9831 50.9294 59.5849 49.4579L63.8413 51.9139Z" fill="#37474F"/>
<path id="Vector_10" d="M70.4472 46.5082V55.7532L59.5891 49.4835C59.5986 49.4516 59.61 49.4204 59.6232 49.3898C60.7894 46.4827 62.7516 44.014 64.8798 42.7924C65.6172 42.3269 66.4644 42.0641 67.3358 42.0305C69.2554 42.0092 70.4472 43.7246 70.4472 46.5082Z" fill="#263238"/>
<path id="Vector_11" d="M82.2416 66.0537V65.2364H82.165V65.3514C82.114 65.1222 82.0413 64.8985 81.9479 64.6831C81.356 63.4855 80.3951 62.5097 79.2068 61.8994L71.4559 57.4089C71.2749 57.3156 71.0742 57.2669 70.8706 57.2669C70.667 57.2669 70.4663 57.3156 70.2853 57.4089L58.4142 64.2575C58.2641 64.1388 58.1358 63.9947 58.0354 63.8318V64.6831C58.0431 64.7559 58.0695 64.8255 58.112 64.8852C58.1545 64.9449 58.2117 64.9925 58.278 65.0236L66.0375 69.4928C68.3168 70.7143 70.8757 71.3188 73.4606 71.2465C75.6124 71.2684 77.7355 70.7519 79.6367 69.744C81.3818 68.7395 82.2416 67.4115 82.2416 66.0537Z" fill="#263238"/>
<path id="Vector_12" d="M81.948 64.6746C81.3561 63.477 80.3952 62.5012 79.2069 61.8909L71.4559 57.4089C71.275 57.3156 71.0743 57.2669 70.8707 57.2669C70.6671 57.2669 70.4664 57.3156 70.2854 57.4089L58.4143 64.2575L66.0375 68.6628C68.3168 69.8843 70.8758 70.4888 73.4607 70.4165C75.6125 70.4384 77.7355 69.9219 79.6368 68.914C81.2031 68.0116 82.0587 66.8496 82.2162 65.6365C82.1727 65.3048 82.0824 64.981 81.948 64.6746Z" fill="#455A64"/>
<path id="Vector_13" d="M82.2162 65.6366C82.1727 65.3048 82.0824 64.981 81.948 64.6746C81.3561 63.477 80.3952 62.5012 79.2069 61.8909L71.456 57.4089C71.275 57.3156 71.0743 57.2669 70.8707 57.2669C70.6671 57.2669 70.4664 57.3156 70.2855 57.4089L58.4143 64.2575L58.2781 64.1809C58.207 64.1579 58.1449 64.113 58.1009 64.0526C58.0569 63.9922 58.0332 63.9194 58.0332 63.8446C58.0332 63.7698 58.0569 63.697 58.1009 63.6366C58.1449 63.5762 58.207 63.5313 58.2781 63.5083L70.277 56.5789C70.4579 56.4856 70.6586 56.4369 70.8622 56.4369C71.0658 56.4369 71.2665 56.4856 71.4475 56.5789L79.2069 61.0566C80.603 61.8654 81.5139 62.8358 81.948 63.8446C82.0899 64.1697 82.1831 64.5139 82.2247 64.8661C82.2517 65.1224 82.2488 65.3809 82.2162 65.6366Z" fill="#37474F"/>
<path id="Vector_14" d="M58.5376 63.3892L70.5364 56.4597L70.2725 55.834L58.8058 62.457L58.5376 63.3892Z" fill="#455A64"/>
<g id="freepik--Letter--inject-59">
<path id="Vector_15" d="M69.3916 45.9379C69.3863 45.8384 69.3577 45.7415 69.3082 45.6551C69.2586 45.5686 69.1896 45.4949 69.1065 45.4399L54.4942 37.0079C54.4063 36.9617 54.3084 36.9376 54.209 36.9376C54.1097 36.9376 54.0118 36.9617 53.9239 37.0079L53.6004 37.191C53.5178 37.2455 53.4491 37.3186 53.3996 37.4042C53.3501 37.4899 53.3212 37.5859 53.3152 37.6847V48.8876C53.3212 48.9864 53.3501 49.0824 53.3996 49.1681C53.4491 49.2538 53.5178 49.3268 53.6004 49.3813L68.2126 57.8133C68.3006 57.8595 68.3984 57.8837 68.4978 57.8837C68.5972 57.8837 68.695 57.8595 68.783 57.8133L69.1065 57.6303C69.1888 57.5754 69.2573 57.5024 69.3068 57.4167C69.3563 57.3311 69.3853 57.2352 69.3916 57.1365V45.9379Z" fill="#5558DA"/>
<path id="Vector_16" opacity="0.35" d="M69.3278 45.657L68.5191 46.1252L53.4216 37.4081C53.4699 37.3218 53.5386 37.2488 53.6217 37.1952L53.9452 37.0122C54.0331 36.966 54.131 36.9418 54.2303 36.9418C54.3297 36.9418 54.4276 36.966 54.5155 37.0122L69.1235 45.4442C69.2079 45.4974 69.2781 45.5705 69.3278 45.657Z" fill="black"/>
<path id="Vector_17" opacity="0.2" d="M68.4978 46.1209L68.3488 46.2103C68.3957 46.2304 68.4351 46.2646 68.4618 46.308C68.4885 46.3514 68.5011 46.4021 68.4978 46.4529V57.6515C68.5019 57.688 68.4958 57.7249 68.48 57.758C68.4642 57.7911 68.4394 57.8191 68.4084 57.8388C68.3646 57.8559 68.316 57.8559 68.2722 57.8388L68.2126 57.8133L53.6004 49.3771C53.5178 49.3225 53.4491 49.2495 53.3996 49.1638C53.3501 49.0781 53.3212 48.9821 53.3152 48.8833V37.689C53.319 37.5883 53.3483 37.4901 53.4003 37.4038L68.4978 46.1209Z" fill="black"/>
<path id="Vector_18" opacity="0.2" d="M68.4978 46.1209L61.7301 48.6365C61.4962 48.7232 61.2398 48.7283 61.0026 48.651C60.7654 48.5738 60.5613 48.4187 60.4234 48.2108L59.338 46.5466L53.3449 37.3655L59.1124 46.6189L53.3066 48.8918C53.3133 48.9927 53.3439 49.0904 53.396 49.177L59.1294 46.6232L60.4063 48.645C60.5459 48.8695 60.7617 49.0362 61.0143 49.1144C61.2669 49.1926 61.5391 49.177 61.7812 49.0706L62.6793 48.6748L68.4126 57.8218C68.4436 57.8021 68.4684 57.7741 68.4842 57.741C68.5 57.7078 68.5062 57.671 68.502 57.6345V57.4472L62.7048 48.679L68.4978 46.1209Z" fill="black"/>
</g>
<g id="freepik--letter--inject-59">
<path id="Vector_19" d="M65.9227 47.9171C65.9176 47.8181 65.8892 47.7217 65.8396 47.6359C65.79 47.55 65.7207 47.4772 65.6375 47.4234L51.0252 38.9872C50.9358 38.9432 50.8375 38.9203 50.7379 38.9203C50.6383 38.9203 50.54 38.9432 50.4506 38.9872L50.1314 39.1744C50.0481 39.2283 49.9789 39.3011 49.9293 39.3869C49.8797 39.4728 49.8512 39.5692 49.8462 39.6682V50.8668C49.8512 50.9658 49.8797 51.0622 49.9293 51.148C49.9789 51.2339 50.0481 51.3067 50.1314 51.3605L64.7394 59.7967C64.8279 59.841 64.9256 59.864 65.0245 59.864C65.1235 59.864 65.2212 59.841 65.3097 59.7967L65.6332 59.6095C65.7165 59.5556 65.7857 59.4828 65.8353 59.397C65.8849 59.3111 65.9134 59.2147 65.9184 59.1157L65.9227 47.9171Z" fill="#5558DA"/>
<path id="Vector_20" opacity="0.35" d="M65.8504 47.6362L65.0374 48.1044L49.9399 39.3873C49.9897 39.3007 50.0598 39.2277 50.1443 39.1744L50.4677 38.9871C50.5563 38.9429 50.6539 38.9199 50.7529 38.9199C50.8519 38.9199 50.9495 38.9429 51.0381 38.9871L65.6461 47.4234C65.7314 47.4755 65.8018 47.5488 65.8504 47.6362Z" fill="black"/>
<path id="Vector_21" opacity="0.2" d="M65.0415 48.1044L64.8925 48.1938C64.9394 48.2139 64.9788 48.248 65.0055 48.2914C65.0322 48.3349 65.0448 48.3855 65.0415 48.4364V59.635C65.0456 59.6714 65.0395 59.7083 65.0237 59.7414C65.0079 59.7745 64.9831 59.8026 64.9521 59.8223C64.9083 59.8394 64.8597 59.8394 64.8159 59.8223L64.7563 59.7967L50.1441 51.3605C50.0615 51.3059 49.9928 51.2329 49.9433 51.1472C49.8938 51.0616 49.8649 50.9655 49.8589 50.8668V39.6724C49.8627 39.5717 49.892 39.4736 49.944 39.3872L65.0415 48.1044Z" fill="black"/>
<path id="Vector_22" opacity="0.2" d="M65.0372 48.1044L58.261 50.6327C58.0272 50.7202 57.7706 50.7257 57.5332 50.6484C57.2959 50.5711 57.0917 50.4155 56.9543 50.207L55.8689 48.5428L49.8887 39.3575L55.6646 48.5981L49.8589 50.871C49.8624 50.9724 49.8933 51.071 49.9483 51.1562L55.6817 48.6364L56.9586 50.654C57.0989 50.8789 57.3155 51.0457 57.5688 51.1238C57.8221 51.202 58.095 51.1863 58.3377 51.0796L59.2358 50.6795L64.9691 59.8308C64.999 59.8092 65.0226 59.7801 65.0375 59.7465C65.0525 59.7128 65.0583 59.6758 65.0543 59.6392V59.4562L59.2656 50.671L65.0372 48.1044Z" fill="black"/>
</g>
<g id="freepik--letter--inject-59_2">
<path id="Vector_23" d="M62.4749 49.9134C62.4699 49.8144 62.4414 49.718 62.3918 49.6321C62.3422 49.5463 62.273 49.4735 62.1897 49.4196L47.5775 40.9749C47.4892 40.9297 47.3915 40.9062 47.2923 40.9062C47.1931 40.9062 47.0954 40.9297 47.0071 40.9749L46.6836 41.1622C46.6004 41.216 46.5311 41.2889 46.4815 41.3747C46.4319 41.4605 46.4035 41.5569 46.3984 41.656V52.8503C46.4041 52.9492 46.4329 53.0453 46.4824 53.131C46.5319 53.2168 46.6008 53.2897 46.6836 53.3441L61.2959 61.7803C61.3844 61.8245 61.4821 61.8475 61.5811 61.8475C61.68 61.8475 61.7777 61.8245 61.8662 61.7803L62.1897 61.593C62.2725 61.5387 62.3414 61.4657 62.3909 61.38C62.4404 61.2942 62.4692 61.1981 62.4749 61.0992V49.9134Z" fill="#5558DA"/>
<path id="Vector_24" opacity="0.35" d="M62.3898 49.6197L61.5811 50.0879L46.4836 41.3708C46.5307 41.2837 46.5997 41.2103 46.6837 41.1579L47.0072 40.9707C47.0951 40.9244 47.193 40.9003 47.2924 40.9003C47.3917 40.9003 47.4896 40.9244 47.5775 40.9707L62.1898 49.4069C62.2738 49.4592 62.3428 49.5326 62.3898 49.6197Z" fill="black"/>
<path id="Vector_25" opacity="0.2" d="M61.5811 50.0836L61.4321 50.173C61.4789 50.1931 61.5184 50.2273 61.5451 50.2707C61.5717 50.3141 61.5843 50.3648 61.5811 50.4156V61.6143C61.5852 61.6507 61.579 61.6876 61.5632 61.7207C61.5474 61.7538 61.5226 61.7818 61.4917 61.8015C61.4479 61.8186 61.3993 61.8186 61.3555 61.8015L61.2959 61.776L46.6836 53.3441C46.6011 53.2895 46.5323 53.2165 46.4828 53.1308C46.4334 53.0451 46.4045 52.9491 46.3984 52.8503V41.6517C46.4022 41.551 46.4315 41.4528 46.4836 41.3665L61.5811 50.0836Z" fill="black"/>
<path id="Vector_26" opacity="0.2" d="M61.5811 50.0879L54.8134 52.6119C54.5803 52.7007 54.3239 52.7069 54.0869 52.6295C53.8498 52.552 53.6465 52.3956 53.5109 52.1863L52.4213 50.5178L46.4282 41.3367L52.2042 50.5816L46.3984 52.8545C46.4059 52.9552 46.4365 53.0528 46.4878 53.1397L52.2212 50.5859L53.4981 52.6077C53.6377 52.8322 53.8535 52.9989 54.1061 53.0771C54.3587 53.1553 54.6309 53.1397 54.8729 53.0333L55.7711 52.6375L61.5044 61.7845C61.5354 61.7648 61.5602 61.7368 61.576 61.7037C61.5918 61.6706 61.598 61.6337 61.5938 61.5972V61.4099L55.8008 52.6247L61.5811 50.0879Z" fill="black"/>
</g>
<path id="Vector_27" d="M68.9276 41.7113C67.7656 41.1026 66.2248 41.209 64.5392 42.1837C62.6451 43.2734 60.9383 45.2441 59.7423 47.5085C59.4642 48.0311 59.2141 48.5682 58.9931 49.1174C58.3359 50.6942 57.9821 52.3809 57.9503 54.0889V63.5339C57.7473 63.5359 57.547 63.4876 57.3672 63.3934L36.5831 51.3691C36.4117 51.2554 36.2696 51.1028 36.1682 50.9239C36.0669 50.7449 36.0093 50.5445 36 50.339V41.4006C36 36.9228 38.9497 31.6108 42.5847 29.4826C44.2872 28.4866 45.8749 28.4057 47.0496 29.057L68.9276 41.7113Z" fill="#455A64"/>
<path id="Vector_28" d="M58.9932 49.1174C58.3359 50.6942 57.9821 52.3809 57.9504 54.0889V63.5339C57.8789 63.5334 57.8077 63.5262 57.7375 63.5126C57.7375 62.9678 57.7375 59.9372 57.7375 54.0932C57.7375 47.1467 63.0793 42.7328 64.5478 42.1752C62.6537 43.2649 60.9469 45.2356 59.7508 47.5C59.4696 48.0252 59.2167 48.5651 58.9932 49.1174Z" fill="#37474F"/>
<path id="Vector_29" d="M58.8059 62.4528C58.708 62.5123 58.6271 62.4527 58.6271 62.3548V54.0889C58.6599 52.5006 58.986 50.932 59.5891 49.4622C59.5986 49.4303 59.61 49.3991 59.6231 49.3685C59.8551 48.7853 60.1224 48.2168 60.4234 47.666C61.5896 45.5122 63.1815 43.7416 64.8798 42.7669C65.6172 42.3014 66.4644 42.0385 67.3358 42.005C67.7804 42.0024 68.2189 42.1091 68.6127 42.3157C69.7577 42.9286 70.4302 44.4098 70.4302 46.4827V55.5233C70.4278 55.5846 70.4106 55.6445 70.3803 55.6978C70.3499 55.7511 70.3072 55.7964 70.2557 55.8298L70.5196 56.4555L70.5791 56.4172C70.6721 56.3527 70.7541 56.2737 70.8218 56.1831C70.9915 55.9722 71.0899 55.7129 71.1027 55.4424V46.5082C71.1027 44.1119 70.2514 42.4434 68.9106 41.7368C67.7444 41.1239 66.2078 41.2303 64.518 42.205C62.6282 43.2946 60.9213 45.2654 59.721 47.5298C59.4443 48.0525 59.1957 48.5895 58.9762 49.1387C58.3189 50.7155 57.9651 52.4022 57.9333 54.1102V63.5339H58.0355C58.2038 63.5236 58.3678 63.4772 58.5165 63.3977L58.8059 62.4528Z" fill="#455A64"/>
</g>
</g>
<g id="freepik--Message--inject-115">
<g id="freepik--Envelope--inject-115">
<path id="Vector_30" d="M72.8257 102.212L112.656 79.2178L114.25 80.1376C114.468 80.2806 114.649 80.4727 114.778 80.6983C114.908 80.9239 114.983 81.1768 114.997 81.4366V110.818C114.983 111.078 114.908 111.331 114.779 111.556C114.649 111.782 114.468 111.974 114.25 112.117L75.9164 134.245C75.6845 134.36 75.4289 134.42 75.1699 134.42C74.9108 134.42 74.6552 134.36 74.4233 134.245L73.5812 133.758C73.3636 133.615 73.1825 133.423 73.0523 133.197C72.9222 132.972 72.8466 132.719 72.8317 132.459L72.8257 102.212Z" fill="#5558DA"/>
<path id="Vector_31" opacity="0.05" d="M72.8257 102.212L112.656 79.2178L114.25 80.1376C114.468 80.2806 114.649 80.4727 114.778 80.6983C114.908 80.9239 114.983 81.1768 114.997 81.4366V110.818C114.983 111.078 114.908 111.331 114.779 111.556C114.649 111.782 114.468 111.974 114.25 112.117L75.9164 134.245C75.6845 134.36 75.4289 134.42 75.1699 134.42C74.9108 134.42 74.6552 134.36 74.4233 134.245L73.5812 133.758C73.3636 133.615 73.1825 133.423 73.0523 133.197C72.9222 132.972 72.8466 132.719 72.8317 132.459L72.8257 102.212Z" fill="black"/>
<path id="Vector_32" d="M112.435 76.6318L112.599 76.5422L111.981 76.1839C111.927 76.1537 111.871 76.1278 111.814 76.1062L94.2846 69.6112C94.0443 69.5306 93.7846 69.5285 93.543 69.6053C93.3014 69.6821 93.0905 69.8337 92.9408 70.0382L73.3304 98.673C73.0259 99.1668 72.8522 99.73 72.8257 100.309V102.212L73.4229 102.564L112.647 79.2149V77.3127C112.641 77.0703 112.568 76.8345 112.435 76.6318Z" fill="#5558DA"/>
<path id="Vector_33" opacity="0.1" d="M93.7502 70.1786C93.6721 70.2397 93.6037 70.3122 93.5471 70.3936L73.9367 99.0284C73.7756 99.2817 73.6528 99.5574 73.5723 99.8466L72.9751 99.4943C73.0193 99.3469 73.0721 99.2024 73.1334 99.0613C73.1602 99.0015 73.1871 98.9448 73.217 98.8881V98.8612C73.248 98.8012 73.283 98.7434 73.3215 98.688L92.9379 70.0412C92.9675 69.9988 93.0004 69.9589 93.0365 69.9218L93.141 69.8262L93.7502 70.1786Z" fill="black"/>
<path id="Vector_34" opacity="0.35" d="M112.59 76.5422C112.537 76.51 112.481 76.483 112.423 76.4616L94.8908 69.9636C94.6981 69.8995 94.4922 69.8856 94.2926 69.9232C94.093 69.9608 93.9062 70.0487 93.7501 70.1786L93.1528 69.8262C93.3103 69.6976 93.4975 69.6105 93.6973 69.5729C93.8971 69.5354 94.1031 69.5485 94.2966 69.6112L111.826 76.1062C111.883 76.1276 111.938 76.1546 111.99 76.1868L112.59 76.5422Z" fill="white"/>
<path id="Vector_35" d="M93.0393 69.9218C93.0712 69.8869 93.1062 69.8549 93.1438 69.8262C93.1056 69.8541 93.0705 69.8862 93.0393 69.9218Z" fill="#5558DA"/>
<path id="Vector_36" opacity="0.2" d="M73.2112 98.8764C73.2112 98.8764 73.2112 98.8553 73.2112 98.8462C73.2112 98.8372 73.2172 98.8674 73.2112 98.8764Z" fill="black"/>
<path id="Vector_37" opacity="0.2" d="M92.9409 70.0382C92.9696 69.9961 93.0026 69.957 93.0395 69.9218C93.0018 69.9562 92.9687 69.9954 92.9409 70.0382Z" fill="black"/>
<path id="Vector_38" d="M93.547 70.3966L73.9395 99.0344C73.6325 99.526 73.4576 100.089 73.4319 100.668V102.57L113.262 79.5762V77.665C113.247 77.4076 113.161 77.1593 113.012 76.9483C112.864 76.7373 112.66 76.5718 112.423 76.4705L94.8938 69.9755C94.6535 69.8959 94.3942 69.8937 94.1526 69.9693C93.911 70.0448 93.6992 70.1943 93.547 70.3966Z" fill="#5558DA"/>
<path id="Vector_39" d="M77.768 130.243L76.4899 129.506C76.3844 129.425 76.3015 129.319 76.2492 129.197C76.1969 129.075 76.1769 128.942 76.1913 128.81V88.9858C76.208 88.5815 76.3317 88.1889 76.5496 87.848L77.8486 88.5946C77.6288 88.9368 77.5051 89.3318 77.4903 89.7383V129.547C77.4744 129.677 77.4915 129.809 77.5401 129.931C77.5886 130.053 77.667 130.16 77.768 130.243Z" fill="#E0E0E0"/>
<path id="Vector_40" d="M78.5652 87.8361L110.559 69.3693C111.157 69.017 111.655 69.3007 111.655 70.0024V109.815C111.635 110.196 111.526 110.566 111.335 110.897C111.145 111.228 110.879 111.508 110.559 111.717L78.5652 130.181C77.9679 130.53 77.4692 130.246 77.4692 129.545V89.7383C77.4899 89.3575 77.5998 88.9869 77.7902 88.6564C77.9806 88.326 78.2461 88.0449 78.5652 87.8361Z" fill="#F0F0F0"/>
<path id="Vector_41" d="M110.037 68.5422L111.291 69.2708C111.17 69.2255 111.039 69.2114 110.911 69.2296C110.782 69.2479 110.661 69.298 110.557 69.3753L78.5652 87.8391C78.2583 88.0241 78.0035 88.2841 77.8246 88.5946L76.5256 87.848C76.7059 87.538 76.9591 87.2766 77.2632 87.0865L109.258 68.6049C109.369 68.5231 109.5 68.4734 109.638 68.4613C109.775 68.4492 109.913 68.4751 110.037 68.5362V68.5422Z" fill="#FAFAFA"/>
<path id="Vector_42" d="M81.0618 89.9204L107.666 74.5594C108.024 74.3533 108.314 74.4996 108.314 74.8879C108.298 75.1049 108.231 75.315 108.118 75.5013C108.005 75.6875 107.851 75.8447 107.666 75.9599L81.0618 91.321C80.7035 91.527 80.4138 91.3807 80.4138 90.9955C80.4296 90.7779 80.4965 90.5672 80.6091 90.3804C80.7217 90.1936 80.8768 90.036 81.0618 89.9204Z" fill="#E0E0E0"/>
<path id="Vector_43" d="M81.0618 92.7125L107.666 77.3515C108.024 77.1454 108.314 77.2917 108.314 77.6799C108.298 77.897 108.231 78.1071 108.118 78.2934C108.005 78.4796 107.851 78.6367 107.666 78.752L81.0618 94.1131C80.7035 94.3191 80.4138 94.1728 80.4138 93.7876C80.4296 93.57 80.4965 93.3593 80.6091 93.1725C80.7217 92.9857 80.8768 92.8281 81.0618 92.7125Z" fill="#E0E0E0"/>
<path id="Vector_44" d="M81.0618 95.5047L107.666 80.1436C108.024 79.9375 108.314 80.0839 108.314 80.4691C108.298 80.6866 108.231 80.8974 108.119 81.0842C108.006 81.271 107.851 81.4286 107.666 81.5441L81.0618 96.9052C80.7035 97.1113 80.4138 96.9649 80.4138 96.5797C80.4296 96.3622 80.4965 96.1514 80.6091 95.9646C80.7217 95.7778 80.8768 95.6202 81.0618 95.5047Z" fill="#E0E0E0"/>
<path id="Vector_45" d="M81.0618 98.2968L107.666 82.9387C108.024 82.7326 108.314 82.879 108.314 83.2642C108.298 83.4817 108.231 83.6925 108.119 83.8793C108.006 84.0661 107.851 84.2237 107.666 84.3392L81.0618 99.7003C80.7035 99.9064 80.4138 99.76 80.4138 99.3718C80.4296 99.1543 80.4965 98.9435 80.6091 98.7567C80.7217 98.5699 80.8768 98.4123 81.0618 98.2968Z" fill="#E0E0E0"/>
<path id="Vector_46" d="M81.0618 101.089L107.666 85.7278C108.024 85.5217 108.314 85.6681 108.314 86.0533C108.298 86.2708 108.231 86.4816 108.119 86.6684C108.006 86.8552 107.851 87.0128 107.666 87.1283L81.0618 102.489C80.7035 102.695 80.4138 102.549 80.4138 102.161C80.43 101.944 80.4972 101.734 80.6098 101.547C80.7223 101.361 80.8772 101.204 81.0618 101.089Z" fill="#E0E0E0"/>
<path id="Vector_47" d="M81.0618 103.881L107.666 88.5199C108.024 88.3139 108.314 88.4602 108.314 88.8454C108.298 89.063 108.231 89.2737 108.119 89.4605C108.006 89.6473 107.851 89.8049 107.666 89.9205L81.0618 105.282C80.7035 105.488 80.4138 105.341 80.4138 104.953C80.43 104.736 80.4972 104.526 80.6098 104.34C80.7223 104.153 80.8772 103.996 81.0618 103.881Z" fill="#E0E0E0"/>
<path id="Vector_48" d="M81.0618 106.673L107.666 91.3001C108.024 91.094 108.314 91.2404 108.314 91.6256C108.298 91.8431 108.231 92.0539 108.119 92.2407C108.006 92.4275 107.851 92.5851 107.666 92.7006L81.0618 108.062C80.7035 108.268 80.4138 108.121 80.4138 107.733C80.4319 107.518 80.4998 107.311 80.6123 107.126C80.7248 106.942 80.8788 106.787 81.0618 106.673Z" fill="#E0E0E0"/>
<path id="Vector_49" d="M81.0618 109.465L107.666 94.1042C108.024 93.8951 108.314 94.0444 108.314 94.4297C108.298 94.6472 108.231 94.858 108.119 95.0448C108.006 95.2316 107.851 95.3892 107.666 95.5047L81.0618 110.866C80.7035 111.072 80.4138 110.926 80.4138 110.537C80.43 110.32 80.4972 110.11 80.6098 109.924C80.7223 109.738 80.8772 109.58 81.0618 109.465Z" fill="#E0E0E0"/>
<path id="Vector_50" d="M113.988 111.206C113.976 111.227 113.962 111.247 113.946 111.266L97.3484 103.905C96.7182 103.626 96.0085 103.584 95.3501 103.787C94.6916 103.99 94.1286 104.425 93.7649 105.01L76.0208 133.48L75.3639 133.86C75.2907 133.911 75.2059 133.943 75.1172 133.953C75.0286 133.962 74.9388 133.95 74.8562 133.916L93.1049 104.634C93.4695 104.049 94.0323 103.616 94.6903 103.412C95.3484 103.209 96.0576 103.249 96.6884 103.526L113.988 111.206Z" fill="#5558DA"/>
<path id="Vector_51" opacity="0.4" d="M92.1256 107.599L92.1674 107.563L76.015 133.483L75.358 133.863C75.2845 133.913 75.1998 133.944 75.1113 133.954C75.0227 133.964 74.9331 133.952 74.8503 133.919L91.4746 107.217L92.1256 107.599Z" fill="white"/>
<path id="Vector_52" opacity="0.4" d="M113.988 111.209C113.976 111.23 113.962 111.25 113.946 111.269L97.3454 103.905C96.7153 103.626 96.0056 103.584 95.3471 103.787C94.6886 103.99 94.1257 104.425 93.7619 105.01L93.105 104.628C93.4709 104.045 94.0343 103.613 94.6922 103.411C95.3501 103.21 96.0587 103.251 96.6884 103.529L113.988 111.209Z" fill="white"/>
<path id="Vector_53" d="M114.985 81.2455C114.949 81.0305 114.836 80.9708 114.686 81.0723C114.613 81.1274 114.548 81.1939 114.495 81.2694L114.412 81.3858L98.0442 104.189L95.5985 107.596C95.441 107.794 95.2324 107.946 94.9952 108.035C94.7579 108.124 94.5008 108.147 94.2517 108.1L92.1404 107.599L76.0149 103.765C75.9065 103.742 75.7948 103.742 75.6864 103.765C75.6443 103.773 75.6033 103.786 75.564 103.803L76.0089 103.547L91.5372 107.24L93.6544 107.724C93.9036 107.771 94.1608 107.749 94.3983 107.66C94.6357 107.571 94.8442 107.419 95.0012 107.22L97.4469 103.815L113.907 80.8961C113.957 80.828 114.02 80.7702 114.092 80.7259L112.677 79.9106L113.274 79.5672L114.259 80.1346C114.448 80.262 114.61 80.4259 114.734 80.6167C114.859 80.8075 114.944 81.0213 114.985 81.2455Z" fill="#5558DA"/>
<path id="Vector_54" opacity="0.4" d="M98.0444 104.189L95.5987 107.596C95.4412 107.794 95.2326 107.946 94.9953 108.035C94.7581 108.124 94.501 108.147 94.2519 108.101L92.1406 107.599L92.1824 107.563L92.284 107.402L93.6666 107.73C93.9157 107.777 94.173 107.755 94.4104 107.666C94.6478 107.577 94.8563 107.425 95.0134 107.226L97.4352 103.857L98.0444 104.189Z" fill="white"/>
<path id="Vector_55" opacity="0.1" d="M114.248 80.1346L113.262 79.5672L112.665 79.9106L114.089 80.7319C114.017 80.7764 113.955 80.8341 113.904 80.9021L97.4472 103.821L97.4233 103.854L98.0206 104.186L114.409 81.3858L114.493 81.2694C114.545 81.1939 114.61 81.1274 114.684 81.0723C114.83 80.9708 114.943 81.0305 114.982 81.2455C114.94 81.0206 114.854 80.8063 114.728 80.6155C114.602 80.4247 114.438 80.2611 114.248 80.1346Z" fill="black"/>
<path id="Vector_56" d="M76.3375 104.242L72.8257 102.212V132.459C72.8406 132.719 72.9162 132.972 73.0464 133.197C73.1765 133.423 73.3576 133.615 73.5752 133.758L74.4173 134.245C74.6493 134.36 74.9048 134.42 75.1639 134.42C75.423 134.42 75.6785 134.36 75.9104 134.245L76.3315 134L76.3375 104.242Z" fill="#5558DA"/>
<path id="Vector_57" opacity="0.15" d="M76.3375 104.242L72.8257 102.212V132.459C72.8406 132.719 72.9162 132.972 73.0464 133.197C73.1765 133.423 73.3576 133.615 73.5752 133.758L74.4173 134.245C74.6493 134.36 74.9048 134.42 75.1639 134.42C75.423 134.42 75.6785 134.36 75.9104 134.245L76.3315 134L76.3375 104.242Z" fill="black"/>
<path id="Vector_58" d="M114.412 81.3859V110.448C114.404 110.717 114.323 110.979 114.179 111.206C114.069 111.399 113.919 111.566 113.74 111.696L113.713 111.714L113.662 111.747L75.3311 133.875C75.2851 133.903 75.236 133.926 75.1847 133.943C75.1816 133.898 75.1816 133.854 75.1847 133.809V104.439C75.1781 104.334 75.1971 104.229 75.2401 104.133C75.2832 104.036 75.3489 103.952 75.4318 103.887C75.5146 103.822 75.612 103.778 75.7157 103.758C75.8194 103.739 75.9261 103.745 76.0269 103.776L92.1524 107.611L94.2637 108.112C94.5128 108.159 94.7698 108.136 95.0071 108.047C95.2444 107.958 95.453 107.806 95.6104 107.608L98.0442 104.189L114.412 81.3859Z" fill="#455A64"/>
<path id="Vector_59" d="M115 81.4456V110.827C114.991 111.096 114.91 111.358 114.767 111.585C114.656 111.778 114.506 111.945 114.328 112.078L114.298 112.093C114.283 112.105 114.267 112.116 114.25 112.126L75.9194 134.242C75.8461 134.294 75.7609 134.327 75.6717 134.337C75.5824 134.348 75.492 134.335 75.4087 134.302C75.3451 134.264 75.2915 134.212 75.2525 134.15C75.2135 134.088 75.1902 134.017 75.1847 133.943C75.1816 133.898 75.1816 133.854 75.1847 133.809V104.439C75.1781 104.334 75.1971 104.229 75.2401 104.133C75.2832 104.036 75.3489 103.952 75.4318 103.887C75.5146 103.822 75.612 103.778 75.7157 103.758C75.8194 103.739 75.9261 103.745 76.0269 103.776L92.1524 107.611L94.2637 108.112C94.5128 108.159 94.7698 108.136 95.0071 108.047C95.2444 107.958 95.453 107.806 95.6104 107.608L98.0442 104.189L114.424 81.3859L114.507 81.2694C114.767 80.8842 115 80.9559 115 81.4456Z" fill="#5558DA"/>
<path id="Vector_60" d="M114.25 112.114L114.298 112.081L114.328 112.066C114.506 111.933 114.656 111.766 114.767 111.573C114.906 111.35 114.986 111.093 114.997 110.83L98.0442 104.189L109.392 114.918L114.25 112.114Z" fill="#5558DA"/>
<path id="Vector_61" opacity="0.2" d="M114.25 112.114L114.298 112.081L114.328 112.066C114.506 111.933 114.656 111.766 114.767 111.573C114.906 111.35 114.986 111.093 114.997 110.83L98.0442 104.189L109.392 114.918L114.25 112.114Z" fill="black"/>
<path id="Vector_62" d="M75.1699 133.812C75.1589 133.907 75.1749 134.004 75.2161 134.091C75.2572 134.178 75.3219 134.252 75.4028 134.305C75.4861 134.338 75.5765 134.351 75.6658 134.34C75.755 134.33 75.8402 134.297 75.9134 134.245L89.1095 126.627L92.1226 107.602L75.1699 133.322V133.812Z" fill="#5558DA"/>
<path id="Vector_63" opacity="0.15" d="M93.7531 105.007L75.3999 134.302C75.319 134.249 75.2543 134.175 75.2131 134.088C75.172 134.001 75.156 133.905 75.1669 133.809V133.322L91.3612 107.426L91.4866 107.226L93.0961 104.645L93.7531 105.007Z" fill="black"/>
<path id="Vector_64" d="M114.767 111.573C114.656 111.766 114.506 111.933 114.328 112.066L114.298 112.081L75.9193 134.242C75.8461 134.294 75.7609 134.327 75.6717 134.337C75.5824 134.348 75.492 134.335 75.4087 134.302L93.762 104.998C94.13 104.41 94.6976 103.974 95.3606 103.771C96.0237 103.568 96.7378 103.61 97.3723 103.89L114.767 111.573Z" fill="#5558DA"/>
<path id="Vector_65" d="M114.767 111.576C114.657 111.769 114.508 111.936 114.328 112.066L114.301 112.084L75.9164 134.245C75.8427 134.296 75.7574 134.328 75.6683 134.338C75.5791 134.348 75.4889 134.335 75.4058 134.302L75.9164 133.489L113.635 111.708L113.665 111.69C113.824 111.574 113.959 111.428 114.062 111.26L114.767 111.576Z" fill="#5558DA"/>
<path id="Vector_66" opacity="0.15" d="M72.9602 99.4942L73.5574 99.8466C73.4728 100.111 73.4255 100.387 73.4171 100.665V102.564L72.8198 102.212V100.309C72.8286 100.033 72.8758 99.7582 72.9602 99.4942Z" fill="black"/>
<path id="Vector_67" d="M76.5674 103.669L76.006 103.535L75.5611 103.791L74.9459 103.436L73.4319 102.564L74.0202 102.215L76.5674 103.669Z" fill="#5558DA"/>
<path id="Vector_68" opacity="0.1" d="M76.5675 103.669L74.0233 102.218L73.426 102.567L74.94 103.439L75.5552 103.794C75.5909 103.777 75.6292 103.765 75.6687 103.759C75.7771 103.736 75.8888 103.736 75.9972 103.759L77.2364 104.057L91.3612 107.426L91.4866 107.226L76.5675 103.669Z" fill="black"/>
</g>
</g>
<g id="freepik--paper-plane--inject-45">
<path id="Vector_69" d="M106.032 40.821L86.1565 33.0096L101.008 44.995L106.032 40.821Z" fill="#5558DA"/>
<path id="Vector_70" opacity="0.15" d="M106.032 40.821L86.1565 33.0096L101.008 44.995L106.032 40.821Z" fill="white"/>
<path id="Vector_71" d="M86.1564 33.0096L107.794 38.2265L112.818 34.0524L86.1564 33.0096Z" fill="#5558DA"/>
<path id="Vector_72" opacity="0.15" d="M86.1564 33.0096L107.794 38.2265L112.818 34.0524L86.1564 33.0096Z" fill="white"/>
<path id="Vector_73" d="M107.794 38.2265L107.396 43.6434L106.032 40.821L86.1565 33.0096L107.794 38.2265Z" fill="#5558DA"/>
<path id="Vector_74" opacity="0.2" d="M107.794 38.2265L107.396 43.6434L106.032 40.821L86.1565 33.0096L107.794 38.2265Z" fill="black"/>
<path id="Vector_75" d="M107.396 43.6434L104.356 42.2133L106.032 40.821L107.396 43.6434Z" fill="#5558DA"/>
<path id="Vector_76" opacity="0.2" d="M106.032 40.821L104.356 42.2133L104.842 42.4406L106.032 40.821Z" fill="black"/>
<path id="Vector_77" d="M111.786 40.3062C111.766 40.3189 111.749 40.3355 111.735 40.355C111.722 40.3746 111.712 40.3967 111.707 40.42C111.696 40.476 111.705 40.5341 111.733 40.5839C111.761 40.6337 111.806 40.6719 111.86 40.6915L112.45 40.9002C112.474 40.9101 112.501 40.9145 112.527 40.9131C112.554 40.9117 112.58 40.9045 112.603 40.892C112.627 40.8796 112.647 40.8622 112.663 40.841C112.679 40.8198 112.69 40.7954 112.696 40.7694C112.708 40.7143 112.7 40.6566 112.674 40.6069C112.647 40.5572 112.603 40.5187 112.551 40.4984L111.954 40.2892C111.927 40.2789 111.897 40.275 111.868 40.278C111.839 40.2809 111.811 40.2906 111.786 40.3062Z" fill="#455A64"/>
<path id="Vector_78" d="M114.486 41.2572C114.87 41.42 115.253 41.5895 115.63 41.7617C115.681 41.7859 115.722 41.8277 115.746 41.8796C115.769 41.9314 115.773 41.99 115.758 42.0447C115.749 42.0697 115.735 42.0926 115.716 42.1118C115.698 42.1309 115.675 42.1459 115.65 42.1557C115.626 42.1654 115.599 42.1698 115.573 42.1684C115.546 42.167 115.52 42.16 115.496 42.1477C115.124 41.9757 114.743 41.8099 114.363 41.6473C114.311 41.625 114.269 41.5847 114.245 41.5338C114.221 41.4829 114.216 41.425 114.231 41.3707C114.242 41.3288 114.269 41.2928 114.306 41.2699C114.332 41.2528 114.363 41.2427 114.394 41.2405C114.426 41.2383 114.458 41.244 114.486 41.2572ZM117.509 42.696C117.883 42.898 118.251 43.0863 118.613 43.3173C118.662 43.3452 118.699 43.3903 118.717 43.4439C118.735 43.4976 118.733 43.556 118.71 43.6079C118.699 43.6318 118.682 43.653 118.661 43.67C118.641 43.6871 118.617 43.6995 118.591 43.7067C118.565 43.7138 118.538 43.7154 118.512 43.7114C118.486 43.7074 118.461 43.6979 118.438 43.6835C118.081 43.4728 117.718 43.2682 117.35 43.0733C117.3 43.0461 117.262 43.0021 117.242 42.9493C117.223 42.8964 117.223 42.8382 117.242 42.7853C117.256 42.7504 117.28 42.7208 117.312 42.7008C117.341 42.6823 117.375 42.6722 117.41 42.6713C117.444 42.6705 117.479 42.679 117.509 42.696ZM120.404 44.4479C120.758 44.6884 121.105 44.9383 121.445 45.1943C121.49 45.2275 121.522 45.276 121.534 45.3308C121.547 45.3856 121.539 45.4431 121.512 45.4925C121.497 45.5149 121.477 45.5339 121.455 45.5483C121.432 45.5627 121.406 45.5722 121.38 45.5761C121.353 45.58 121.326 45.5782 121.3 45.571C121.274 45.5637 121.25 45.5511 121.229 45.5339C120.895 45.285 120.551 45.042 120.204 44.7888C120.157 44.7576 120.123 44.7102 120.109 44.6557C120.095 44.6012 120.101 44.5433 120.127 44.4932C120.14 44.4664 120.16 44.4438 120.185 44.4277C120.22 44.4094 120.259 44.4015 120.298 44.4051C120.336 44.4087 120.373 44.4236 120.404 44.4479ZM123.114 46.5252C123.442 46.8069 123.762 47.098 124.069 47.3882C124.111 47.4258 124.137 47.4778 124.142 47.5338C124.147 47.5898 124.13 47.6455 124.096 47.6899C124.078 47.7101 124.056 47.7262 124.031 47.7373C124.007 47.7484 123.98 47.7542 123.953 47.7544C123.926 47.7545 123.899 47.7489 123.874 47.738C123.85 47.7271 123.828 47.7111 123.809 47.6911C123.499 47.404 123.188 47.1203 122.876 46.8432C122.832 46.8073 122.803 46.7562 122.795 46.7001C122.787 46.6439 122.801 46.5868 122.833 46.5401C122.844 46.5235 122.858 46.5098 122.876 46.5002C122.913 46.4791 122.956 46.4701 122.999 46.4746C123.041 46.4791 123.082 46.4968 123.114 46.5252ZM125.574 48.9395C125.863 49.2582 126.147 49.5865 126.421 49.9206C126.456 49.9637 126.474 50.0187 126.469 50.0742C126.465 50.1297 126.44 50.1814 126.398 50.2185C126.378 50.2363 126.354 50.2498 126.328 50.2583C126.302 50.2667 126.275 50.27 126.248 50.2679C126.221 50.2658 126.194 50.2584 126.17 50.2461C126.146 50.2337 126.124 50.2167 126.107 50.1961C125.839 49.869 125.558 49.5443 125.275 49.2328C125.237 49.1926 125.215 49.1392 125.214 49.0835C125.214 49.0278 125.234 48.9739 125.272 48.9328L125.3 48.9084C125.342 48.8788 125.393 48.8656 125.443 48.8713C125.494 48.8771 125.541 48.9014 125.574 48.9395ZM127.727 51.6431C127.922 51.9212 128.11 52.2021 128.297 52.4896L128.446 52.7242C128.477 52.7692 128.49 52.8247 128.48 52.8788C128.471 52.9329 128.441 52.9813 128.397 53.0134C128.373 53.0272 128.347 53.0361 128.32 53.0396C128.292 53.0431 128.265 53.0412 128.238 53.0338C128.212 53.0265 128.187 53.014 128.166 52.997C128.144 52.98 128.126 52.9589 128.113 52.9349L127.964 52.7037C127.783 52.4233 127.598 52.1459 127.406 51.8714C127.371 51.8289 127.354 51.7745 127.358 51.7195C127.362 51.6645 127.387 51.6133 127.429 51.5768C127.451 51.5594 127.477 51.547 127.505 51.5402C127.533 51.5334 127.562 51.5325 127.59 51.5375C127.618 51.5425 127.645 51.5533 127.668 51.5692C127.692 51.5851 127.712 51.6057 127.728 51.6298L127.727 51.6431ZM129.255 54.4916C129.305 54.4697 129.363 54.468 129.414 54.4869C129.466 54.5057 129.509 54.5437 129.533 54.593C129.734 54.9747 129.93 55.3629 130.11 55.753C130.123 55.7768 130.13 55.803 130.133 55.8299C130.135 55.8568 130.132 55.8839 130.124 55.9097C130.116 55.9354 130.103 55.9592 130.085 55.9798C130.068 56.0003 130.046 56.0171 130.022 56.0292C129.97 56.0478 129.913 56.046 129.862 56.0242C129.811 56.0023 129.77 55.9621 129.748 55.9115C129.564 55.5277 129.371 55.1432 129.17 54.7714C129.144 54.7271 129.135 54.6746 129.146 54.6242C129.157 54.5739 129.186 54.5294 129.228 54.4994L129.255 54.4916ZM130.703 57.6003C130.757 57.5853 130.815 57.5915 130.865 57.6176C130.915 57.6437 130.953 57.6878 130.972 57.7409C131.124 58.1422 131.272 58.55 131.404 58.9564C131.414 58.9815 131.418 59.0083 131.417 59.0352C131.416 59.0621 131.41 59.0885 131.398 59.1128C131.387 59.1371 131.37 59.1589 131.35 59.1767C131.33 59.1945 131.306 59.2081 131.281 59.2166C131.226 59.2277 131.168 59.2178 131.12 59.1888C131.072 59.1598 131.036 59.1139 131.02 59.0599C130.891 58.6604 130.749 58.2598 130.596 57.8684C130.576 57.8256 130.572 57.7772 130.585 57.7319C130.598 57.6865 130.626 57.6471 130.665 57.6206C130.675 57.6034 130.689 57.5885 130.705 57.5771L130.703 57.6003ZM131.735 60.8433C131.791 60.8371 131.847 60.852 131.892 60.8851C131.938 60.9182 131.969 60.967 131.981 61.0221C132.075 61.4357 132.163 61.8586 132.233 62.277C132.239 62.3031 132.24 62.3301 132.235 62.3563C132.229 62.3826 132.219 62.4074 132.203 62.4291C132.188 62.4509 132.168 62.4691 132.144 62.4826C132.121 62.4961 132.096 62.5046 132.069 62.5074C132.013 62.5103 131.958 62.4924 131.915 62.457C131.871 62.4217 131.843 62.3715 131.834 62.3161C131.763 61.9044 131.678 61.4883 131.596 61.0857C131.585 61.0465 131.587 61.0049 131.6 60.9665C131.614 60.9282 131.639 60.8951 131.673 60.8718C131.689 60.8496 131.711 60.8318 131.737 60.8201L131.735 60.8433ZM132.277 64.1651C132.334 64.1681 132.388 64.1918 132.428 64.2318C132.469 64.2717 132.493 64.3251 132.497 64.3819C132.531 64.8008 132.552 65.2252 132.563 65.6456C132.564 65.6718 132.56 65.698 132.55 65.7224C132.541 65.7468 132.526 65.7689 132.507 65.7873C132.489 65.8057 132.466 65.8199 132.442 65.829C132.417 65.8381 132.391 65.8419 132.365 65.8401C132.308 65.8351 132.255 65.8093 132.217 65.7675C132.178 65.7257 132.156 65.6711 132.156 65.6142C132.144 65.2037 132.126 64.7894 132.091 64.3772C132.088 64.3424 132.094 64.3074 132.109 64.2758C132.123 64.2441 132.146 64.217 132.175 64.1972C132.203 64.168 132.239 64.1486 132.279 64.142L132.277 64.1651Z" fill="#455A64"/>
</g>
<g id="freepik--Plants--inject-2">
<g id="freepik--plants--inject-2">
<path id="Vector_79" d="M142.123 134.83L147.252 137.777C147.163 135.449 146.962 131.975 147.281 129.642C149.246 115.36 154.822 110.654 157.465 103.703C160.251 96.3827 156.856 94.0246 152.44 95.351C148.509 96.5252 142.85 102.371 141.504 113.091C140.666 120.329 140.874 127.651 142.123 134.83Z" fill="#5558DA"/>
<path id="Vector_80" opacity="0.65" d="M142.123 134.83L147.252 137.777C147.163 135.449 146.962 131.975 147.281 129.642C149.246 115.36 154.822 110.654 157.465 103.703C160.251 96.3827 156.856 94.0246 152.44 95.351C148.509 96.5252 142.85 102.371 141.504 113.091C140.666 120.329 140.874 127.651 142.123 134.83Z" fill="white"/>
<path id="Vector_81" d="M144.181 136.023L144.835 136.402C142.496 119.752 148.19 105.309 153.81 99.3451C153.864 99.2916 153.894 99.2192 153.894 99.1436C153.894 99.0681 153.864 98.9957 153.81 98.9422C153.756 98.8885 153.683 98.8584 153.606 98.8584C153.53 98.8584 153.457 98.8885 153.402 98.9422C147.768 104.921 142.088 119.458 144.181 136.023Z" fill="white"/>
<path id="Vector_82" d="M145.414 136.736L149.094 138.863C151.059 133.105 153.058 130.801 155.549 127.013C157.824 123.575 160.462 121.433 161.867 119.011C163.11 116.869 164.043 114.177 162.196 112.546C159.248 109.947 155.421 112.693 152.783 115.665C150.504 118.23 145.92 125.058 145.414 136.736Z" fill="#5558DA"/>
<path id="Vector_83" opacity="0.3" d="M145.414 136.736L149.094 138.863C151.059 133.105 153.058 130.801 155.549 127.013C157.824 123.575 160.462 121.433 161.867 119.011C163.11 116.869 164.043 114.177 162.196 112.546C159.248 109.947 155.421 112.693 152.783 115.665C150.504 118.23 145.92 125.058 145.414 136.736Z" fill="white"/>
<path id="Vector_84" d="M146.922 137.61L147.458 137.92C149.005 128.816 155.186 118.269 159.032 115.812C159.088 115.766 159.126 115.701 159.137 115.63C159.148 115.558 159.132 115.485 159.093 115.424C159.053 115.363 158.992 115.319 158.922 115.3C158.852 115.281 158.778 115.289 158.713 115.321C154.734 117.9 148.563 128.364 146.922 137.61Z" fill="white"/>
</g>
</g>
<g id="freepik--Plants--inject-59">
<g id="freepik--plants--inject-59">
<path id="Vector_85" d="M23.0941 91.8735L26.8642 89.7184C26.8642 89.7184 28.6725 79.7557 27.3191 71.1919C25.4199 59.1537 17.22 55.0026 14.2403 56.1967C11.2606 57.3909 10.5669 60.962 15.9462 67.9165C19.1136 72.0221 23.1965 80.6997 23.0941 91.8735Z" fill="#5558DA"/>
<path id="Vector_86" opacity="0.65" d="M23.0941 91.8735L26.8642 89.7184C26.8642 89.7184 28.6725 79.7557 27.3191 71.1919C25.4199 59.1537 17.22 55.0026 14.2403 56.1967C11.2606 57.3909 10.5669 60.962 15.9462 67.9165C19.1136 72.0221 23.1965 80.6997 23.0941 91.8735Z" fill="white"/>
<path id="Vector_87" d="M24.4591 87.0912H24.425C24.3541 87.0799 24.2902 87.0417 24.2468 86.9845C24.2033 86.9273 24.1837 86.8555 24.1919 86.7841C25.75 75.5136 21.2179 63.1626 16.1228 58.187C16.0715 58.1372 16.0421 58.0691 16.041 57.9976C16.04 57.9262 16.0673 57.8572 16.1171 57.806C16.1669 57.7547 16.235 57.7253 16.3064 57.7242C16.3779 57.7231 16.4468 57.7505 16.4981 57.8003C21.6841 62.8726 26.3072 75.4283 24.7264 86.858C24.7181 86.9229 24.6863 86.9824 24.637 87.0253C24.5878 87.0683 24.5245 87.0917 24.4591 87.0912Z" fill="white"/>
<path id="Vector_88" d="M12.6369 97.9125C12.0683 98.2537 10.8116 97.5088 10.3623 97.196C9.55302 96.6473 8.89887 95.8991 8.46307 95.0238C7.97618 94.0318 7.81118 92.9126 7.99109 91.8223C8.0863 91.2451 8.2212 90.6751 8.39483 90.1164L8.87249 88.4673C9.06396 87.9338 9.14521 87.367 9.11132 86.8012C8.96916 85.6639 7.97403 84.8792 7.05283 84.1968C6.04633 83.4462 4.99434 82.451 5.00002 81.092C5.07689 80.0382 5.49854 79.039 6.19986 78.2487C6.84812 77.4242 7.62148 76.6963 8.20718 75.832C8.67124 75.2261 8.91403 74.4796 8.89524 73.7166C8.83067 73.2507 8.6741 72.8023 8.43464 72.3974C7.8805 71.5557 7.39739 70.6693 6.99028 69.7475C6.66047 68.7979 6.70596 67.6151 7.44519 66.9384C7.77851 66.6931 8.15729 66.5164 8.5595 66.4188C8.9617 66.3212 9.37931 66.3045 9.78801 66.3698C10.559 66.4659 11.3 66.7278 11.9602 67.1374C14.1211 68.3373 15.3721 70.8905 17.6467 71.8174C18.5515 72.0939 19.4726 72.3142 20.4046 72.477C20.8718 72.5648 21.3154 72.7493 21.7071 73.0186C22.0988 73.2879 22.4299 73.6361 22.6792 74.0408C23.5151 75.7467 21.957 77.7882 22.5484 79.5737C23.0716 81.1488 24.6069 81.7516 25.4656 83.1732C25.8153 83.8032 25.9567 84.5278 25.8693 85.2431C25.793 86.4482 25.4982 87.6293 24.9993 88.7289C24.4379 89.8223 23.7974 90.8733 23.0829 91.8735C23.0602 91.9076 12.7279 97.8613 12.6369 97.9125Z" fill="#5558DA"/>
<path id="Vector_89" opacity="0.3" d="M12.6369 97.9125C12.0683 98.2537 10.8116 97.5088 10.3623 97.196C9.55302 96.6473 8.89887 95.8991 8.46307 95.0238C7.97618 94.0318 7.81118 92.9126 7.99109 91.8223C8.0863 91.2451 8.2212 90.6751 8.39483 90.1164L8.87249 88.4673C9.06396 87.9338 9.14521 87.367 9.11132 86.8012C8.96916 85.6639 7.97403 84.8792 7.05283 84.1968C6.04633 83.4462 4.99434 82.451 5.00002 81.092C5.07689 80.0382 5.49854 79.039 6.19986 78.2487C6.84812 77.4242 7.62148 76.6963 8.20718 75.832C8.67124 75.2261 8.91403 74.4796 8.89524 73.7166C8.83067 73.2507 8.6741 72.8023 8.43464 72.3974C7.8805 71.5557 7.39739 70.6693 6.99028 69.7475C6.66047 68.7979 6.70596 67.6151 7.44519 66.9384C7.77851 66.6931 8.15729 66.5164 8.5595 66.4188C8.9617 66.3212 9.37931 66.3045 9.78801 66.3698C10.559 66.4659 11.3 66.7278 11.9602 67.1374C14.1211 68.3373 15.3721 70.8905 17.6467 71.8174C18.5515 72.0939 19.4726 72.3142 20.4046 72.477C20.8718 72.5648 21.3154 72.7493 21.7071 73.0186C22.0988 73.2879 22.4299 73.6361 22.6792 74.0408C23.5151 75.7467 21.957 77.7882 22.5484 79.5737C23.0716 81.1488 24.6069 81.7516 25.4656 83.1732C25.8153 83.8032 25.9567 84.5278 25.8693 85.2431C25.793 86.4482 25.4982 87.6293 24.9993 88.7289C24.4379 89.8223 23.7974 90.8733 23.0829 91.8735C23.0602 91.9076 12.7279 97.8613 12.6369 97.9125Z" fill="white"/>
<path id="Vector_90" d="M18.7556 94.6542C18.72 94.6534 18.685 94.6456 18.6524 94.6311C18.6199 94.6166 18.5906 94.5958 18.5662 94.5699C18.5419 94.5439 18.5229 94.5133 18.5105 94.48C18.4981 94.4466 18.4925 94.4111 18.4941 94.3755C18.9376 83.7077 13.9108 71.9254 10.2544 68.5022C10.2293 68.4778 10.2093 68.4486 10.1957 68.4164C10.1821 68.3842 10.175 68.3495 10.175 68.3145C10.175 68.2795 10.1821 68.2449 10.1957 68.2126C10.2093 68.1804 10.2293 68.1512 10.2544 68.1269C10.3044 68.0775 10.3718 68.0499 10.442 68.0499C10.5123 68.0499 10.5797 68.0775 10.6297 68.1269C14.36 71.6183 19.4892 83.594 19.04 94.4153C19.0328 94.4842 18.9991 94.5476 18.946 94.5922C18.893 94.6367 18.8247 94.6589 18.7556 94.6542Z" fill="white"/>
<path id="Vector_91" d="M17.1581 82.0587C17.1319 82.0645 17.1047 82.0645 17.0785 82.0587C14.5499 81.3628 11.9528 80.9452 9.33351 80.8133C9.26861 80.8039 9.20928 80.7714 9.16637 80.7218C9.12347 80.6722 9.09985 80.6088 9.09985 80.5432C9.09985 80.4776 9.12347 80.4142 9.16637 80.3646C9.20928 80.315 9.26861 80.2825 9.33351 80.2731C11.9989 80.4126 14.6413 80.8397 17.2149 81.5469C17.2765 81.5654 17.3294 81.6056 17.3638 81.66C17.3981 81.7144 17.4117 81.7794 17.4021 81.843C17.3924 81.9066 17.3601 81.9646 17.3111 82.0063C17.2621 82.048 17.1997 82.0706 17.1353 82.07L17.1581 82.0587Z" fill="white"/>
</g>
</g>
</g>
</svg>
