<?xml version="1.0" standalone="no"?>
<!DOCTYPE svg PUBLIC "-//W3C//DTD SVG 20010904//EN"
 "http://www.w3.org/TR/2001/REC-SVG-20010904/DTD/svg10.dtd">
<svg version="1.0" xmlns="http://www.w3.org/2000/svg"
 width="512.000000pt" height="512.000000pt" viewBox="0 0 512.000000 512.000000"
 preserveAspectRatio="xMidYMid meet">

<g transform="translate(0.000000,512.000000) scale(0.100000,-0.100000)"
fill="#000000" stroke="none">
<path d="M1200 5106 c-103 -30 -183 -98 -228 -194 l-27 -57 0 -275 0 -275 27
-57 c73 -156 252 -240 412 -194 109 32 180 93 230 196 l31 65 0 265 0 265 -28
61 c-72 156 -260 246 -417 200z"/>
<path d="M3723 5105 c-102 -28 -178 -93 -227 -195 l-31 -65 0 -265 0 -265 31
-65 c51 -106 119 -163 230 -196 160 -46 339 38 412 194 27 56 27 60 30 310 4
283 -2 322 -61 407 -62 90 -186 156 -292 154 -22 0 -64 -7 -92 -14z"/>
<path d="M40 2255 l0 -2255 2520 0 2520 0 -2 2253 -3 2252 -355 0 -355 0 -6
-150 c-6 -167 -22 -228 -83 -320 -118 -178 -312 -269 -517 -244 -135 16 -226
63 -326 166 -110 113 -153 236 -153 441 l0 112 -720 0 -720 0 0 -113 c0 -143
-13 -214 -55 -302 -63 -131 -178 -234 -314 -281 -96 -33 -234 -35 -332 -5
-152 48 -286 174 -345 327 -24 60 -28 88 -33 219 l-6 150 -357 3 -358 2 0
-2255z m4680 -455 l0 -1440 -2160 0 -2160 0 0 1440 0 1440 2160 0 2160 0 0
-1440z"/>
<path d="M1840 2610 l0 -250 285 0 285 0 0 250 0 250 -285 0 -285 0 0 -250z"/>
<path d="M2760 2610 l0 -250 285 0 285 0 -2 248 -3 247 -282 3 -283 2 0 -250z"/>
<path d="M3610 2610 l0 -250 285 0 285 0 0 250 0 250 -285 0 -285 0 0 -250z"/>
<path d="M940 1770 l0 -250 283 2 282 3 3 248 2 247 -285 0 -285 0 0 -250z"/>
<path d="M1840 1770 l0 -250 285 0 285 0 0 250 0 250 -285 0 -285 0 0 -250z"/>
<path d="M2760 1770 l0 -250 285 0 285 0 0 250 0 250 -285 0 -285 0 0 -250z"/>
<path d="M3610 1770 l0 -250 285 0 285 0 0 250 0 250 -285 0 -285 0 0 -250z"/>
<path d="M940 920 l0 -250 283 2 282 3 3 248 2 247 -285 0 -285 0 0 -250z"/>
<path d="M1840 920 l0 -250 285 0 285 0 0 250 0 250 -285 0 -285 0 0 -250z"/>
<path d="M2760 920 l0 -250 283 2 282 3 3 248 2 247 -285 0 -285 0 0 -250z"/>
<path d="M3610 920 l0 -250 285 0 285 0 0 250 0 250 -285 0 -285 0 0 -250z"/>
</g>
</svg>
