<?xml version="1.0" standalone="no"?>
<!DOCTYPE svg PUBLIC "-//W3C//DTD SVG 20010904//EN"
 "http://www.w3.org/TR/2001/REC-SVG-20010904/DTD/svg10.dtd">
<svg version="1.0" xmlns="http://www.w3.org/2000/svg"
 width="612.000000pt" height="612.000000pt" viewBox="0 0 612.000000 612.000000"
 preserveAspectRatio="xMidYMid meet">

<g transform="translate(0.000000,612.000000) scale(0.100000,-0.100000)"
fill="#000000" stroke="none">
<path d="M2847 4893 c-4 -3 -7 -91 -7 -194 l0 -187 -67 -12 c-94 -16 -265 -74
-343 -116 -231 -126 -386 -332 -446 -591 -26 -112 -24 -301 5 -407 43 -162
145 -322 255 -403 157 -116 415 -212 786 -293 80 -18 180 -44 223 -57 136 -45
200 -126 177 -226 -11 -50 -39 -80 -103 -109 -48 -21 -65 -23 -212 -22 -139 0
-168 3 -220 22 -123 46 -205 123 -262 248 -14 33 -27 60 -28 62 -3 4 -769
-139 -774 -144 -8 -7 39 -143 75 -223 109 -238 309 -430 554 -532 69 -29 251
-79 342 -94 l38 -6 2 -192 3 -192 213 -3 212 -2 0 190 c0 222 -16 197 145 225
417 73 735 320 838 650 68 218 52 475 -40 660 -60 119 -170 241 -283 314 -112
73 -321 140 -712 231 -319 74 -363 92 -398 160 -23 46 -25 88 -6 133 29 68 97
103 221 114 203 17 385 -74 457 -228 13 -26 29 -48 36 -49 12 0 684 209 690
215 2 2 -14 41 -36 88 -135 288 -367 476 -687 557 -60 16 -136 31 -167 35
l-58 7 0 189 0 189 -208 0 c-115 0 -212 -3 -215 -7z"/>
</g>
</svg>
