<svg width="377" height="232" viewBox="0 0 377 232" fill="none" xmlns="http://www.w3.org/2000/svg">
<path d="M35.7298 231.86H326.909C357.498 225.307 357.794 177.879 326.909 172.889C287.024 165.399 291.822 107.364 326.909 103.932C395.881 106.427 390.782 19.7549 326.909 20.0005H35.4295C-13.1498 24.6814 -10.4506 100.191 35.4295 101.127C83.7085 97.0692 95.4062 172.113 35.4295 172.269C-11.3514 172.582 -5.35243 235.299 35.7298 231.864V231.86Z" fill="white"/>
<path d="M255.752 35.9638C262.068 35.9638 267.188 33.6219 267.188 30.733C267.188 27.8441 262.068 25.5022 255.752 25.5022C249.435 25.5022 244.315 27.8441 244.315 30.733C244.315 33.6219 249.435 35.9638 255.752 35.9638Z" fill="#878EE7"/>
<path d="M259.967 21.6524C260.905 15.8823 259.082 10.7842 255.893 10.2655C252.705 9.74686 249.36 14.0041 248.421 19.7742C247.482 25.5444 249.306 30.6425 252.494 31.1612C255.682 31.6798 259.028 27.4226 259.967 21.6524Z" fill="#EBECFB"/>
<path d="M262.969 24.4509C266.043 19.1653 266.271 13.5641 263.479 11.9402C260.687 10.3164 255.931 13.2849 252.857 18.5705C249.784 23.8561 249.555 29.4574 252.348 31.0812C255.14 32.705 259.895 29.7366 262.969 24.4509Z" fill="#878EE7"/>
<path d="M252.167 34.9644C254.685 36.837 257.884 38.5531 260.797 39.4153" stroke="#878EE7" stroke-width="0.823748" stroke-linecap="round" stroke-linejoin="round"/>
<path d="M274.861 37.9822C302.734 46.8842 321.551 69.1775 306.408 98.0087C295.543 120.986 258.499 119.695 255.361 105.266C251.895 89.3264 278.016 84.6008 302.465 94.6972C318.995 101.114 330.292 118.5 311.292 135.5" stroke="#EBECFB" stroke-width="1.09833" stroke-miterlimit="10"/>
<path d="M245.673 30.4145C246.711 30.4145 247.554 29.5724 247.554 28.5336C247.554 27.4948 246.711 26.6527 245.673 26.6527C244.634 26.6527 243.792 27.4948 243.792 28.5336C243.792 29.5724 244.634 30.4145 245.673 30.4145Z" fill="#EBECFB"/>
<path d="M132.962 225.796L130.779 224.535C130.415 224.299 130.112 223.98 129.895 223.604C129.678 223.229 129.552 222.808 129.529 222.375V60.4553C129.552 60.0223 129.678 59.601 129.895 59.2256C130.112 58.8502 130.415 58.5315 130.779 58.2953L231.227 0.297903C231.614 0.102056 232.041 0 232.474 0C232.908 0 233.335 0.102056 233.721 0.297903L235.91 1.55934C236.272 1.79682 236.573 2.116 236.79 2.49118C237.006 2.86635 237.131 3.28703 237.154 3.71934V165.639C237.131 166.071 237.006 166.492 236.79 166.867C236.573 167.242 236.272 167.561 235.91 167.799L135.456 225.796C135.069 225.992 134.642 226.094 134.209 226.094C133.776 226.094 133.348 225.992 132.962 225.796Z" fill="#5558DA"/>
<path opacity="0.4" d="M237.143 3.51774C237.056 2.87262 236.532 2.63646 235.91 2.99934L135.456 60.9968C135.088 61.2255 134.784 61.5447 134.574 61.9241L129.892 59.2227C130.104 58.8438 130.41 58.5248 130.779 58.2953L231.227 0.297903C231.614 0.102056 232.041 0 232.474 0C232.908 0 233.335 0.102056 233.721 0.297903L235.91 1.55934C236.244 1.77876 236.526 2.0671 236.739 2.40492C236.951 2.74273 237.089 3.1222 237.143 3.51774Z" fill="white"/>
<path opacity="0.15" d="M135.237 225.9C135.214 225.914 135.189 225.924 135.162 225.929L135.035 225.975H134.984L134.753 226.032H134.724C134.227 226.126 133.714 226.085 133.238 225.911C133.143 225.876 133.051 225.834 132.962 225.785L130.779 224.54C130.417 224.303 130.116 223.983 129.9 223.608C129.684 223.233 129.559 222.813 129.535 222.38V60.4553C129.55 60.0204 129.674 59.5963 129.898 59.2227L134.58 61.9241C134.362 62.2967 134.243 62.7192 134.235 63.151V225.082C134.222 225.316 134.289 225.547 134.425 225.739C134.504 225.834 134.609 225.905 134.728 225.943C134.846 225.981 134.973 225.984 135.093 225.952L135.237 225.9Z" fill="black"/>
<path d="M205.78 30.1116L205.595 30.0022L203.522 28.8099C202.768 28.3918 201.951 28.1018 201.103 27.9516C200.745 27.871 200.423 27.7788 200.141 27.6867C199.827 27.5822 199.521 27.4571 199.225 27.3123L199.38 27.1222L197.019 25.7628C196.826 25.6519 196.618 25.5685 196.402 25.5152C195.521 25.302 194.202 25.8147 192.883 25.6649C192.405 25.6157 191.944 25.4629 191.531 25.2172C191.118 24.9715 190.764 24.6388 190.493 24.2422C189.692 23.1651 189.208 21.2758 188.5 19.7148L189.133 18.799L188.937 18.6896L186.789 17.4454C186.426 17.232 186.012 17.1205 185.591 17.1228C184.789 17.1663 184.013 17.4185 183.339 17.8544C178.195 20.8265 178.022 27.8825 176.167 32.5193C174.313 37.1561 171.692 38.6134 170.263 40.5833C168.835 42.5532 168.737 44.0393 165.575 48.4169C162.413 52.7945 162.286 53.8428 162.286 54.6665V61.1638L164.624 62.5116L206.724 38.1987L205.78 30.1116ZM167.188 55.1504C166.64 55.4614 166.191 55.0409 166.191 54.1942C166.185 53.79 166.272 53.3898 166.444 53.0243C166.617 52.6589 166.871 52.3379 167.188 52.086C167.735 51.7692 168.178 52.2012 168.178 53.048C168.184 53.4519 168.097 53.8517 167.923 54.2163C167.749 54.581 167.494 54.9006 167.176 55.1504H167.188ZM185.671 36.92C184.289 37.7206 183.079 37.2656 182.429 35.9292C180.799 36.246 179.583 34.6678 179.583 31.9606C179.583 28.7696 181.265 25.2156 183.339 24.0176C183.604 23.8236 183.911 23.6941 184.235 23.6394C184.559 23.5847 184.891 23.6062 185.205 23.7024C185.52 23.7986 185.807 23.9667 186.045 24.1934C186.283 24.42 186.465 24.6991 186.576 25.0083C188.212 24.6857 189.421 26.2582 189.421 28.9769C189.421 32.168 187.745 35.7219 185.671 36.92ZM199.651 36.3958C199.104 36.7126 198.66 36.2864 198.66 35.4454C198.653 35.0424 198.738 34.643 198.91 34.2784C199.082 33.9137 199.335 33.5936 199.651 33.343C200.227 33.0262 200.647 33.4524 200.647 34.2992C200.655 34.7019 200.569 35.1009 200.396 35.4647C200.223 35.8285 199.968 36.1472 199.651 36.3958Z" fill="#455A64"/>
<path opacity="0.5" d="M166.963 56.3081L162.459 53.6989C162.355 54.0246 162.304 54.365 162.309 54.7069V61.2041L164.647 62.552L166.986 61.1984L166.963 56.3081Z" fill="#37474F"/>
<path opacity="0.5" d="M171.64 48.2038L173.979 42.801L170.264 40.6179C169.169 42.127 168.852 43.3424 167.384 45.7443L171.64 48.2038Z" fill="#37474F"/>
<path opacity="0.5" d="M181 37.398L181.305 35.8256C180.269 35.3878 179.577 33.9939 179.577 31.9606C179.577 29.2476 180.793 26.2812 182.457 24.7145L179.192 22.831C177.809 25.9817 177.296 29.6969 176.168 32.5193C175.944 33.0791 175.692 33.627 175.413 34.1609L181 37.398Z" fill="#37474F"/>
<path d="M205.78 30.1117L205.595 30.0022C204.907 29.6798 204.182 29.4438 203.435 29.2995C202.209 29.076 201.069 28.5179 200.141 27.6867C199.907 27.47 199.652 27.277 199.38 27.1107C199.183 26.9959 198.969 26.9123 198.747 26.863C197.33 26.5232 194.749 28.0669 192.894 25.6649L192.837 25.5901C191.541 23.8621 191.069 19.951 189.127 18.8048L188.932 18.6953C188.131 18.3209 187.088 18.3901 185.666 19.208C180.522 22.1801 180.349 29.2361 178.494 33.8729C176.64 38.5097 174.019 39.967 172.59 41.9369C171.162 43.9069 171.07 45.3929 167.902 49.7705C164.734 54.1481 164.619 55.1965 164.619 56.0202V62.575L206.718 38.2621V31.7475C206.749 31.4114 206.675 31.074 206.507 30.7813C206.339 30.4886 206.085 30.2548 205.78 30.1117ZM169.492 56.4982C168.916 56.815 168.501 56.3888 168.501 55.5421C168.494 55.1383 168.579 54.7382 168.751 54.3727C168.923 54.0072 169.176 53.686 169.492 53.4339C170.068 53.1171 170.482 53.5491 170.482 54.3958C170.493 54.7976 170.411 55.1963 170.242 55.561C170.073 55.9257 169.822 56.2464 169.509 56.4982H169.492ZM185.654 36.9142C184.272 37.7149 183.062 37.2598 182.411 35.9235C182.045 35.0996 181.87 34.2038 181.899 33.3027C181.899 30.1117 183.581 26.5577 185.654 25.3597C185.935 25.1929 186.24 25.0723 186.558 25.0025C188.194 24.68 189.404 26.2525 189.404 28.9712C189.421 32.168 187.745 35.7219 185.671 36.92L185.654 36.9142ZM201.972 37.7379C201.396 38.0547 200.976 37.6285 200.976 36.7875C200.967 36.3838 201.053 35.9837 201.226 35.6188C201.399 35.2539 201.654 34.9343 201.972 34.6851C202.548 34.3683 202.963 34.7945 202.963 35.6413C202.973 36.0429 202.891 36.4415 202.722 36.8062C202.553 37.1708 202.302 37.4916 201.99 37.7437L201.972 37.7379Z" fill="#37474F"/>
<path d="M189.421 28.9769C189.421 32.168 187.745 35.7219 185.671 36.92C184.289 37.7206 183.079 37.2656 182.429 35.9293C182.75 35.8622 183.058 35.7415 183.339 35.5721C185.412 34.3741 187.088 30.8201 187.088 27.6291C187.117 26.728 186.942 25.8322 186.576 25.0083C188.212 24.6857 189.421 26.287 189.421 28.9769Z" fill="#263238"/>
<path d="M169.509 56.4925C168.933 56.8093 168.512 56.383 168.512 55.5421C168.505 55.1377 168.592 54.7372 168.765 54.3716C168.937 54.006 169.192 53.6851 169.509 53.4339C170.056 53.1171 170.5 53.5491 170.5 54.3958C170.507 54.7979 170.421 55.1963 170.249 55.5599C170.078 55.9236 169.824 56.2427 169.509 56.4925Z" fill="#263238"/>
<path d="M201.984 37.7437C201.408 38.0605 200.993 37.6342 200.993 36.7933C200.985 36.3894 201.071 35.9892 201.243 35.6236C201.414 35.2581 201.668 34.9369 201.984 34.6851C202.56 34.3683 202.98 34.8003 202.98 35.647C202.988 36.0498 202.902 36.4487 202.729 36.8126C202.556 37.1764 202.301 37.4951 201.984 37.7437Z" fill="#263238"/>
<path d="M141.97 76.1398L229.384 25.6707C229.617 25.5542 229.873 25.4935 230.133 25.4935C230.393 25.4935 230.649 25.5542 230.882 25.6707L231.729 26.1603C231.946 26.3025 232.127 26.4939 232.257 26.7191C232.388 26.9442 232.463 27.1967 232.477 27.4563V160.812C232.463 161.071 232.388 161.324 232.257 161.549C232.127 161.774 231.946 161.966 231.729 162.108L144.315 212.577C144.082 212.693 143.826 212.754 143.566 212.754C143.306 212.754 143.05 212.693 142.817 212.577L141.97 212.087C141.753 211.945 141.572 211.754 141.442 211.529C141.312 211.303 141.236 211.051 141.222 210.791V77.4358C141.237 77.1764 141.313 76.9242 141.443 76.6993C141.573 76.4743 141.753 76.2827 141.97 76.1398Z" fill="#F5F5F5"/>
<path d="M232.449 27.2317C232.356 26.9264 232.068 26.8285 231.729 27.0243L144.315 77.4934C144.09 77.6353 143.908 77.834 143.785 78.0694L141.446 76.7216C141.567 76.485 141.751 76.2859 141.976 76.1456L229.39 25.6765C229.621 25.5573 229.876 25.4951 230.136 25.4951C230.395 25.4951 230.651 25.5573 230.882 25.6765L231.729 26.1603C231.914 26.2817 232.073 26.4391 232.197 26.6231C232.321 26.8071 232.406 27.014 232.449 27.2317Z" fill="#FAFAFA"/>
<path d="M144.136 212.658C144.047 212.692 143.954 212.717 143.86 212.732H143.716C143.564 212.75 143.412 212.75 143.261 212.732C143.166 212.717 143.073 212.692 142.984 212.658L142.817 212.577L141.976 212.093C141.758 211.951 141.577 211.76 141.447 211.535C141.317 211.309 141.241 211.057 141.227 210.797V77.4416C141.234 77.1808 141.309 76.9264 141.446 76.7043L143.785 78.0521C143.652 78.276 143.577 78.5293 143.566 78.7894V212.145C143.566 212.554 143.808 212.755 144.136 212.658Z" fill="#E0E0E0"/>
<path d="M212.784 44.5635L210.48 43.2157C210.113 43.038 209.709 42.9515 209.302 42.9635C208.895 42.9755 208.497 43.0858 208.141 43.2848C205.422 44.4829 204.247 45.0128 202.842 45.5888L201.828 45.9978C201.281 46.2166 200.181 46.0323 200.521 44.1142L204.132 34.3856H204.08L201.776 33.0608C201.66 32.9918 201.531 32.9468 201.396 32.9283C201.312 32.9218 201.227 32.9218 201.143 32.9283C199.662 32.8938 199.242 23.3552 199.23 23.0614L199.127 23.0038L196.857 21.679C196.464 21.4563 196.019 21.3429 195.567 21.3507C194.817 21.3703 194.083 21.5677 193.424 21.9267C189.87 23.793 186.282 29.3226 185.406 34.2877C184.83 37.4211 181.703 42.2422 179.883 44.0163C178.062 45.7904 177.936 47.2765 177.936 47.2765L176.519 55.3059L176.064 57.8749C175.73 59.793 173.76 61.6477 173.76 61.6477L166.433 67.183C161.825 70.9962 160.546 74.8438 159.665 79.6074V79.6419C159.665 79.809 159.665 79.9242 159.746 79.9702C159.758 79.9773 159.772 79.981 159.786 79.981C159.8 79.981 159.814 79.9773 159.826 79.9702L160.765 79.4346L211.211 50.3408C211.451 50.1763 211.617 49.9238 211.672 49.6381C211.96 47.9101 212.824 44.6442 212.824 44.6442L212.784 44.5635ZM198.199 29.8237C197.658 32.8765 195.458 36.2806 193.269 37.4269C191.76 38.216 190.66 37.7264 190.291 36.3382C190.02 36.445 189.726 36.4814 189.437 36.4442C189.148 36.4069 188.873 36.2972 188.638 36.1251C187.935 35.5491 194.363 24.5418 194.887 24.7837C195.14 24.9143 195.36 25.101 195.53 25.3297C195.7 25.5583 195.815 25.8227 195.867 26.1027C197.658 25.5555 198.683 27.0819 198.199 29.8237Z" fill="#455A64"/>
<path opacity="0.5" d="M166.963 72.5225L163.288 70.3971C161.151 73.2022 160.299 76.1571 159.665 79.5843V79.6189C159.665 79.7859 159.665 79.9011 159.746 79.9472C159.758 79.9543 159.772 79.958 159.786 79.958C159.8 79.958 159.814 79.9543 159.826 79.9472L162.706 77.6432L166.963 72.5225Z" fill="#37474F"/>
<path opacity="0.5" d="M175.822 58.7216L181.006 61.711L183.344 48.2038L178.673 45.5081C178.301 46.0426 178.052 46.6521 177.942 47.2937L176.525 55.3232L176.07 57.8921C176.012 58.1754 175.929 58.453 175.822 58.7216Z" fill="#37474F"/>
<path opacity="0.5" d="M187.86 27.8538C186.676 29.8462 185.846 32.0289 185.407 34.305C185.038 35.9265 184.42 37.481 183.575 38.913L188.022 41.4819L190.228 36.3786C189.964 36.4725 189.682 36.5012 189.405 36.4621C189.128 36.423 188.865 36.3172 188.638 36.1539C188.275 35.8659 189.79 32.8131 191.437 29.9446L187.86 27.8538Z" fill="#37474F"/>
<path d="M212.818 44.5808H212.784C212.421 44.4107 212.023 44.3288 211.623 44.3418C211.222 44.3548 210.831 44.4624 210.48 44.6557C207.145 46.1245 206.137 46.6083 204.144 47.3917C203.614 47.6048 202.548 47.432 202.825 45.6291C202.822 45.5889 202.822 45.5484 202.825 45.5082L203.28 42.9392L204.541 35.9408C204.541 35.9408 204.829 34.8406 204.098 34.4259H204.046C203.866 34.342 203.669 34.2988 203.47 34.2992C203.045 34.2486 202.636 34.1027 202.275 33.8723C201.914 33.642 201.61 33.333 201.385 32.9686C200.99 32.3835 200.718 31.725 200.583 31.0323C200.449 30.3396 200.455 29.6269 200.602 28.9366C201.131 25.9357 200.55 23.8333 199.219 23.0499L199.115 22.9866C198.257 22.5315 197.105 22.6064 195.757 23.3149C192.203 25.1811 188.615 30.7107 187.739 35.6758C187.163 38.8093 184.036 43.6304 182.216 45.4045C180.395 47.1786 180.269 48.6646 180.269 48.6646L178.852 56.6941L178.397 59.263C178.063 61.1811 176.093 63.0358 176.093 63.0358L168.795 68.5136C165.869 70.8422 163.758 74.0386 162.764 77.6432C162.764 77.6432 160.017 79.7744 159.844 79.9472L160.783 79.4115L211.373 50.3293C211.373 50.3293 211.949 50.0125 212.081 49.9318C212.214 49.8512 214.247 47.9274 214.247 47.9274C214.149 46.2685 213.665 45.0877 212.818 44.5808ZM198.2 29.8237C197.658 32.8765 195.458 36.2806 193.269 37.4269C191.76 38.216 190.66 37.7264 190.291 36.3382C190.127 35.5576 190.127 34.7515 190.291 33.9709C190.833 30.9181 193.039 27.5139 195.227 26.3734C195.43 26.2645 195.642 26.1739 195.861 26.1027C197.658 25.5555 198.683 27.0819 198.2 29.8237Z" fill="#37474F"/>
<path d="M198.199 29.8237C197.658 32.8765 195.458 36.2806 193.269 37.4269C191.76 38.216 190.66 37.7264 190.291 36.3382C190.511 36.2682 190.725 36.1795 190.93 36.0733C193.119 34.9213 195.325 31.5229 195.861 28.4701C196.027 27.6897 196.027 26.8831 195.861 26.1027C197.658 25.5555 198.683 27.0819 198.199 29.8237Z" fill="#263238"/>
<path d="M196.086 26.2294C196.291 26.2164 196.497 26.2568 196.683 26.3466C196.868 26.4364 197.028 26.5726 197.145 26.7421C198.05 28.0323 197.18 31.3155 196.806 32.3638C196.281 33.8269 192.889 37.2541 191.956 37.2541C191.647 37.2033 191.352 37.0904 191.089 36.922C190.825 36.7537 190.599 36.5335 190.423 36.2749C190.27 35.5146 190.27 34.7312 190.423 33.9709C190.959 30.9584 193.142 27.5946 195.285 26.4829C195.469 26.3791 195.661 26.2923 195.861 26.2237H196.063M196.063 26.0797H195.832C195.613 26.1509 195.401 26.2415 195.199 26.3504C193.01 27.5024 190.804 30.895 190.262 33.9478C190.098 34.7285 190.098 35.5346 190.262 36.3152C190.45 36.5971 190.695 36.8368 190.98 37.0192C191.266 37.2017 191.586 37.3228 191.921 37.375C192.935 37.375 196.345 33.919 196.892 32.3926C197.439 30.8662 198.62 26.0566 196.039 26.0566L196.063 26.0797Z" fill="#263238"/>
<path d="M159.826 79.9529L211.355 50.3292L212.07 49.9318C212.196 49.8569 214.235 47.9216 214.235 47.9216L162.741 77.6432C162.741 77.6432 159.619 80.0566 159.826 79.9529Z" fill="#263238"/>
<path d="M150.685 93.4256L164.625 85.2579V101.472L150.685 109.634V93.4256Z" fill="#FAFAFA"/>
<path d="M151.261 93.7539V108.655L164.049 101.167V86.2659L151.261 93.7539ZM150.685 110.21C150.585 110.209 150.486 110.184 150.397 110.135C150.31 110.085 150.237 110.012 150.186 109.924C150.135 109.836 150.109 109.736 150.109 109.634V93.4256C150.108 93.3246 150.134 93.2252 150.184 93.1373C150.233 93.0493 150.305 92.9759 150.392 92.9244L164.331 84.7625C164.418 84.712 164.518 84.6854 164.619 84.6854C164.72 84.6854 164.819 84.712 164.907 84.7625C164.994 84.8128 165.066 84.885 165.117 84.9719C165.167 85.0588 165.194 85.1574 165.195 85.2579V101.472C165.194 101.573 165.167 101.671 165.117 101.758C165.066 101.845 164.994 101.917 164.907 101.968L150.968 110.13C150.882 110.18 150.785 110.208 150.685 110.21Z" fill="#455A64"/>
<path d="M171.64 81.7789V82.9309C171.64 83.5702 172.089 83.8294 172.637 83.5069L222.115 54.9488C222.406 54.7593 222.648 54.5042 222.822 54.204C222.996 53.9039 223.097 53.5672 223.117 53.2208V52.04C223.117 51.4064 222.668 51.1472 222.115 51.464L172.637 80.0336C172.344 80.2248 172.101 80.4828 171.928 80.7862C171.755 81.0896 171.656 81.4298 171.64 81.7789Z" fill="#E0E0E0"/>
<path d="M171.64 88.8579V90.0099C171.64 90.6435 172.089 90.9027 172.637 90.5859L222.115 62.0221C222.406 61.8332 222.649 61.5783 222.823 61.278C222.997 60.9778 223.098 60.6406 223.117 60.2941V59.1421C223.117 58.5027 222.668 58.2435 222.115 58.5661L172.637 87.1299C172.346 87.3194 172.105 87.5746 171.932 87.8749C171.759 88.1751 171.659 88.5119 171.64 88.8579Z" fill="#E0E0E0"/>
<path d="M171.64 95.8966V97.0486C171.64 97.6822 172.089 97.9414 172.637 97.6246L222.115 69.0608C222.407 68.8723 222.649 68.6174 222.824 68.3171C222.998 68.0167 223.098 67.6795 223.117 67.3328V66.1808C223.117 65.5472 222.668 65.288 222.115 65.6048L172.637 94.1686C172.347 94.3591 172.107 94.6146 171.934 94.9146C171.761 95.2146 171.66 95.5509 171.64 95.8966Z" fill="#E0E0E0"/>
<path d="M157.885 101.708L154.642 98.5923L156.042 95.6317L157.885 97.4115L165.563 81.1568L166.963 82.4988L157.885 101.708Z" fill="#5558DA"/>
<path d="M150.685 123.141L164.625 114.979V131.188L150.685 139.35V123.141Z" fill="#FAFAFA"/>
<path d="M151.261 123.47V138.348L164.049 130.86V115.982L151.261 123.47ZM150.685 139.926C150.584 139.927 150.485 139.901 150.397 139.851C150.309 139.8 150.237 139.727 150.186 139.639C150.135 139.551 150.109 139.452 150.109 139.35V123.141C150.109 123.041 150.135 122.943 150.185 122.856C150.234 122.77 150.306 122.697 150.392 122.646L164.331 114.484C164.418 114.432 164.518 114.405 164.62 114.404C164.721 114.403 164.821 114.429 164.91 114.479C164.998 114.529 165.071 114.602 165.123 114.69C165.174 114.778 165.201 114.878 165.201 114.979V131.188C165.201 131.29 165.175 131.389 165.124 131.477C165.073 131.565 165 131.639 164.913 131.689L150.973 139.851C150.886 139.901 150.786 139.927 150.685 139.926Z" fill="#455A64"/>
<path d="M171.64 111.495V112.647C171.64 113.28 172.089 113.54 172.637 113.223L222.115 84.6589C222.407 84.4703 222.649 84.2155 222.824 83.9152C222.998 83.6148 223.098 83.2775 223.117 82.9309V81.7789C223.117 81.1395 222.668 80.8861 222.115 81.2029L172.637 109.767C172.347 109.957 172.107 110.213 171.934 110.513C171.761 110.813 171.66 111.149 171.64 111.495Z" fill="#E0E0E0"/>
<path d="M171.64 118.58V119.732C171.64 120.371 172.089 120.624 172.637 120.308L222.115 91.7437C222.407 91.5551 222.649 91.3003 222.824 91C222.998 90.6996 223.098 90.3623 223.117 90.0157V88.8637C223.117 88.2301 222.668 87.9709 222.115 88.2877L172.637 116.857C172.347 117.046 172.106 117.301 171.933 117.6C171.76 117.899 171.66 118.234 171.64 118.58Z" fill="#E0E0E0"/>
<path d="M171.64 125.618V126.77C171.64 127.404 172.089 127.663 172.637 127.346L222.115 98.7824C222.406 98.5935 222.649 98.3386 222.823 98.0383C222.997 97.7381 223.098 97.401 223.117 97.0544V95.9024C223.117 95.263 222.668 95.0038 222.115 95.3264L172.637 123.89C172.347 124.08 172.106 124.336 171.933 124.636C171.76 124.936 171.66 125.272 171.64 125.618Z" fill="#E0E0E0"/>
<path d="M157.885 131.43L154.642 128.308L156.042 125.353L157.885 127.127L165.563 110.873L166.963 112.22L157.885 131.43Z" fill="#5558DA"/>
<path d="M150.685 152.863L164.625 144.695V160.91L150.685 169.072V152.863Z" fill="#FAFAFA"/>
<path d="M151.261 153.191V168.069L164.049 160.581V145.703L151.261 153.191ZM150.685 169.648C150.585 169.648 150.485 169.623 150.397 169.573C150.31 169.522 150.237 169.449 150.186 169.361C150.135 169.273 150.109 169.173 150.109 169.072V152.863C150.108 152.762 150.134 152.663 150.184 152.575C150.233 152.487 150.305 152.413 150.392 152.362L164.331 144.2C164.419 144.148 164.519 144.12 164.621 144.119C164.723 144.119 164.824 144.145 164.912 144.196C165.001 144.247 165.074 144.321 165.125 144.41C165.175 144.498 165.202 144.599 165.201 144.701V160.91C165.2 161.01 165.173 161.109 165.123 161.196C165.072 161.283 165 161.355 164.913 161.405L150.973 169.567C150.886 169.619 150.787 169.647 150.685 169.648Z" fill="#455A64"/>
<path d="M171.64 141.216V142.368C171.64 143.002 172.089 143.261 172.637 142.944L222.115 114.415C222.406 114.226 222.649 113.971 222.823 113.671C222.997 113.371 223.098 113.034 223.117 112.687V111.535C223.117 110.896 222.668 110.636 222.115 110.959L172.637 139.523C172.352 139.71 172.113 139.96 171.941 140.253C171.768 140.547 171.665 140.876 171.64 141.216Z" fill="#E0E0E0"/>
<path d="M171.64 148.295V149.447C171.64 150.081 172.089 150.34 172.637 150.023L222.115 121.459C222.407 121.271 222.649 121.016 222.824 120.716C222.998 120.415 223.098 120.078 223.117 119.731V118.579C223.117 117.94 222.668 117.687 222.115 118.003L172.637 146.567C172.347 146.758 172.106 147.013 171.933 147.313C171.76 147.613 171.66 147.949 171.64 148.295Z" fill="#E0E0E0"/>
<path d="M171.64 155.34V156.492C171.64 157.131 172.089 157.385 172.637 157.068L222.115 128.504C222.407 128.316 222.65 128.061 222.824 127.761C222.998 127.46 223.099 127.123 223.117 126.776V125.595C223.117 124.962 222.668 124.702 222.115 125.019L172.637 153.589C172.343 153.781 172.1 154.039 171.927 154.344C171.754 154.648 171.655 154.99 171.64 155.34Z" fill="#E0E0E0"/>
<path d="M150.685 182.579L164.625 174.417V190.631L150.685 198.793V182.579Z" fill="#FAFAFA"/>
<path d="M151.261 182.913V197.785L164.049 190.297V175.425L151.261 182.913ZM150.685 199.369C150.533 199.369 150.386 199.309 150.278 199.201C150.17 199.093 150.109 198.946 150.109 198.793V182.579C150.109 182.479 150.135 182.381 150.185 182.294C150.234 182.207 150.306 182.134 150.392 182.084L164.331 173.922C164.418 173.871 164.518 173.844 164.619 173.844C164.72 173.844 164.819 173.871 164.907 173.922C164.995 173.972 165.068 174.045 165.118 174.133C165.169 174.221 165.195 174.321 165.195 174.423V190.637C165.194 190.738 165.167 190.836 165.117 190.923C165.066 191.01 164.994 191.082 164.907 191.132L150.968 199.294C150.882 199.343 150.784 199.369 150.685 199.369Z" fill="#455A64"/>
<path d="M171.64 170.938V172.09C171.64 172.729 172.089 172.983 172.637 172.666L222.115 144.102C222.407 143.914 222.649 143.659 222.824 143.358C222.998 143.058 223.098 142.721 223.117 142.374V141.222C223.117 140.588 222.668 140.329 222.115 140.646L172.637 169.216C172.347 169.405 172.106 169.659 171.933 169.958C171.76 170.257 171.66 170.593 171.64 170.938Z" fill="#E0E0E0"/>
<path d="M171.64 178.017V179.169C171.64 179.808 172.089 180.068 172.637 179.745L222.115 151.187C222.406 150.997 222.648 150.742 222.822 150.442C222.996 150.142 223.097 149.805 223.117 149.459V148.278C223.117 147.644 222.668 147.385 222.115 147.702L172.637 176.272C172.344 176.463 172.101 176.721 171.928 177.024C171.755 177.328 171.656 177.668 171.64 178.017Z" fill="#E0E0E0"/>
<path d="M171.64 185.056V186.208C171.64 186.841 172.089 187.1 172.637 186.784L222.115 158.22C222.407 158.031 222.649 157.776 222.824 157.476C222.998 157.176 223.098 156.838 223.117 156.492V155.34C223.117 154.7 222.668 154.447 222.115 154.764L172.637 183.328C172.347 183.518 172.107 183.774 171.934 184.074C171.761 184.374 171.66 184.71 171.64 185.056Z" fill="#E0E0E0"/>
<path d="M215.515 176.666L193.09 181.059C192.947 181.087 192.799 181.07 192.667 181.01C192.535 180.95 192.424 180.85 192.352 180.724C192.279 180.598 192.248 180.453 192.262 180.308C192.276 180.163 192.335 180.027 192.43 179.917L207.646 162.692L215.515 176.666Z" fill="#FFA8A7"/>
<path d="M192.43 179.917C192.335 180.027 192.276 180.163 192.262 180.308C192.248 180.453 192.279 180.598 192.352 180.724C192.424 180.85 192.535 180.95 192.667 181.01C192.799 181.07 192.947 181.087 193.09 181.059L197.469 180.2C196.868 179.828 196.381 179.297 196.062 178.665C195.743 178.034 195.605 177.326 195.662 176.621L195.69 176.232L192.43 179.917Z" fill="#263238"/>
<path d="M291.262 114.742L289.446 115.791L287.236 117.066L207.673 162.703C206.844 165.137 207.246 167.805 208.295 170.139C209.884 173.698 212.976 176.508 215.53 176.67L295.049 131.059L299.274 128.62C296.425 130.045 288.446 116.202 291.262 114.742Z" fill="#5558DA"/>
<path d="M284.267 118.721L280.177 121.082C278.966 121.728 279.661 124.706 281.076 127.766C282.942 131.85 286.622 135.805 288.222 134.948L291.24 133.205L292.317 132.583C290.714 133.435 287.029 129.484 285.166 125.405C283.813 122.462 283.14 119.591 284.152 118.821C284.183 118.78 284.222 118.746 284.267 118.721Z" fill="#EBEBEB"/>
<path d="M283.25 119.321C280.439 120.811 288.486 134.668 291.297 133.179L295.393 130.814C292.582 132.304 284.54 118.457 287.346 116.957L283.25 119.321Z" fill="#5558DA"/>
<path d="M291.262 114.743L287.221 117.075C284.449 118.517 292.102 131.956 295.034 131.068C295.093 131.056 295.15 131.034 295.203 131.004L299.274 128.654C296.426 130.045 288.446 116.202 291.262 114.743Z" fill="#EBEBEB"/>
<path opacity="0.1" d="M295.022 131.048L299.248 128.608C297.967 129.248 295.409 126.947 293.484 123.868L209.364 172.176L193.091 181.072L215.515 176.666L295.022 131.048Z" fill="black"/>
<path d="M308.439 104.912L291.247 114.751C290.043 115.373 290.71 118.314 292.101 121.368C293.957 125.458 297.623 129.447 299.241 128.632L316.486 118.756C319.908 116.78 316.762 109.338 312.942 106.017C311.552 104.751 309.963 104.198 308.439 104.912Z" fill="#F28F8F"/>
</svg>
